<svg xmlns="http://www.w3.org/2000/svg" xmlns:xlink="http://www.w3.org/1999/xlink" width="441" height="58" fill="none" xmlns:v="https://vecta.io/nano"><style><![CDATA[.B{stroke:#fff}.C{stroke-width:3}]]></style><g filter="url(#A)" class="B C"><path d="M231.283 55.01h1.5v-1.5-36.594c0-4.328-2.045-7.987-5.458-10.519-3.385-2.511-8.076-3.897-13.461-3.897s-10.076 1.386-13.461 3.897c-3.413 2.532-5.459 6.191-5.459 10.519v36.429 1.5h1.5 8.627 1.5v-1.5V16.75c0-.382.354-1.086 1.894-1.778 1.427-.641 3.407-1.027 5.399-1.027 2.438 0 4.648.614 6.031 1.443l.008.005.008.005c.805.469 1.066.853 1.156 1.031.086.172.09.293.09.487V53.51v1.5h1.5 8.626z" fill="url(#B)"/><path d="M58.747 55.838h1.771l-.292-1.747-.828-4.957c-.588-3.854-2.558-15.115-6.726-25.452-2.084-5.169-4.756-10.204-8.152-13.97-3.41-3.781-7.653-6.384-12.815-6.384h-.001-.001-.001-.001-.001-.001-.001-.001-.001-.001-.001-.001-.001-.001-.001-.001-.001-.001-.001-.001-.001-.001-.001-.001-.001-.001-.001-.001-.001-.001-.001-.001-.001-.001-.001-.001-.001-.001-.001-.001-.001-.001-.001-.001-.001-.001-.001-.001-.001-.001-.001-.001-.001-.001-.001-.001-.001-.001-.001-.001-.001-.001-.001-.001-.001-.001-.001-.001-.001-.001-.001-.001-.001-.001-.001-.001-.001-.001-.001-.001-.001-.001-.001-.001-.001-.001-.001-.001-.001-.001-.001-.001-.001-.001-.001-.001-.001-.001-.001-.001-.001-.001-.001-.001-.001-.001-.001-.001-.001-.001-.001-.001-.001-.001-.001-.001-.001-.001-.001-.001-.001-.001-.001-.001-.001-.001-.001-.001-.001-.001-.001-.001-.001 0-.001-.001-.001-.001-.001-.001-.001-.001-.001-.001-.001-.001-.001-.001-.001-.001-.001-.001-.001 0-.001-.001 0-.001-.001-.001 0-.001 0-.001 0-.001-.001-.001 0-.001 0 0-.001 0-.001-.001 0-.001 0 0 0-.001 0-.001 0-.001-.001 0 0-.001-.001 0-.001 0 0-.001-.001 0-.001 0 0-.001 0 0-.001 0 0-.001 0 0-.001 0 0-.001 0 0-.001 0 0-.001 0 0-.001 0 0-.001 0 0 0-.001 0 0-.001 0 0-.001 0 0-.001 0 0-.001 0 0-.001 0 0 0 0 0-.001 0 0 0-.001 0 0-.001 0 0-.001 0 0-.001 0 0-.001 0 0 0 0 0-.001 0 0-.001 0 0 0-.001 0 0-.001 0 0-.001 0 0-.001 0 0 0 0 0-.001 0 0-.001 0 0-.001 0 0-.001 0 0-.001 0 0-.001 0 0-.001 0 0-.001 0-.001-.001 0 0-.001 0-.001-.001 0 0-.001 0 0-.001-.001 0-.001-.001 0-.001-.001-.001 0-.001-.001 0-.001-.001-.001 0-.001 0-.001-.001-.001 0-.001-.001-.001-.001 0-.001-.001 0-.001-.001-.001-.001-.001-.001 0-.001-.001-.001-.001-.001 0-.001-.001-.001-.001-.001-.001-.001-.001-.001-.001-.001-.001-.001-.001-.001-.001-.001-.001-.001-.001-.001-.001-.001-.001-.001-.001-.001-.001-.001-.001-.001-.001-.001-.001-.001-.001-.001-.001-.001-.001-.001-.001-.001-.001-.001-.001-.001-.001-.001-.001-.001-.001-.001-.001-.001-.001-.001-.001-.001-.001-.001-.001-.001-.001-.001-.001-.001-.001-.001-.001-.001-.001-.001-.001-.001-.001-.001-.001-.001-.001-.001-.001-.001-.001-.001-.001-.001-.001-.001-.001-.001-.001-.001-.001-.001-.001-.001-.001-.001-.001-.001-.001-.001-.001-.001-.001-.001-.001-.001-.001-.001-.001-.001-.001-.001-.001-.001-.001-.001-.001-.001-.001-.001-.001-.001-.001-.001-.001-.001-.001-.001-.001-.001-.001-.001-.001-.001-.001-.001-.001-.001-.001-.001-.001-.001-.001-.001-.001-.001-.001-.001-.001-.001-.001-.001-.001-.001-.001-.001-.001-.001-.001-.001-.001-.001-.001-.001-.001-.001-.001-.001-.001-.001-.001-.001-.001-.001-.001-.001-.001-.001-.001-.001-.001-.001-.001-.001-.001-.001-.001-.001-.001-.001-.001-.001-.001-.001-.001-.001-.001-.001-.001-.001-.001-.001-.001-.001-.001-.001-.001-.001-.001-.001-.001-.001-.001-.001-.001-.001-.001-.001-.001-.001-.001-.001-.001-.001-.001-.001-.001-.001-.001-.001-.001-.001-.001-.001-.001-.001-.001-.001-.001-.001-.001-.001-.001-.001-.001-.001-.001-.001-.001-.001-.001-.001-.001-.001-.001-.001-.001-.001-.001-.001-.001-.001-.001-.001-.001-.001-.001-.001-.001 0-.001-.001-.001-.001-.001-.001-.001 0-.001-.001-.001-.001 0-.001-.001 0-.001-.001-.001-.001-.001-.001-.001 0-.001 0-.001-.001-.001-.001-.001 0-.001 0-.001-.001 0-.001-.001-.001 0-.001-.001 0-.001 0-.001 0 0-.001-.001 0-.001 0 0-.001 0 0-.001 0 0-.001 0 0-.001 0 0-.001 0 0-.001 0 0-.001 0 0-.001 0 0-.001 0 0-.001 0 0-.001 0 0-.001 0 0 0-.001 0 0 0 0 0-.001 0 0-.001 0 0-.001 0 0-.001 0 0-.001 0 0-.001 0 0-.001 0 0 0 0 0 0-.001 0 0-.001 0 0-.001 0 0-.001 0 0-.001 0 0-.001 0 0-.001 0 0 0-.001 0 0-.001 0 0-.001 0 0-.001 0 0-.001 0 0-.001 0 0-.001 0 0-.001 0 0-.001 0-.001-.001 0 0-.001 0 0-.001 0 0-.001-.001 0-.001 0 0-.001-.001 0-.001 0-.001-.001 0 0-.001 0 0-.001 0 0-.001 0 0-.001 0-.001 0 0-.001 0-.001-.001-.001 0-.001 0-.001-.001 0-.001 0-.001-.001 0-.001-.001 0-.001-.001-.001-.001-.001-.001-.001-.001-.001-.001 0-.001-.001-.001-.001-.001-.001-.001-.001-.001-.001-.001-.001-.001-.001-.001-.001-.001-.001-.001-.001-.001-.001-.001-.001-.001-.001-.001-.001-.001-.001-.001-.001-.001-.001-.001-.001-.001-.001-.001-.001-.001-.001-.001-.001-.001-.001-.001-.001-.001-.001-.001-.001-.001-.001-.001-.001-.001-.001-.001-.001-.001-.001-.001-.001-.001-.001-.001-.001-.001-.001-.001-.001-.001-.001-.001-.001-.001-.001-.001-.001-.001-.001-.001-.001-.001-.001-.001-.001-.001-.001-.001-.001-.001-.001-.001-.001-.001-.001-.001-.001-.001-.001-.001-.001-.001-.001-.001-.001-.001-.001-.001-.001-.001-.001-.001-.001-.001-.001-.001-.001-.001-.001-.001-.001-.001-.001-.001-.001-.001-.001-.001-.001-.001-.001-.001-.001-.001c-5.165 0-9.408 2.616-12.817 6.409-3.396 3.779-6.067 8.829-8.151 14.008-4.168 10.359-6.138 21.622-6.725 25.386l-.828 4.959-.292 1.747H4h19.576 1.156l.295-1.118.825-3.128c.879-3.026 2.156-5.926 3.395-8.047.624-1.067 1.21-1.889 1.7-2.423.161-.175.296-.303.404-.393a4.58 4.58 0 0 1 .382.374c.487.527 1.08 1.339 1.713 2.395 1.259 2.1 2.572 4.995 3.448 8.09l.826 3.133.295 1.118h1.156 19.576zM31.579 40.571zm-.453-.007zm-10.198-5.407c-2.1 2.777-3.651 6.029-4.696 8.652 1.481-6.592 3.624-13.568 6.175-19.058 1.422-3.062 2.936-5.585 4.478-7.319 1.566-1.761 2.963-2.493 4.157-2.493h.166.166.166.166c1.143 0 2.519.722 4.085 2.49 1.537 1.736 3.057 4.262 4.49 7.326 2.568 5.49 4.745 12.462 6.232 19.047-1.045-2.622-2.595-5.871-4.693-8.645-2.475-3.272-5.933-6.163-10.445-6.163s-7.97 2.891-10.445 6.163z" fill="url(#C)"/><path d="M107.847 54.669v1.5h1.5 9.954.166 1.5v-1.5-35.269c0-2.131-.353-4.32-1.272-6.364-.756-2.044-2.044-3.86-3.482-5.295l-.031-.031-.033-.029c-1.598-1.417-3.216-2.496-5.187-3.39-2.062-.935-4.274-1.293-6.426-1.293-2.027 0-3.859.372-5.821 1.084-1.545.561-2.926 1.254-4.186 2.262-1.239-.914-2.638-1.687-4.036-2.245-1.848-.738-3.863-1.1-5.865-1.1-2.153 0-4.364.358-6.426 1.293-1.915.869-3.646 1.978-4.854 3.56-1.4 1.58-2.469 3.183-3.357 5.133-.938 2.059-1.296 4.268-1.296 6.417v35.435 1.5h1.5 9.954 1.5v-1.5-35.435c0-.7.022-1.014.173-1.315l.048-.095.034-.101c.071-.213.246-.518.632-.904.157-.157.455-.377.962-.641.611-.151 1.052-.246 1.463-.246.701 0 1.017.022 1.321.173l.095.048.101.034c.215.072.521.246.907.632.157.157.377.454.641.958.151.61.246 1.048.246 1.457v35.435 1.5h1.5 9.954 1.5v-1.5-35.435c0-.7.022-1.014.173-1.315l.047-.095.034-.101c.071-.213.246-.518.632-.904.158-.157.456-.377.962-.641.611-.151 1.052-.246 1.463-.246.701 0 1.017.022 1.321.173l.095.048.101.034c.215.072.52.246.907.632.157.157.377.454.641.958.151.61.246 1.048.246 1.457v35.269z" fill="url(#D)"/><path d="M185.163 55.01h1.714l-.227-1.699-.664-4.968-.001-.014-.002-.014c-.587-3.846-2.599-15.243-6.834-25.653-2.115-5.2-4.825-10.254-8.266-13.999-3.449-3.754-7.736-6.292-12.934-6.164-5.196-.081-9.478 2.488-12.924 6.261-3.439 3.764-6.148 8.827-8.263 14.027-4.232 10.401-6.244 21.748-6.831 25.516l-.828 4.96-.292 1.747h1.771 19.41 1.156l.295-1.117.825-3.128c.876-3.015 2.19-5.913 3.452-8.038.634-1.069 1.23-1.898 1.72-2.44a4.96 4.96 0 0 1 .357-.36 4.77 4.77 0 0 1 .353.348c.487.527 1.08 1.339 1.713 2.395 1.26 2.103 2.575 5.003 3.451 8.102l.006.022.007.022.996 3.146.331 1.047h1.099 19.41zm-27.099-15.284zm-.522.01zm-.117-25.626h.016.017.166.166.166c1.196 0 2.604.735 4.187 2.498 1.558 1.736 3.092 4.26 4.534 7.321 2.587 5.492 4.767 12.47 6.255 19.06-1.058-2.633-2.647-5.891-4.788-8.672-2.516-3.269-6.014-6.153-10.52-6.153-4.513 0-7.97 2.891-10.445 6.163-2.109 2.787-3.664 6.053-4.709 8.682 1.482-6.676 3.632-13.706 6.206-19.209 1.431-3.06 2.958-5.568 4.517-7.278 1.578-1.731 2.996-2.441 4.232-2.414z" fill="url(#E)"/><path d="M437 55.838h1.658l-.165-1.65-.498-4.968-.004-.038-.006-.038c-.586-3.844-2.555-15.116-6.727-25.462-2.084-5.169-4.756-10.204-8.153-13.97-3.41-3.781-7.652-6.384-12.815-6.384h-.001-.001-.001-.001 0-.001-.001-.001-.001-.001-.001-.001-.001-.001-.001-.001-.001-.001 0-.001-.001-.001-.001-.001-.001-.001-.001 0-.001-.001-.001-.001-.001-.001 0-.001-.001-.001-.001-.001-.001 0-.001-.001-.001-.001 0-.001-.001-.001-.001 0-.001-.001-.001-.001 0-.001-.001-.001 0-.001-.001-.001-.001 0-.001-.001-.001 0-.001-.001 0-.001-.001-.001 0-.001-.001-.001 0-.001-.001 0-.001-.001 0-.001-.001-.001 0-.001-.001 0-.001-.001 0-.001-.001 0-.001-.001 0-.001-.001 0-.001-.001 0-.001-.001 0-.001 0-.001-.001 0-.001-.001 0-.001 0-.001-.001 0-.001-.001 0-.001 0-.001-.001 0-.001 0-.001-.001 0-.001 0-.001-.001 0-.001 0-.001 0-.001-.001 0-.001 0-.001 0-.001 0-.001-.001 0-.001 0-.001 0-.001 0-.001-.001 0-.001 0-.001 0-.001 0-.001 0-.001 0-.001-.001 0-.001 0-.001 0-.001 0-.001 0-.001 0-.001 0-.001 0-.001 0-.001 0-.001 0-.001 0-.001 0-.001 0-.001 0-.001 0-.001 0-.001 0-.001 0-.001 0-.001 0-.001 0-.001 0-.001 0-.001 0-.001 0-.001 0-.001 0-.001 0-.001 0-.001 0-.001 0-.001 0-.001 0-.001 0-.001 0-.001 0-.001 0-.001 0-.001 0-.001 0 0-.001 0-.001 0-.001 0-.001 0-.001 0-.001 0-.001 0-.001 0-.001 0-.001 0-.001 0-.001 0-.001 0-.001 0-.001 0-.001 0-.001 0-.001 0-.001 0-.001 0-.001 0-.001 0-.001 0-.001 0-.001 0-.001 0-.001 0-.001 0-.001 0-.001 0-.001 0-.001 0-.001 0-.001-.001 0-.001 0-.001 0-.001 0-.001 0-.001 0-.001 0-.001-.001 0-.001 0-.001 0-.001 0-.001-.001 0-.001 0-.001 0-.001 0-.001-.001 0-.001 0-.001 0-.001-.001 0-.001 0-.001-.001 0-.001 0-.001-.001 0-.001 0-.001-.001 0-.001 0-.001-.001 0-.001-.001 0-.001 0-.001-.001 0-.001-.001 0-.001-.001 0-.001 0-.001-.001 0-.001-.001 0-.001-.001 0-.001-.001 0-.001-.001-.001 0-.001-.001 0-.001-.001 0-.001-.001-.001 0-.001-.001 0-.001-.001-.001 0-.001-.001-.001 0-.001-.001-.001 0-.001-.001-.001 0-.001-.001-.001-.001 0-.001-.001-.001-.001 0-.001-.001H410h-.001 0-.001-.001-.001-.001 0-.001-.001-.001-.001-.001-.001 0-.001-.001-.001-.001-.001-.001 0-.001-.001-.001-.001-.001-.001-.001-.001 0-.001-.001-.001 0c-5.205-.088-9.493 2.483-12.944 6.26-3.439 3.764-6.148 8.827-8.263 14.027-4.232 10.401-6.244 21.748-6.831 25.516l-.829 4.959-.291 1.747h1.771 19.41 1.156l.295-1.118.824-3.128c.877-3.014 2.191-5.913 3.453-8.038.634-1.069 1.23-1.898 1.72-2.44.139-.153.258-.271.357-.36a4.79 4.79 0 0 1 .353.348c.487.527 1.08 1.339 1.712 2.395 1.259 2.1 2.573 4.995 3.448 8.09l.827 3.133.294 1.118h1.156H437zm-26.933-15.285zm-.522.01zm.248-25.625h.017.017c1.179-.027 2.575.678 4.155 2.431 1.555 1.726 3.089 4.253 4.531 7.325 2.586 5.507 4.765 12.514 6.253 19.109-1.045-2.623-2.595-5.872-4.694-8.647-2.475-3.272-5.933-6.163-10.445-6.163s-7.97 2.891-10.446 6.163c-2.107 2.786-3.661 6.049-4.706 8.677 1.489-6.678 3.673-13.743 6.265-19.264 1.443-3.072 2.974-5.586 4.526-7.288 1.575-1.728 2.959-2.398 4.127-2.345l.034.002h.034.166.166z" fill="url(#F)"/><path d="M333.312 55.01h1.5v-1.5-8.445-1.5h-1.5-14.599c-1.165 0-2.15-.987-2.15-2.143V6.815v-1.5h-1.5-8.626-1.5v1.5 34.442c0 7.62 6.148 13.753 13.776 13.753h14.599z" fill="url(#G)"/><path d="M371.138 55.01h1.5v-1.5-8.445-1.5h-1.5-14.599c-1.165 0-2.15-.987-2.15-2.143V6.815v-1.5h-1.5-8.627-1.5v1.5 34.442c0 7.62 6.149 13.753 13.777 13.753h14.599z" fill="url(#H)"/><path d="M265.866 53.481l.004.002c3.411 1.971 7.658 3.016 12.032 3.016 5.394 0 10.089-1.431 13.454-3.99 3.387-2.576 5.388-6.278 5.299-10.607V5.325v-1.5h-1.5-8.626-1.5v1.5 36.594c0 .382-.354 1.086-1.894 1.778-1.427.641-3.407 1.028-5.399 1.028s-3.972-.386-5.399-1.028c-1.54-.691-1.894-1.396-1.894-1.778V5.325v-1.5h-1.5-8.627-1.5v1.5 36.594c0 4.914 2.675 9.015 7.05 11.563z" fill="url(#I)"/></g><defs><filter id="A" x="-.542" y="-.005" width="441.858" height="59.005" filterUnits="userSpaceOnUse" color-interpolation-filters="sRGB"><feFlood flood-opacity="0"/><feBlend in="SourceGraphic" result="B"/><feColorMatrix in="SourceAlpha" values="0 0 0 0 0 0 0 0 0 0 0 0 0 0 0 0 0 0 127 0" result="C"/><feOffset dx="1" dy="1"/><feGaussianBlur stdDeviation="2"/><feComposite in2="C" operator="arithmetic" k2="-1" k3="1"/><feColorMatrix values="0 0 0 0 0 0 0 0 0 0 0 0 0 0 0 0 0 0 0.25 0"/><feBlend in2="B" result="D"/><feColorMatrix in="SourceAlpha" values="0 0 0 0 0 0 0 0 0 0 0 0 0 0 0 0 0 0 127 0" result="C"/><feOffset dx="-1" dy="-1"/><feGaussianBlur stdDeviation="1"/><feComposite in2="C" operator="arithmetic" k2="-1" k3="1"/><feColorMatrix values="0 0 0 0 1 0 0 0 0 1 0 0 0 0 1 0 0 0 1 0"/><feBlend in2="D"/></filter><linearGradient id="B" x1="196.444" y1="28.755" x2="231.283" y2="28.755" xlink:href="#J"><stop stop-color="#ff6a6a"/><stop offset="1" stop-color="#ff7e00"/></linearGradient><linearGradient id="C" x1="4" y1="29.583" x2="58.747" y2="29.583" xlink:href="#J"><stop stop-color="#ff6a6a"/><stop offset="1" stop-color="#ff7e00"/></linearGradient><linearGradient id="D" x1="70.194" y1="29.666" x2="119.467" y2="29.666" xlink:href="#J"><stop stop-color="#ff6a6a"/><stop offset="1" stop-color="#ff7e00"/></linearGradient><linearGradient id="E" x1="130.582" y1="28.752" x2="185.163" y2="28.752" xlink:href="#J"><stop stop-color="#ff6a6a"/><stop offset="1" stop-color="#ff7e00"/></linearGradient><linearGradient id="F" x1="382.585" y1="29.582" x2="437" y2="29.582" xlink:href="#J"><stop stop-color="#ff6a6a"/><stop offset="1" stop-color="#ff7e00"/></linearGradient><linearGradient id="G" x1="306.437" y1="30.162" x2="333.312" y2="30.162" xlink:href="#J"><stop stop-color="#ff6a6a"/><stop offset="1" stop-color="#ff7e00"/></linearGradient><linearGradient id="H" x1="344.262" y1="30.162" x2="371.138" y2="30.162" xlink:href="#J"><stop stop-color="#ff6a6a"/><stop offset="1" stop-color="#ff7e00"/></linearGradient><linearGradient id="I" x1="260.316" y1="30.162" x2="295.158" y2="30.162" xlink:href="#J"><stop stop-color="#ff6a6a"/><stop offset="1" stop-color="#ff7e00"/></linearGradient><linearGradient id="J" gradientUnits="userSpaceOnUse"/></defs></svg>