<svg xmlns="http://www.w3.org/2000/svg" width="56" height="50" fill="none" xmlns:v="https://vecta.io/nano"><path d="M54.901 47.18a2 2 0 0 1-1.973 2.329H37.254a2 2 0 0 1-1.934-1.49l-.437-1.656c-1.825-6.458-5.475-12.088-6.968-12.088-1.659 0-5.143 5.795-6.968 12.088l-.437 1.656a2 2 0 0 1-1.934 1.49H2.904A2 2 0 0 1 .931 47.18l.441-2.638C2.533 37.091 9.169 0 27.584 0h.332.332C46.663 0 53.299 36.925 54.46 44.542l.441 2.638zm-12.717-6.281h2.82C42.018 26.328 35.382 8.61 28.248 8.61h-.166-.166-.166-.166c-7.3 0-13.77 17.718-16.756 32.289h2.82c1.991-5.464 6.636-15.234 14.267-15.234s12.277 9.769 14.268 15.234z" fill="url(#A)"/><defs><linearGradient id="A" x1=".542" y1="24.755" x2="55.29" y2="24.755" gradientUnits="userSpaceOnUse"><stop stop-color="#ff6a6a"/><stop offset="1" stop-color="#ff7e00"/></linearGradient></defs></svg>