<svg xmlns="http://www.w3.org/2000/svg" xmlns:xlink="http://www.w3.org/1999/xlink" width="368" height="342" fill="none" xmlns:v="https://vecta.io/nano"><style><![CDATA[.B{color-interpolation-filters:sRGB}.C{flood-opacity:0}.D{fill:#fff}]]></style><g filter="url(#A)"><path d="M85.006 159.357a97.16 97.16 0 0 0 7.396 37.181 97.15 97.15 0 0 0 21.061 31.52c9.022 9.022 19.733 16.179 31.52 21.061s24.422 7.396 37.181 7.396 25.393-2.513 37.181-7.396 22.498-12.039 31.52-21.061a97.16 97.16 0 0 0 21.061-31.52c4.883-11.788 7.396-24.422 7.396-37.181h-37.49a59.66 59.66 0 0 1-4.542 22.834 59.65 59.65 0 0 1-12.934 19.358 59.68 59.68 0 0 1-19.358 12.935c-7.239 2.998-14.998 4.542-22.834 4.542s-15.595-1.544-22.834-4.542a59.68 59.68 0 0 1-19.358-12.935c-5.54-5.541-9.936-12.118-12.934-19.358a59.66 59.66 0 0 1-4.542-22.834h-37.49z" fill="url(#I)" fill-opacity=".5"/></g><g filter="url(#B)"><path d="M117.035 101.765c4.907-5.848 10.313-10.977 16.11-15.379 3.453-2.683 4.33-7.428 2.195-11.212l-32.735-56.265c-2.517-4.403-8.291-5.761-12.43-2.857A182.82 182.82 0 0 0 54.07 48.931C43.325 61.737 34.638 75.672 27.96 90.197c-2.141 4.581.198 10.031 4.972 11.745l61.095 22.468c4.048 1.503 8.677-.193 10.66-4.108a100.92 100.92 0 0 1 12.348-18.536z" class="D"/><path d="M102.171 19.1566L102.173 19.16L134.904 75.4195C134.905 75.4205 134.905 75.4214 134.906 75.4224C136.92 78.9956 136.09 83.4636 132.841 85.9893C127.014 90.4137 121.582 95.5682 116.652 101.443C111.77 107.261 107.637 113.506 104.243 120.071L104.243 120.071L104.241 120.075C102.377 123.756 98.0194 125.358 94.2009 123.94L94.1994 123.94L33.1045 101.472L33.1009 101.471C28.5974 99.8542 26.3999 94.7157 28.4129 90.4081L28.4142 90.4053C35.0739 75.9196 43.7374 62.0228 54.4532 49.2522C65.218 36.4233 77.3502 25.5367 90.4595 16.4627L90.462 16.4609C94.3545 13.7305 99.7966 15.0023 102.171 19.1566Z" stroke="url(#J)"/></g><path d="M90.821 39A1.18 1.18 0 0 0 92 40.179 1.18 1.18 0 0 0 93.179 39 1.18 1.18 0 0 0 92 37.821 1.18 1.18 0 0 0 90.821 39zm4.911 0a1.18 1.18 0 0 0 1.179 1.179A1.18 1.18 0 0 0 98.089 39a1.18 1.18 0 0 0-1.178-1.179A1.18 1.18 0 0 0 95.732 39zm-9.821 0a1.18 1.18 0 0 0 1.178 1.179A1.18 1.18 0 0 0 88.268 39a1.18 1.18 0 0 0-1.179-1.179A1.18 1.18 0 0 0 85.911 39zm16.234-4.263c-.554-1.319-1.35-2.502-2.364-3.518-1.007-1.011-2.202-1.814-3.519-2.364C94.912 28.287 93.478 28 92 28h-.049c-1.488.007-2.929.302-4.285.881-1.305.556-2.489 1.361-3.487 2.369a10.9 10.9 0 0 0-2.338 3.506c-.565 1.36-.849 2.807-.842 4.294.008 1.705.412 3.385 1.179 4.908v3.732a1.13 1.13 0 0 0 1.129 1.129h3.735c1.523.767 3.203 1.17 4.908 1.179h.052c1.471 0 2.897-.285 4.24-.842 1.31-.544 2.5-1.338 3.506-2.337a10.89 10.89 0 0 0 2.369-3.487c.58-1.355.874-2.797.882-4.285a10.95 10.95 0 0 0-.855-4.312zm-3.71 10.755c-1.721 1.704-4.005 2.642-6.435 2.642h-.042c-1.481-.007-2.951-.376-4.25-1.068l-.206-.11h-3.457v-3.457l-.11-.206c-.692-1.299-1.061-2.77-1.068-4.25-.01-2.448.926-4.746 2.642-6.477s4.005-2.689 6.453-2.698h.042c1.228 0 2.419.238 3.541.71 1.095.459 2.077 1.12 2.922 1.964s1.505 1.827 1.964 2.922a9.1 9.1 0 0 1-1.994 10.03z" fill="url(#K)"/><g filter="url(#C)"><path d="M255.791 113.903c3.816 6.61 6.787 13.445 8.941 20.398 1.34 4.163 5.499 6.609 9.785 5.897l64.068-11.517c4.999-.859 8.249-5.82 6.936-10.703-4.054-15.464-10.151-30.629-18.548-45.173-8.358-14.477-18.481-27.406-29.846-38.649-3.573-3.578-9.495-3.244-12.738.655l-42.008 49.726c-2.797 3.29-2.787 8.22.215 11.423 4.983 5.408 9.416 11.398 13.195 17.943z" class="D"/><path d="M338.501 128.188L338.497 128.189L274.435 139.705C274.434 139.705 274.433 139.705 274.432 139.706C270.385 140.376 266.471 138.068 265.209 134.151C263.044 127.162 260.058 120.294 256.224 113.653C252.426 107.076 247.971 101.056 242.963 95.6211L242.963 95.6211L242.96 95.6181C240.139 92.6073 240.123 87.9643 242.762 84.8611L242.763 84.8599L284.771 35.1338L284.774 35.1308C287.833 31.4519 293.413 31.1444 296.773 34.5093L296.775 34.5114C308.109 45.7239 318.205 58.618 326.54 73.0553C334.914 87.5586 340.994 102.683 345.038 118.105L345.038 118.108C346.273 122.699 343.216 127.378 338.501 128.188Z" stroke="url(#L)"/></g><path d="M331.644 112.334L330.31 111l-5.999 5.999 1.334 1.334 5.999-5.999zm4.012-1.334l-10.011 10.011-3.955-3.946-1.334 1.335 5.289 5.289L337 112.334 335.656 111zM315 118.4l5.289 5.289 1.335-1.334-5.28-5.29L315 118.4z" fill="url(#M)"/><g filter="url(#D)"><path d="M262.041 185.477c-2.611 7.173-5.936 13.842-9.879 19.962-2.327 3.702-1.527 8.46 1.773 11.286l50.005 41.676c3.87 3.277 9.76 2.578 12.657-1.567 9.24-13.045 16.938-27.464 22.682-43.244 5.717-15.709 9.115-31.775 10.422-47.708.445-5.037-3.618-9.358-8.689-9.336l-65.095-.217c-4.318-.028-8.088 3.149-8.612 7.507a100.88 100.88 0 0 1-5.264 21.641z" class="D"/><path d="M304.263 258.019L304.26 258.017L254.26 216.345C254.259 216.345 254.258 216.344 254.258 216.343C251.143 213.674 250.395 209.192 252.584 205.707C256.546 199.557 259.888 192.855 262.511 185.648C265.108 178.512 266.856 171.23 267.8 163.9L267.8 163.9L267.801 163.896C268.294 159.799 271.84 156.803 275.914 156.829L275.915 156.829L341.01 157.046L341.014 157.046C345.799 157.025 349.621 161.102 349.203 165.838L349.203 165.841C347.899 181.731 344.511 197.753 338.809 213.419C333.081 229.156 325.404 243.535 316.189 256.545L316.187 256.548C313.463 260.445 307.914 261.111 304.263 258.019Z" stroke="url(#N)"/></g><g filter="url(#E)"><path d="M211.236 236.277c-7.173 2.611-14.419 4.35-21.641 5.264-4.332.596-7.463 4.268-7.507 8.612l.217 65.095c-.022 5.072 4.3 9.134 9.336 8.689 15.933-1.307 31.927-4.678 47.708-10.422 15.708-5.717 30.199-13.442 43.245-22.682 4.144-2.897 4.843-8.787 1.566-12.657l-41.676-50.005c-2.754-3.326-7.611-4.172-11.286-1.773-6.191 3.969-12.86 7.295-19.962 9.879z" class="D"/><path d="M182.805 315.25L182.805 315.246L182.588 250.158C182.588 250.157 182.588 250.156 182.588 250.155C182.631 246.053 185.584 242.599 189.661 242.036C196.919 241.118 204.201 239.37 211.407 236.747C218.544 234.15 225.246 230.808 231.468 226.819L231.468 226.819L231.471 226.817C234.926 224.562 239.501 225.352 242.099 228.49L242.1 228.491L283.776 278.496L283.779 278.499C286.87 282.151 286.204 287.699 282.307 290.423L282.305 290.425C269.294 299.64 254.843 307.343 239.178 313.045C223.441 318.773 207.49 322.135 191.601 323.439L191.597 323.439C186.861 323.857 182.784 320.035 182.805 315.25Z" stroke="url(#O)"/></g><path d="M314 222h-16c-1.1 0-2 .9-2 2v18l4-4h14c1.1 0 2-.9 2-2v-12c0-1.1-.9-2-2-2zm0 14h-14.83l-1.17 1.17V224h16v12z" fill="url(#P)"/><path d="M306 235l1.57-3.43L311 230l-3.43-1.57L306 225l-1.57 3.43L301 230l3.43 1.57L306 235z" fill="url(#P)"/><path d="M193.913 311.398l1.375-1.718-4.427-3.541 4.427-3.54-1.375-1.719-5.5 4.4a1.09 1.09 0 0 0-.413.859c0 .165.037.328.109.477s.175.279.304.382l5.5 4.4zm10.174-10.518l-1.375 1.719 4.427 3.54-4.427 3.541 1.375 1.718 5.5-4.4c.129-.103.233-.233.304-.382s.109-.312.109-.477a1.09 1.09 0 0 0-.413-.859l-5.5-4.4zm-1.814-4.403l-4.399 19.799-2.149-.477 4.4-19.799 2.148.477z" fill="url(#Q)"/><g filter="url(#F)"><path d="M139.665 230.015c-6.611-3.816-12.601-8.25-17.943-13.195-3.242-2.935-8.067-2.973-11.423-.214l-49.726 42.008c-3.9 3.243-4.233 9.165-.655 12.737 11.243 11.365 24.106 21.45 38.649 29.847 14.477 8.358 29.709 14.494 45.173 18.548 4.883 1.313 9.844-1.938 10.703-6.936l11.517-64.068c.778-4.248-1.696-8.512-5.897-9.786-7.02-2.191-13.854-5.162-20.398-8.941z" class="D"/><path d="M60.8927 258.998L60.8957 258.996L110.617 216.992C110.618 216.991 110.618 216.991 110.619 216.99C113.788 214.386 118.333 214.428 121.384 217.189C126.753 222.159 132.773 226.614 139.415 230.448C145.991 234.245 152.86 237.231 159.914 239.434L159.914 239.434L159.918 239.435C163.867 240.632 166.202 244.645 165.468 248.652L165.468 248.653L153.951 312.721L153.95 312.725C153.14 317.441 148.461 320.497 143.87 319.263L143.867 319.262C128.445 315.219 113.254 309.1 98.8172 300.765C84.3138 292.391 71.4859 282.334 60.2734 270.999L60.2711 270.997C56.9063 267.638 57.2138 262.058 60.8927 258.998Z" stroke="url(#R)"/></g><path d="M77.141 258.059c.833-.682 1.921-1.059 3.003-1.059.647 0 1.171.234 1.568.606a2.53 2.53 0 0 1 .287.32 2.53 2.53 0 0 1 .287-.32c.397-.372.921-.606 1.568-.606 1.082 0 2.171.377 3.002 1.059.648.53 1.156 1.262 1.355 2.146.42.073.794.299 1.096.597.48.475.823 1.162 1.039 1.868.219.717.328 1.523.295 2.297-.017.396-.072.801-.177 1.187l.065.032c.37.183.671.47.896.853.425.721.575 1.76.575 3.083 0 1.522-.553 2.555-1.264 3.197a3.4 3.4 0 0 1-1.271.726c-.17.823-.518 1.594-1.019 2.251-.724.952-1.848 1.757-3.359 1.757-1.211 0-2.164-.706-2.777-1.38l-.31-.376-.311.375c-.612.676-1.566 1.381-2.777 1.381-1.512 0-2.637-.805-3.359-1.757a5.57 5.57 0 0 1-1.021-2.251c-.467-.145-.9-.392-1.27-.726-.71-.643-1.263-1.675-1.263-3.197 0-1.323.15-2.362.574-3.083.225-.393.561-.702.961-.885-.103-.387-.162-.785-.177-1.187-.033-.774.076-1.58.295-2.297.215-.705.557-1.393 1.039-1.868.301-.309.682-.517 1.096-.597.2-.885.706-1.616 1.354-2.146zm.923 1.246c-.546.448-.867 1.044-.867 1.731a.82.82 0 0 1-.083.359c-.054.112-.133.208-.229.281s-.208.121-.325.14a.71.71 0 0 1-.35-.032c-.137-.048-.282-.036-.49.17-.232.229-.467.642-.637 1.199-.17.563-.246 1.153-.224 1.744.025.585.157 1.072.365 1.4.034.055.062.113.083.175h1.083c.72 0 1.414.287 1.942.803s.85 1.223.903 1.98a2.04 2.04 0 0 1 1.012.942 2.2 2.2 0 0 1 .213 1.404c-.086.48-.328.914-.684 1.227a1.94 1.94 0 0 1-2.544.018c-.36-.308-.608-.738-.7-1.217s-.023-.976.195-1.408.572-.769 1-.956c-.047-.337-.209-.645-.454-.868a1.31 1.31 0 0 0-.883-.345h-2.627c-.15.366-.261.999-.261 2.07s.371 1.665.739 1.998c.403.364.847.458.975.458.199 0 .39.084.531.232a.81.81 0 0 1 .22.558c0 .443.232 1.246.761 1.941.508.671 1.233 1.164 2.186 1.164.637 0 1.224-.377 1.691-.891a4 4 0 0 0 .518-.721c.044-.079.082-.161.115-.246l.006-.015v-9.971h-.897a2.08 2.08 0 0 1-.901 1.062c-.408.233-.881.309-1.337.216a1.99 1.99 0 0 1-1.162-.728c-.295-.377-.457-.851-.457-1.34s.161-.962.457-1.339a1.98 1.98 0 0 1 1.162-.728 1.91 1.91 0 0 1 1.337.216c.408.233.727.608.901 1.061h.897v-2.673l-.003-.06a3.61 3.61 0 0 0-.18-.951c-.09-.252-.207-.449-.345-.579-.123-.116-.293-.206-.57-.206-.767 0-1.526.271-2.081.726l.001-.001zm4.693 13.486v1.809l.005.015a1.89 1.89 0 0 0 .116.246c.115.21.291.47.518.721.466.514 1.054.891 1.691.891.953 0 1.677-.493 2.186-1.164.527-.695.761-1.5.761-1.941a.81.81 0 0 1 .22-.558c.141-.148.332-.232.531-.232.128 0 .57-.094.975-.458.367-.333.739-.922.739-1.998 0-1.272-.158-1.927-.349-2.25a.61.61 0 0 0-.26-.258c-.101-.051-.253-.089-.488-.089-.136 0-.269-.039-.386-.112a.77.77 0 0 1-.276-.305c-.064-.126-.094-.268-.088-.411a.82.82 0 0 1 .125-.4c.208-.329.34-.815.366-1.4.022-.591-.055-1.181-.225-1.744-.17-.557-.405-.969-.636-1.199-.209-.206-.354-.218-.49-.17a.71.71 0 0 1-.351.032.72.72 0 0 1-.326-.139c-.096-.074-.175-.17-.229-.281a.83.83 0 0 1-.083-.36c0-.687-.32-1.283-.866-1.731-.553-.454-1.314-.726-2.081-.726-.276 0-.445.091-.569.206-.157.162-.275.36-.344.579-.112.325-.174.667-.183 1.012v10.835h.636c.358 0 .702-.149.955-.416a1.46 1.46 0 0 0 .396-1.005v-1.891c-.431-.183-.787-.518-1.009-.948s-.294-.927-.205-1.407a2.13 2.13 0 0 1 .692-1.223 1.94 1.94 0 0 1 1.273-.481 1.94 1.94 0 0 1 1.273.481 2.13 2.13 0 0 1 .692 1.223c.089.48.016.977-.205 1.407s-.578.765-1.009.948v1.891c0 .796-.3 1.559-.835 2.122a2.78 2.78 0 0 1-2.017.879h-.636zm-4.267-9.478c-.133 0-.26.055-.354.154a.54.54 0 0 0-.146.372c0 .14.053.274.146.373a.49.49 0 0 0 .354.154.49.49 0 0 0 .354-.154c.094-.099.147-.233.147-.373a.54.54 0 0 0-.147-.372c-.094-.099-.221-.154-.354-.154zm-.5 7.898c0 .14.053.274.146.373a.49.49 0 0 0 .354.154.49.49 0 0 0 .354-.154c.094-.099.147-.233.147-.373a.54.54 0 0 0-.147-.372c-.094-.099-.221-.154-.354-.154s-.26.055-.354.154a.54.54 0 0 0-.146.372zm7.004-5.265a.54.54 0 0 0 .147.372c.094.099.221.154.354.154s.26-.055.354-.154a.54.54 0 0 0 .146-.372c0-.14-.053-.274-.146-.373s-.221-.154-.354-.154-.26.055-.354.154-.147.233-.147.373z" fill="url(#S)"/><g filter="url(#G)"><path d="M98.451 171.168c-1.325-7.517-1.78-14.956-1.425-22.226.165-4.37-2.907-8.091-7.178-8.889l-64.143-11.09c-4.991-.902-9.742 2.648-10.179 7.686a182.82 182.82 0 0 0 1.979 48.792c2.903 16.463 7.994 32.075 14.828 46.527 2.133 4.584 7.812 6.296 12.193 3.74l56.482-32.359c3.754-2.135 5.43-6.771 3.705-10.807a100.91 100.91 0 0 1-6.262-21.374z" class="D"/><path d="M25.6148 129.455L25.6186 129.456L89.7554 140.545C89.7565 140.545 89.7576 140.545 89.7586 140.546C93.7904 141.3 96.6794 144.808 96.5258 148.92C96.1697 156.227 96.6265 163.702 97.9583 171.255C99.277 178.734 101.405 185.914 104.252 192.734L104.252 192.734L104.253 192.738C105.875 196.532 104.302 200.901 100.761 202.914L100.759 202.915L44.2772 235.275L44.2739 235.277C40.1406 237.687 34.7918 236.068 32.786 231.757L32.7846 231.754C25.9687 217.341 20.8919 201.772 17.9971 185.354C15.089 168.862 14.5478 152.57 16.0232 136.695L16.0235 136.692C16.434 131.955 20.9063 128.604 25.6148 129.455Z" stroke="url(#T)"/></g><g filter="url(#H)"><path d="M182.164 218.199c34.009 0 61.579-27.57 61.579-61.579s-27.57-61.579-61.579-61.579-61.579 27.57-61.579 61.579 27.57 61.579 61.579 61.579z" class="D"/><path d="M182.164 218.699C216.449 218.699 244.243 190.906 244.243 156.62C244.243 122.335 216.449 94.5415 182.164 94.5415C147.879 94.5415 120.085 122.335 120.085 156.62C120.085 190.906 147.879 218.699 182.164 218.699Z" stroke="url(#U)"/></g><path d="M166.852 149.391v-11.719c0-2.279 1.139-3.418 3.418-3.418h3.027c1.172 0 1.986.312 2.441.937.521-.625 1.335-.937 2.442-.937h3.027c2.279 0 3.418 1.139 3.418 3.418v10.84l-1.855.879h-.098v-11.719c0-1.107-.488-1.66-1.465-1.66h-3.027c-.977 0-1.465.553-1.465 1.66v10.84l-1.856.879h-.097v-11.719c0-1.107-.489-1.66-1.465-1.66h-3.027c-.977 0-1.465.553-1.465 1.66v10.84l-1.856.879h-.097zm24.121-.391c-1.953 0-2.93-.977-2.93-2.93v-7.324l1.855-.879h.098v8.203c0 .782.326 1.172.977 1.172h2.246c.651 0 .976-.39.976-1.172v-7.324l1.856-.879h.097v12.207c0 1.953-.976 2.93-2.929 2.93h-4.16v-.098l.781-1.66h3.379c.651 0 .976-.391.976-1.172v-1.367c-.254.195-.579.293-.976.293h-2.246zm-56.153 24c-2.278 0-3.418-1.139-3.418-3.418v-10.84l1.856-.879h.097v11.719c0 1.107.489 1.66 1.465 1.66h3.028c.976 0 1.464-.553 1.464-1.66v-10.84l1.856-.879h.098v11.719c0 1.107.488 1.66 1.464 1.66h3.028c.976 0 1.465-.553 1.465-1.66v-10.84l1.855-.879h.098v11.719c0 2.279-1.14 3.418-3.418 3.418h-3.028c-1.171 0-1.985-.312-2.441-.938-.521.626-1.335.938-2.441.938h-3.028zm20.703-1.758h2.247c.651 0 .976-.39.976-1.172v-4.882c0-.782-.325-1.172-.976-1.172h-2.247c-.651 0-.976.39-.976 1.172v4.882c0 .782.325 1.172.976 1.172zm0 1.758c-1.953 0-2.929-.977-2.929-2.93v-4.882c0-1.954.976-2.93 2.929-2.93h2.247c1.953 0 2.929.976 2.929 2.93v4.882c0 1.953-.976 2.93-2.929 2.93h-2.247zm8.106.391v-8.203c0-1.954.976-2.93 2.93-2.93H169v.097l-.781 1.661h-1.66c-.651 0-.977.39-.977 1.172v7.324l-1.855.879h-.098zm7.519 0v-14.649l1.856-.879h.098v7.91l.273-.048 3.809-3.858h.097l1.719.811-3.262 2.998h.586c1.953 0 2.93.976 2.93 2.929v3.907l-1.856.879h-.097v-4.786c0-.781-.326-1.171-.977-1.171h-2.246c-.651 0-.976.39-.976 1.171v3.907l-1.856.879h-.098zm19.336 0v-14.649l1.036-.488h6.191v.098l-.791 1.679h-4.482v4.707h5.273v.098l-.791 1.68h-4.482v5.996l-1.856.879h-.098zm10.938 0v-14.649l1.855-.879h.098v14.649l-1.855.879h-.098zm8.301-2.149h2.246c.651 0 .976-.39.976-1.172v-4.882c0-.782-.325-1.172-.976-1.172h-2.246c-.651 0-.977.39-.977 1.172v4.882c0 .782.326 1.172.977 1.172zm0 1.758c-1.953 0-2.93-.977-2.93-2.93v-4.882c0-1.954.977-2.93 2.93-2.93h2.246c1.953 0 2.929.976 2.929 2.93v4.882c0 1.953-.976 2.93-2.929 2.93h-2.246zm11.035 0c-1.953 0-2.93-.977-2.93-2.93v-7.324l1.856-.879h.097v8.203c0 .782.326 1.172.977 1.172h2.246c.651 0 .976-.39.976-1.172v-7.324l1.856-.879h.098v8.203c0 .782.325 1.172.976 1.172h2.246c.651 0 .977-.39.977-1.172v-7.324l1.855-.879h.098v8.203c0 1.953-.977 2.93-2.93 2.93h-2.246c-.898 0-1.549-.241-1.953-.723-.43.482-1.081.723-1.953.723h-2.246z" fill="#4d4d4d"/><path d="M33.916 144.028v2.193h-1.09v-2.193h1.09zm-.135 11.978v1.966h-1.083v-1.966h1.083zm1.069-2.369c0-.284-.057-.531-.17-.741s-.288-.408-.538-.579c-.25-.176-.585-.34-1.005-.492-.604-.22-1.133-.467-1.586-.741s-.798-.621-1.048-1.027-.368-.921-.368-1.533c0-.601.132-1.122.396-1.562a2.7 2.7 0 0 1 1.119-1.019c.477-.24 1.033-.36 1.671-.36.491 0 .932.076 1.324.228s.734.374 1.012.667.491.655.637 1.086c.151.425.226.914.226 1.467h-1.699c0-.313-.035-.592-.106-.837s-.165-.459-.297-.63-.293-.311-.481-.404-.394-.139-.63-.139c-.335 0-.611.066-.828.198s-.378.303-.481.528-.149.482-.149.77a1.64 1.64 0 0 0 .156.734c.104.21.281.401.531.572.255.166.604.335 1.048.506.609.225 1.135.477 1.579.755s.793.614 1.034 1.02c.245.401.368.907.368 1.518 0 .631-.142 1.166-.425 1.607s-.67.775-1.175 1.004-1.083.338-1.748.338c-.42 0-.838-.056-1.253-.169s-.783-.308-1.118-.572-.602-.614-.8-1.049-.297-.978-.297-1.614h1.713c0 .382.05.7.149.954s.234.455.403.601a1.56 1.56 0 0 0 .566.316 2.23 2.23 0 0 0 .637.095c.354 0 .651-.061.892-.183a1.28 1.28 0 0 0 .552-.528c.127-.23.191-.492.191-.785z" fill="url(#V)"/><path fill-rule="evenodd" d="M22 151c0-6.075 4.925-11 11-11s11 4.925 11 11-4.925 11-11 11-11-4.925-11-11zm11-9.141c-5.048 0-9.141 4.093-9.141 9.141s4.092 9.141 9.141 9.141 9.141-4.093 9.141-9.141-4.093-9.141-9.141-9.141z" fill="url(#V)"/><g fill="#4d4d4d"><path d="M52.102 83.056c0 1.259-.304 2.208-.912 2.848-.597.64-1.467.96-2.608.96a21.58 21.58 0 0 1-.832-.016 3.77 3.77 0 0 1-.736-.128v-7.2c.203-.043.421-.069.656-.08.235-.021.501-.032.8-.032.672 0 1.28.128 1.824.384a2.84 2.84 0 0 1 1.312 1.168c.331.533.496 1.232.496 2.096zm1.648-.016c0-1.109-.224-2.027-.672-2.752a4.14 4.14 0 0 0-1.872-1.648c-.789-.373-1.712-.56-2.768-.56l-1.28.064a5.07 5.07 0 0 0-1.184.224c-.171.053-.309.128-.416.224-.096.096-.144.235-.144.416v8.08c0 .395.24.667.72.816a5.31 5.31 0 0 0 1.264.24l1.184.048c1.045 0 1.952-.187 2.72-.56a4.03 4.03 0 0 0 1.808-1.696c.427-.768.64-1.733.64-2.896zm1.828-4.816c0-.256.091-.475.272-.656s.411-.272.688-.272c.288 0 .517.091.688.272.181.181.272.4.272.656 0 .267-.091.491-.272.672-.171.171-.4.256-.688.256-.277 0-.507-.085-.688-.256-.181-.181-.272-.405-.272-.672zm.176 5.552h1.568v4.192c-.064.021-.16.048-.288.08s-.272.048-.432.048c-.277 0-.491-.053-.64-.16-.139-.117-.208-.304-.208-.56v-3.6zm1.568.784h-1.568v-3.984a2.04 2.04 0 0 1 .288-.064 1.99 1.99 0 0 1 .448-.048c.288 0 .496.053.624.16.139.107.208.293.208.56v3.376zm7.824 1.408c0 .704-.261 1.259-.784 1.664-.523.395-1.28.592-2.272.592-.832 0-1.515-.128-2.048-.384-.523-.256-.784-.555-.784-.896a.84.84 0 0 1 .112-.432 1.01 1.01 0 0 1 .336-.336c.288.203.624.384 1.008.544.395.16.843.24 1.344.24 1.024 0 1.536-.331 1.536-.992a.88.88 0 0 0-.272-.672c-.171-.181-.432-.309-.784-.384l-1.152-.304c-.704-.171-1.221-.427-1.552-.768-.331-.352-.496-.8-.496-1.344 0-.608.245-1.12.736-1.536.501-.427 1.232-.64 2.192-.64.501 0 .944.053 1.328.16.384.096.683.235.896.416.224.171.336.363.336.576a.84.84 0 0 1-.112.432.78.78 0 0 1-.288.272 3.63 3.63 0 0 0-.512-.272c-.203-.096-.443-.176-.72-.24-.267-.064-.549-.096-.848-.096-.448 0-.805.08-1.072.24s-.4.389-.4.688c0 .213.075.4.224.56.16.149.416.267.768.352l.976.24c.789.181 1.371.464 1.744.848.373.373.56.864.56 1.472zM70.65 81.6c-.683 0-1.259.235-1.728.704-.459.459-.688 1.12-.688 1.984 0 .853.224 1.509.672 1.968s1.029.688 1.744.688c.427 0 .784-.059 1.072-.176s.544-.245.768-.384c.128.075.229.171.304.288a.62.62 0 0 1 .128.4c0 .331-.219.603-.656.816s-.997.32-1.68.32c-.768 0-1.451-.144-2.048-.432a3.24 3.24 0 0 1-1.408-1.296c-.331-.587-.496-1.317-.496-2.192 0-.885.176-1.621.528-2.208a3.31 3.31 0 0 1 1.424-1.312c.597-.299 1.248-.448 1.952-.448.683 0 1.237.117 1.664.352.437.235.656.512.656.832a.64.64 0 0 1-.128.384c-.075.107-.171.192-.288.256-.224-.139-.475-.261-.752-.368-.277-.117-.624-.176-1.04-.176zm4.072 3.616V83.84h1.568v1.328c0 .629.165 1.083.496 1.36.341.277.805.416 1.392.416.395 0 .725-.037.992-.112.277-.085.491-.171.64-.256V83.84h1.568v2.784c0 .224-.037.411-.112.56-.064.149-.208.288-.432.416-.267.16-.629.304-1.088.432-.448.128-.976.192-1.584.192-.715 0-1.333-.107-1.856-.32-.512-.213-.907-.539-1.184-.976-.267-.448-.4-1.019-.4-1.712zm6.656-.576H79.81v-4.08a2.04 2.04 0 0 1 .288-.064c.139-.032.283-.048.432-.048.288 0 .501.053.64.16s.208.293.208.56v3.472zm-5.088 0h-1.568v-4.08a2.88 2.88 0 0 1 .304-.064c.139-.032.283-.048.432-.048.288 0 .496.053.624.16.139.107.208.293.208.56v3.472zM89.1 85.968c0 .704-.261 1.259-.784 1.664-.523.395-1.28.592-2.272.592-.832 0-1.515-.128-2.048-.384-.523-.256-.784-.555-.784-.896a.84.84 0 0 1 .112-.432 1.01 1.01 0 0 1 .336-.336c.288.203.624.384 1.008.544.395.16.843.24 1.344.24 1.024 0 1.536-.331 1.536-.992a.88.88 0 0 0-.272-.672c-.171-.181-.432-.309-.784-.384l-1.152-.304c-.704-.171-1.221-.427-1.552-.768-.331-.352-.496-.8-.496-1.344 0-.608.245-1.12.736-1.536.501-.427 1.232-.64 2.192-.64.501 0 .944.053 1.328.16.384.096.683.235.896.416.224.171.336.363.336.576a.84.84 0 0 1-.112.432.78.78 0 0 1-.288.272 3.63 3.63 0 0 0-.512-.272c-.203-.096-.443-.176-.72-.24-.267-.064-.549-.096-.848-.096-.448 0-.805.08-1.072.24s-.4.389-.4.688c0 .213.075.4.224.56.16.149.416.267.768.352l.976.24c.789.181 1.371.464 1.744.848.373.373.56.864.56 1.472zm7.297 0c0 .704-.261 1.259-.784 1.664-.523.395-1.28.592-2.272.592-.832 0-1.515-.128-2.048-.384-.523-.256-.784-.555-.784-.896a.84.84 0 0 1 .112-.432 1.01 1.01 0 0 1 .336-.336c.288.203.624.384 1.008.544.395.16.843.24 1.344.24 1.024 0 1.536-.331 1.536-.992a.88.88 0 0 0-.272-.672c-.171-.181-.432-.309-.784-.384l-1.152-.304c-.704-.171-1.221-.427-1.552-.768-.331-.352-.496-.8-.496-1.344 0-.608.245-1.12.736-1.536.501-.427 1.232-.64 2.192-.64.501 0 .944.053 1.328.16.384.096.683.235.896.416.224.171.336.363.336.576a.84.84 0 0 1-.112.432.78.78 0 0 1-.288.272 3.63 3.63 0 0 0-.512-.272c-.203-.096-.443-.176-.72-.24-.267-.064-.549-.096-.848-.096-.448 0-.805.08-1.072.24s-.4.389-.4.688c0 .213.075.4.224.56.16.149.416.267.768.352l.976.24c.789.181 1.371.464 1.744.848.373.373.56.864.56 1.472zm1.713-7.744c0-.256.091-.475.272-.656s.411-.272.688-.272c.288 0 .517.091.688.272.181.181.272.4.272.656 0 .267-.091.491-.272.672-.171.171-.4.256-.688.256-.277 0-.507-.085-.688-.256-.181-.181-.272-.405-.272-.672zm.176 5.552h1.568v4.192c-.064.021-.16.048-.288.08s-.272.048-.432.048c-.277 0-.491-.053-.64-.16-.139-.117-.208-.304-.208-.56v-3.6zm1.568.784h-1.568v-3.984a2.04 2.04 0 0 1 .288-.064 1.99 1.99 0 0 1 .448-.048c.288 0 .496.053.624.16.139.107.208.293.208.56v3.376zm9.44-.288c0 .8-.154 1.499-.464 2.096a3.39 3.39 0 0 1-1.312 1.376c-.554.32-1.21.48-1.968.48s-1.418-.16-1.984-.48c-.565-.331-1.002-.789-1.312-1.376-.309-.597-.464-1.296-.464-2.096 0-.811.155-1.509.464-2.096.32-.597.763-1.056 1.328-1.376s1.222-.48 1.968-.48 1.398.165 1.952.496c.566.32 1.003.773 1.312 1.36.32.587.48 1.285.48 2.096zm-3.744-2.688c-.661 0-1.184.24-1.568.72-.384.469-.576 1.125-.576 1.968s.187 1.499.56 1.968c.384.469.912.704 1.584.704s1.195-.235 1.568-.704c.384-.48.576-1.136.576-1.968 0-.843-.192-1.499-.576-1.968-.373-.48-.896-.72-1.568-.72zm12.249 1.504v1.6h-1.568v-1.52c0-.544-.154-.944-.464-1.2s-.72-.384-1.232-.384c-.384 0-.73.048-1.04.144-.298.096-.56.208-.784.336v2.624h-1.568v-2.64c0-.235.048-.427.144-.576.107-.16.267-.309.48-.448.299-.181.688-.341 1.168-.48.48-.149 1.014-.224 1.6-.224 1.024 0 1.824.229 2.4.688s.864 1.152.864 2.08zm-6.656.768h1.568v4.112c-.064.021-.16.048-.288.08a1.71 1.71 0 0 1-.416.048c-.288 0-.506-.053-.656-.16-.138-.117-.208-.304-.208-.56v-3.52zm5.088 0h1.568v4.112a3.65 3.65 0 0 1-.304.08 1.71 1.71 0 0 1-.416.048c-.288 0-.501-.053-.64-.16-.138-.117-.208-.304-.208-.56v-3.52z"/><path d="M43.53 172.705v1.155h-3.915v-1.155h3.915zm-1.575 1.155l.405-.885c.72 0 1.315.11 1.785.33.48.22.84.515 1.08.885s.36.79.36 1.26c0 .92-.335 1.605-1.005 2.055s-1.63.675-2.88.675a11.38 11.38 0 0 1-.81-.03 5.99 5.99 0 0 1-.84-.09 5.73 5.73 0 0 1-.765-.165c-.45-.13-.675-.385-.675-.765v-7.545c0-.17.045-.3.135-.39.1-.1.23-.175.39-.225.34-.1.715-.17 1.125-.21a13.46 13.46 0 0 1 1.305-.06c1.16 0 2.06.205 2.7.615.65.41.975 1.04.975 1.89 0 .43-.115.82-.345 1.17-.22.35-.57.63-1.05.84-.48.2-1.1.3-1.86.3l-.12-.81c.61 0 1.07-.125 1.38-.375s.465-.605.465-1.065c0-.45-.18-.79-.54-1.02s-.89-.345-1.59-.345a7.1 7.1 0 0 0-.84.045l-.66.075v6.795c.22.05.48.09.78.12l.885.045c.74 0 1.31-.13 1.71-.39s.6-.655.6-1.185c0-.48-.18-.855-.54-1.125-.35-.28-.87-.42-1.56-.42zm5.41 1.53v-1.29h1.47v1.245c0 .59.155 1.015.465 1.275.32.26.755.39 1.305.39.37 0 .68-.035.93-.105a3.08 3.08 0 0 0 .6-.24V174.1h1.47v2.61c0 .21-.035.385-.105.525-.06.14-.195.27-.405.39-.25.15-.59.285-1.02.405-.42.12-.915.18-1.485.18-.67 0-1.25-.1-1.74-.3a2.34 2.34 0 0 1-1.11-.915c-.25-.42-.375-.955-.375-1.605zm6.24-.54h-1.47v-3.825c.06-.02.15-.04.27-.06.13-.03.265-.045.405-.045.27 0 .47.05.6.15s.195.275.195.525v3.255zm-4.77 0h-1.47v-3.825c.07-.02.165-.04.285-.06.13-.03.265-.045.405-.045.27 0 .465.05.585.15.13.1.195.275.195.525v3.255zm11.59 1.815v-4.905l1.455-.015v5.025a.85.85 0 0 1-.135.495c-.08.13-.215.25-.405.36-.22.14-.525.27-.915.39-.39.13-.835.195-1.335.195-.75 0-1.41-.13-1.98-.39-.56-.26-1-.66-1.32-1.2-.31-.55-.465-1.245-.465-2.085 0-.88.155-1.59.465-2.13.32-.55.745-.955 1.275-1.215a3.93 3.93 0 0 1 1.755-.39 3.71 3.71 0 0 1 1.08.15c.33.1.59.225.78.375v1.305c-.17-.18-.4-.33-.69-.45-.28-.13-.61-.195-.99-.195-.4 0-.765.085-1.095.255s-.595.445-.795.825c-.19.37-.285.865-.285 1.485 0 .86.205 1.485.615 1.875s.955.585 1.635.585c.32 0 .585-.035.795-.105a3.19 3.19 0 0 0 .555-.24zm1.455-4.59l-1.47.015v-3.825c.07-.02.165-.04.285-.06a1.73 1.73 0 0 1 .39-.045c.28 0 .48.05.6.15.13.1.195.275.195.525v3.24zm5.05 5.7c-.58 0-1.12-.11-1.62-.33a2.69 2.69 0 0 1-1.185-1.11c-.3-.52-.45-1.2-.45-2.04 0-.77.15-1.415.45-1.935a2.87 2.87 0 0 1 1.245-1.17c.53-.26 1.145-.39 1.845-.39a4.58 4.58 0 0 1 1.32.18c.41.12.745.265 1.005.435.16.11.29.235.39.375.1.13.15.295.15.495v4.65h-1.455v-4.575c-.16-.1-.355-.185-.585-.255-.22-.08-.49-.12-.81-.12-.62 0-1.125.19-1.515.57-.38.38-.57.955-.57 1.725 0 .85.19 1.45.57 1.8.39.35.865.525 1.425.525.41 0 .74-.07.99-.21.26-.15.47-.31.63-.48l.06 1.26c-.16.15-.4.29-.72.42-.32.12-.71.18-1.17.18zm1.71.375v-1.53h1.44v1.605c0 .66-.15 1.195-.45 1.605-.3.42-.705.72-1.215.9-.51.19-1.085.285-1.725.285-.5 0-.935-.055-1.305-.165-.37-.1-.635-.195-.795-.285-.31-.18-.465-.42-.465-.72a.79.79 0 0 1 .105-.405.73.73 0 0 1 .27-.255c.22.16.52.305.9.435.39.13.8.195 1.23.195.64 0 1.135-.135 1.485-.405s.525-.69.525-1.26zm4.125-2.805l-.06-1.095 4.305-.615c-.03-.48-.2-.88-.51-1.2s-.74-.48-1.29-.48c-.58 0-1.06.205-1.44.615-.37.4-.56.98-.57 1.74l.015.525c.08.73.335 1.28.765 1.65.44.36 1.02.54 1.74.54.42 0 .805-.065 1.155-.195s.625-.275.825-.435c.12.08.215.175.285.285a.62.62 0 0 1 .12.375c0 .22-.11.42-.33.6-.22.17-.515.305-.885.405s-.79.15-1.26.15c-.77 0-1.445-.14-2.025-.42-.57-.29-1.015-.715-1.335-1.275s-.48-1.25-.48-2.07c0-.59.085-1.11.255-1.56.18-.45.425-.83.735-1.14a3.11 3.11 0 0 1 1.08-.705 3.76 3.76 0 0 1 1.35-.24c.63 0 1.185.13 1.665.39A2.82 2.82 0 0 1 78 172.285c.27.47.405 1.005.405 1.605 0 .25-.06.43-.18.54-.11.11-.275.18-.495.21l-4.965.705zm7.311-1.305h1.455v1.95c0 .37.11.635.33.795.22.15.52.225.9.225a2.25 2.25 0 0 0 .54-.075 3.22 3.22 0 0 0 .51-.195c.06.07.115.155.165.255.06.1.09.215.09.345 0 .25-.135.455-.405.615-.26.16-.645.24-1.155.24-.74 0-1.33-.16-1.77-.48-.44-.33-.66-.875-.66-1.635v-2.04zm.81-1.71v-1.185h3.015c.03.06.06.145.09.255a.88.88 0 0 1 .06.33c0 .2-.05.35-.15.45-.09.1-.215.15-.375.15h-2.64zm.645 2.145h-1.455v-5.43c.06-.02.15-.04.27-.06.13-.03.265-.045.405-.045.27 0 .465.05.585.15.13.1.195.275.195.525v4.86zm-47.556 18.89c0 1.18-.285 2.07-.855 2.67-.56.6-1.375.9-2.445.9-.26 0-.52-.005-.78-.015a3.54 3.54 0 0 1-.69-.12v-6.75a3.83 3.83 0 0 1 .615-.075c.22-.02.47-.03.75-.03.63 0 1.2.12 1.71.36.52.23.93.595 1.23 1.095.31.5.465 1.155.465 1.965zm1.545-.015c0-1.04-.21-1.9-.63-2.58a3.88 3.88 0 0 0-1.755-1.545c-.74-.35-1.605-.525-2.595-.525l-1.2.06c-.4.03-.77.1-1.11.21-.16.05-.29.12-.39.21-.09.09-.135.22-.135.39v7.575c0 .37.225.625.675.765.37.12.765.195 1.185.225l1.11.045c.98 0 1.83-.175 2.55-.525.73-.35 1.295-.88 1.695-1.59.4-.72.6-1.625.6-2.715zm2.433 1.995l-.06-1.095 4.305-.615c-.03-.48-.2-.88-.51-1.2s-.74-.48-1.29-.48c-.58 0-1.06.205-1.44.615-.37.4-.56.98-.57 1.74l.015.525c.08.73.335 1.28.765 1.65.44.36 1.02.54 1.74.54.42 0 .805-.065 1.155-.195s.625-.275.825-.435c.12.08.215.175.285.285a.62.62 0 0 1 .12.375c0 .22-.11.42-.33.6-.22.17-.515.305-.885.405s-.79.15-1.26.15c-.77 0-1.445-.14-2.025-.42-.57-.29-1.015-.715-1.335-1.275s-.48-1.25-.48-2.07c0-.59.085-1.11.255-1.56.18-.45.425-.83.735-1.14a3.11 3.11 0 0 1 1.08-.705 3.76 3.76 0 0 1 1.35-.24c.63 0 1.185.13 1.665.39a2.82 2.82 0 0 1 1.125 1.095c.27.47.405 1.005.405 1.605 0 .25-.06.43-.18.54-.11.11-.275.18-.495.21l-4.965.705zm7.311-1.305h1.455v1.95c0 .37.11.635.33.795.22.15.52.225.9.225a2.25 2.25 0 0 0 .54-.075 3.22 3.22 0 0 0 .51-.195c.06.07.115.155.165.255.06.1.09.215.09.345 0 .25-.135.455-.405.615-.26.16-.645.24-1.155.24-.74 0-1.33-.16-1.77-.48-.44-.33-.66-.875-.66-1.635v-2.04zm.81-1.71v-1.185h3.015c.03.06.06.145.09.255a.88.88 0 0 1 .06.33c0 .2-.05.35-.15.45-.09.1-.215.15-.375.15h-2.64zm.645 2.145h-1.455v-5.43c.06-.02.15-.04.27-.06.13-.03.265-.045.405-.045.27 0 .465.05.585.15.13.1.195.275.195.525v4.86zm4.579.87l-.06-1.095 4.305-.615c-.03-.48-.2-.88-.51-1.2s-.74-.48-1.29-.48c-.58 0-1.06.205-1.44.615-.37.4-.56.98-.57 1.74l.015.525c.08.73.335 1.28.765 1.65.44.36 1.02.54 1.74.54.42 0 .805-.065 1.155-.195s.625-.275.825-.435c.12.08.215.175.285.285a.62.62 0 0 1 .12.375c0 .22-.11.42-.33.6-.22.17-.515.305-.885.405s-.79.15-1.26.15c-.77 0-1.445-.14-2.025-.42-.57-.29-1.015-.715-1.335-1.275s-.48-1.25-.48-2.07c0-.59.085-1.11.255-1.56.18-.45.425-.83.735-1.14a3.11 3.11 0 0 1 1.08-.705 3.76 3.76 0 0 1 1.35-.24c.63 0 1.185.13 1.665.39a2.82 2.82 0 0 1 1.125 1.095c.27.47.405 1.005.405 1.605 0 .25-.06.43-.18.54-.11.11-.275.18-.495.21l-4.965.705zm8.751-2.88v2.235h-1.47v-2.25c0-.24.05-.435.15-.585s.255-.295.465-.435c.28-.18.645-.33 1.095-.45a5.93 5.93 0 0 1 1.5-.18c.86 0 1.29.235 1.29.705a.88.88 0 0 1-.06.33.69.69 0 0 1-.135.255l-.39-.06c-.15-.02-.305-.03-.465-.03-.42 0-.8.045-1.14.135-.33.09-.61.2-.84.33zm-1.47 1.575l1.47.15v3.78a3.97 3.97 0 0 1-.27.075c-.12.03-.25.045-.39.045-.27 0-.475-.05-.615-.15-.13-.11-.195-.285-.195-.525v-3.375zm11.578-.885v1.725h-1.47v-1.575c0-.46-.135-.795-.405-1.005-.26-.21-.6-.315-1.02-.315-.29 0-.565.045-.825.135s-.48.195-.66.315v2.445h-1.47v-2.46c0-.22.045-.4.135-.54.1-.15.25-.29.45-.42.29-.18.65-.335 1.08-.465s.87-.195 1.32-.195c.5 0 .95.075 1.35.225s.71.365.93.645l.165.18c.05.05.095.115.135.195a1.76 1.76 0 0 1 .195.495 2.03 2.03 0 0 1 .09.615zm4.38.075v1.65h-1.47v-1.575c0-.46-.13-.795-.39-1.005s-.6-.315-1.02-.315c-.32 0-.63.065-.93.195a2.48 2.48 0 0 0-.78.555l-.66-.99c.28-.25.63-.47 1.05-.66s.91-.285 1.47-.285c.53 0 1 .085 1.41.255a2.03 2.03 0 0 1 .96.795c.24.36.36.82.36 1.38zm-10.23.885h1.47v3.855a3.97 3.97 0 0 1-.27.075c-.12.03-.25.045-.39.045-.27 0-.475-.05-.615-.15-.13-.11-.195-.285-.195-.525v-3.3zm4.38 0h1.47v3.855c-.06.02-.155.045-.285.075-.12.03-.25.045-.39.045-.27 0-.47-.05-.6-.15-.13-.11-.195-.285-.195-.525v-3.3zm4.38 0h1.47v3.855l-.3.075a1.54 1.54 0 0 1-.375.045c-.28 0-.485-.05-.615-.15-.12-.11-.18-.285-.18-.525v-3.3zm3.484-5.28a.84.84 0 0 1 .255-.615c.17-.17.385-.255.645-.255.27 0 .485.085.645.255a.84.84 0 0 1 .255.615c0 .25-.085.46-.255.63-.16.16-.375.24-.645.24-.26 0-.475-.08-.645-.24-.17-.17-.255-.38-.255-.63zm.165 5.205h1.47v3.93a3.97 3.97 0 0 1-.27.075c-.12.03-.255.045-.405.045-.26 0-.46-.05-.6-.15-.13-.11-.195-.285-.195-.525v-3.375zm1.47.735h-1.47v-3.735c.06-.02.15-.04.27-.06.13-.03.27-.045.42-.045.27 0 .465.05.585.15.13.1.195.275.195.525v3.165zm8.43-1.38v1.5h-1.47v-1.425c0-.51-.145-.885-.435-1.125s-.675-.36-1.155-.36c-.36 0-.685.045-.975.135-.28.09-.525.195-.735.315v2.46h-1.47v-2.475c0-.22.045-.4.135-.54.1-.15.25-.29.45-.42.28-.17.645-.32 1.095-.45.45-.14.95-.21 1.5-.21.96 0 1.71.215 2.25.645s.81 1.08.81 1.95zm-6.24.72h1.47v3.855a3.97 3.97 0 0 1-.27.075c-.12.03-.25.045-.39.045-.27 0-.475-.05-.615-.15-.13-.11-.195-.285-.195-.525v-3.3zm4.77 0h1.47v3.855c-.06.02-.155.045-.285.075-.12.03-.25.045-.39.045-.27 0-.47-.05-.6-.15-.13-.11-.195-.285-.195-.525v-3.3zm4.18 1.23l-.06-1.095 4.305-.615c-.03-.48-.2-.88-.51-1.2s-.74-.48-1.29-.48c-.58 0-1.06.205-1.44.615-.37.4-.56.98-.57 1.74l.015.525c.08.73.335 1.28.765 1.65.44.36 1.02.54 1.74.54.42 0 .805-.065 1.155-.195s.625-.275.825-.435c.12.08.215.175.285.285a.62.62 0 0 1 .12.375c0 .22-.11.42-.33.6-.22.17-.515.305-.885.405s-.79.15-1.26.15c-.77 0-1.445-.14-2.025-.42-.57-.29-1.015-.715-1.335-1.275s-.48-1.25-.48-2.07c0-.59.085-1.11.255-1.56.18-.45.425-.83.735-1.14a3.11 3.11 0 0 1 1.08-.705 3.76 3.76 0 0 1 1.35-.24c.63 0 1.185.13 1.665.39a2.82 2.82 0 0 1 1.125 1.095c.27.47.405 1.005.405 1.605 0 .25-.06.43-.18.54-.11.11-.275.18-.495.21l-4.965.705z"/><path d="M98.305 263.835v-5.25c0-.17.045-.3.135-.39.1-.09.23-.165.39-.225.3-.09.66-.155 1.08-.195a10.65 10.65 0 0 1 1.23-.075c1.29 0 2.24.275 2.85.825.62.54.93 1.275.93 2.205 0 .63-.14 1.18-.42 1.65-.27.46-.68.82-1.23 1.08-.55.25-1.24.375-2.07.375h-2.895zm.81 3.255c-.28 0-.485-.055-.615-.165s-.195-.29-.195-.54v-3.255h1.515v3.84l-.3.075c-.12.03-.255.045-.405.045zm.69-4.485h1.305c.72 0 1.28-.155 1.68-.465.41-.31.615-.775.615-1.395s-.195-1.075-.585-1.365-.945-.435-1.665-.435l-.72.03-.63.075v3.555zm6.965.435l1.47.15v3.78c-.06.02-.155.045-.285.075-.12.03-.25.045-.39.045-.27 0-.47-.05-.6-.15-.13-.11-.195-.285-.195-.525v-3.375zm1.47.87l-1.47-.135v-6.51c.06-.02.15-.04.27-.06.13-.03.265-.045.405-.045.27 0 .47.05.6.15s.195.275.195.525v6.075zm4.829 3.3c-.96 0-1.71-.185-2.25-.555-.54-.38-.81-.93-.81-1.65 0-.66.215-1.165.645-1.515s1.04-.565 1.83-.645l2.1-.21v-.345c0-.46-.15-.795-.45-1.005-.29-.21-.685-.315-1.185-.315-.4 0-.79.055-1.17.165-.37.11-.7.24-.99.39-.09-.08-.17-.175-.24-.285s-.105-.225-.105-.345c0-.31.17-.54.51-.69.27-.13.585-.23.945-.3a6.12 6.12 0 0 1 1.14-.105c.91 0 1.635.2 2.175.6s.81 1.03.81 1.89v3.51c0 .23-.05.41-.15.54-.1.12-.235.235-.405.345-.26.14-.595.26-1.005.36-.41.11-.875.165-1.395.165zm0-1.155a3.68 3.68 0 0 0 .945-.105 2.3 2.3 0 0 0 .57-.24v-1.98l-1.71.18c-.47.03-.825.135-1.065.315-.23.17-.345.42-.345.75s.13.595.39.795c.27.19.675.285 1.215.285zm11.247-3.66v1.5h-1.47v-1.425c0-.51-.145-.885-.435-1.125s-.675-.36-1.155-.36c-.36 0-.685.045-.975.135-.28.09-.525.195-.735.315v2.46h-1.47v-2.475c0-.22.045-.4.135-.54.1-.15.25-.29.45-.42.28-.17.645-.32 1.095-.45.45-.14.95-.21 1.5-.21.96 0 1.71.215 2.25.645s.81 1.08.81 1.95zm-6.24.72h1.47v3.855a3.97 3.97 0 0 1-.27.075c-.12.03-.25.045-.39.045-.27 0-.475-.05-.615-.15-.13-.11-.195-.285-.195-.525v-3.3zm4.77 0h1.47v3.855c-.06.02-.155.045-.285.075-.12.03-.25.045-.39.045-.27 0-.47-.05-.6-.15-.13-.11-.195-.285-.195-.525v-3.3zm9.819-.72v1.5h-1.47v-1.425c0-.51-.145-.885-.435-1.125s-.675-.36-1.155-.36c-.36 0-.685.045-.975.135-.28.09-.525.195-.735.315v2.46h-1.47v-2.475c0-.22.045-.4.135-.54.1-.15.25-.29.45-.42.28-.17.645-.32 1.095-.45.45-.14.95-.21 1.5-.21.96 0 1.71.215 2.25.645s.81 1.08.81 1.95zm-6.24.72h1.47v3.855a3.97 3.97 0 0 1-.27.075c-.12.03-.25.045-.39.045-.27 0-.475-.05-.615-.15-.13-.11-.195-.285-.195-.525v-3.3zm4.77 0h1.47v3.855c-.06.02-.155.045-.285.075-.12.03-.25.045-.39.045-.27 0-.47-.05-.6-.15-.13-.11-.195-.285-.195-.525v-3.3zm3.49-5.28a.84.84 0 0 1 .255-.615c.17-.17.385-.255.645-.255.27 0 .485.085.645.255a.84.84 0 0 1 .255.615c0 .25-.085.46-.255.63-.16.16-.375.24-.645.24-.26 0-.475-.08-.645-.24-.17-.17-.255-.38-.255-.63zm.165 5.205h1.47v3.93a3.97 3.97 0 0 1-.27.075c-.12.03-.255.045-.405.045-.26 0-.46-.05-.6-.15-.13-.11-.195-.285-.195-.525v-3.375zm1.47.735h-1.47v-3.735c.06-.02.15-.04.27-.06.13-.03.27-.045.42-.045.27 0 .465.05.585.15.13.1.195.275.195.525v3.165zm8.43-1.38v1.5h-1.47v-1.425c0-.51-.145-.885-.435-1.125s-.675-.36-1.155-.36c-.36 0-.685.045-.975.135-.28.09-.525.195-.735.315v2.46h-1.47v-2.475c0-.22.045-.4.135-.54.1-.15.25-.29.45-.42.28-.17.645-.32 1.095-.45.45-.14.95-.21 1.5-.21.96 0 1.71.215 2.25.645s.81 1.08.81 1.95zm-6.24.72h1.47v3.855a3.97 3.97 0 0 1-.27.075c-.12.03-.25.045-.39.045-.27 0-.475-.05-.615-.15-.13-.11-.195-.285-.195-.525v-3.3zm4.77 0h1.47v3.855c-.06.02-.155.045-.285.075-.12.03-.25.045-.39.045-.27 0-.47-.05-.6-.15-.13-.11-.195-.285-.195-.525v-3.3zm6.49 3.66c-.58 0-1.12-.11-1.62-.33a2.69 2.69 0 0 1-1.185-1.11c-.3-.52-.45-1.2-.45-2.04 0-.77.15-1.415.45-1.935a2.87 2.87 0 0 1 1.245-1.17c.53-.26 1.145-.39 1.845-.39a4.58 4.58 0 0 1 1.32.18c.41.12.745.265 1.005.435.16.11.29.235.39.375.1.13.15.295.15.495v4.65h-1.455v-4.575c-.16-.1-.355-.185-.585-.255-.22-.08-.49-.12-.81-.12-.62 0-1.125.19-1.515.57-.38.38-.57.955-.57 1.725 0 .85.19 1.45.57 1.8.39.35.865.525 1.425.525.41 0 .74-.07.99-.21.26-.15.47-.31.63-.48l.06 1.26c-.16.15-.4.29-.72.42-.32.12-.71.18-1.17.18zm1.71.375v-1.53h1.44v1.605c0 .66-.15 1.195-.45 1.605-.3.42-.705.72-1.215.9-.51.19-1.085.285-1.725.285-.5 0-.935-.055-1.305-.165-.37-.1-.635-.195-.795-.285-.31-.18-.465-.42-.465-.72a.79.79 0 0 1 .105-.405.73.73 0 0 1 .27-.255c.22.16.52.305.9.435.39.13.8.195 1.23.195.64 0 1.135-.135 1.485-.405s.525-.69.525-1.26z"/><path d="M212.083 251.674c0 1.101-.266 1.932-.798 2.492-.523.56-1.284.84-2.282.84a19.6 19.6 0 0 1-.728-.014 3.32 3.32 0 0 1-.644-.112v-6.3c.177-.037.368-.061.574-.07a7.67 7.67 0 0 1 .7-.028c.588 0 1.12.112 1.596.336.485.215.868.555 1.148 1.022.289.467.434 1.078.434 1.834zm1.442-.014c0-.971-.196-1.773-.588-2.408a3.62 3.62 0 0 0-1.638-1.442c-.691-.327-1.498-.49-2.422-.49l-1.12.056a4.41 4.41 0 0 0-1.036.196c-.15.047-.271.112-.364.196-.084.084-.126.205-.126.364v7.07c0 .345.21.583.63.714.345.112.714.182 1.106.21l1.036.042c.914 0 1.708-.163 2.38-.49a3.53 3.53 0 0 0 1.582-1.484c.373-.672.56-1.517.56-2.534zm2.271 1.862l-.056-1.022 4.018-.574c-.028-.448-.187-.821-.476-1.12s-.691-.448-1.204-.448c-.541 0-.989.191-1.344.574-.345.373-.523.915-.532 1.624l.014.49c.075.681.313 1.195.714 1.54.411.336.952.504 1.624.504.392 0 .751-.061 1.078-.182s.583-.257.77-.406a.9.9 0 0 1 .266.266.58.58 0 0 1 .112.35c0 .205-.103.392-.308.56-.205.159-.481.285-.826.378s-.737.14-1.176.14c-.719 0-1.349-.131-1.89-.392-.532-.271-.947-.667-1.246-1.19s-.448-1.167-.448-1.932c0-.551.079-1.036.238-1.456.168-.42.397-.775.686-1.064s.625-.509 1.008-.658c.392-.149.812-.224 1.26-.224.588 0 1.106.121 1.554.364s.798.583 1.05 1.022.378.938.378 1.498c0 .233-.056.401-.168.504-.103.103-.257.168-.462.196l-4.634.658zm11.666.7c0 .616-.229 1.101-.686 1.456-.458.345-1.12.518-1.988.518-.728 0-1.326-.112-1.792-.336-.458-.224-.686-.485-.686-.784a.73.73 0 0 1 .098-.378.88.88 0 0 1 .294-.294c.252.177.546.336.882.476.345.14.737.21 1.176.21.896 0 1.344-.289 1.344-.868a.77.77 0 0 0-.238-.588c-.15-.159-.378-.271-.686-.336l-1.008-.266c-.616-.149-1.069-.373-1.358-.672-.29-.308-.434-.7-.434-1.176 0-.532.214-.98.644-1.344.438-.373 1.078-.56 1.918-.56.438 0 .826.047 1.162.14.336.084.597.205.784.364.196.149.294.317.294.504a.74.74 0 0 1-.098.378.69.69 0 0 1-.252.238c-.112-.075-.262-.154-.448-.238a3.14 3.14 0 0 0-.63-.21c-.234-.056-.481-.084-.742-.084-.392 0-.705.07-.938.21s-.35.341-.35.602c0 .187.065.35.196.49.14.131.364.233.672.308l.854.21c.69.159 1.199.406 1.526.742.326.327.49.756.49 1.288zm1.498-6.776c0-.224.08-.415.238-.574s.36-.238.602-.238c.252 0 .453.079.602.238a.78.78 0 0 1 .238.574.8.8 0 0 1-.238.588c-.149.149-.35.224-.602.224-.242 0-.443-.075-.602-.224a.8.8 0 0 1-.238-.588zm.154 4.858h1.372v3.668c-.056.019-.14.042-.252.07a1.56 1.56 0 0 1-.378.042c-.242 0-.429-.047-.56-.14-.121-.103-.182-.266-.182-.49v-3.15zm1.372.686h-1.372v-3.486c.056-.019.14-.037.252-.056.122-.028.252-.042.392-.042.252 0 .434.047.546.14.122.093.182.257.182.49v2.954zm4.761 2.8c-.542 0-1.046-.103-1.512-.308-.458-.215-.826-.56-1.106-1.036-.28-.485-.42-1.12-.42-1.904 0-.719.14-1.321.42-1.806a2.68 2.68 0 0 1 1.162-1.092c.494-.243 1.068-.364 1.722-.364.448 0 .858.056 1.232.168.382.112.695.247.938.406.149.103.27.219.364.35.093.121.14.275.14.462v4.34h-1.358v-4.27a2.31 2.31 0 0 0-.546-.238c-.206-.075-.458-.112-.756-.112-.579 0-1.05.177-1.414.532-.355.355-.532.891-.532 1.61 0 .793.177 1.353.532 1.68.364.327.807.49 1.33.49.382 0 .69-.065.924-.196.242-.14.438-.289.588-.448l.056 1.176c-.15.14-.374.271-.672.392-.299.112-.663.168-1.092.168zm1.596.35v-1.428h1.344v1.498c0 .616-.14 1.115-.42 1.498-.28.392-.658.672-1.134.84-.476.177-1.013.266-1.61.266-.467 0-.873-.051-1.218-.154-.346-.093-.593-.182-.742-.266-.29-.168-.434-.392-.434-.672a.73.73 0 0 1 .098-.378c.065-.103.149-.182.252-.238.205.149.485.285.84.406.364.121.746.182 1.148.182.597 0 1.059-.126 1.386-.378s.49-.644.49-1.176zm9.113-4.438v1.4h-1.372v-1.33c0-.476-.135-.826-.406-1.05s-.63-.336-1.078-.336c-.336 0-.639.042-.91.126-.261.084-.49.182-.686.294v2.296h-1.372v-2.31c0-.205.042-.373.126-.504.094-.14.234-.271.42-.392.262-.159.602-.299 1.022-.42a4.69 4.69 0 0 1 1.4-.196c.896 0 1.596.201 2.1.602s.756 1.008.756 1.82zm-5.824.672h1.372v3.598c-.056.019-.14.042-.252.07s-.233.042-.364.042c-.252 0-.443-.047-.574-.14-.121-.103-.182-.266-.182-.49v-3.08zm4.452 0h1.372v3.598c-.056.019-.144.042-.266.07-.112.028-.233.042-.364.042-.252 0-.438-.047-.56-.14-.121-.103-.182-.266-.182-.49v-3.08zm-52.51 15.3c0 1.101-.266 1.932-.798 2.492-.523.56-1.283.84-2.282.84a19.64 19.64 0 0 1-.728-.014c-.233-.019-.448-.056-.644-.112v-6.3c.177-.037.369-.061.574-.07.205-.019.439-.028.7-.028.588 0 1.12.112 1.596.336.485.215.868.555 1.148 1.022.289.467.434 1.078.434 1.834zm1.442-.014c0-.971-.196-1.773-.588-2.408a3.62 3.62 0 0 0-1.638-1.442c-.691-.327-1.498-.49-2.422-.49l-1.12.056c-.373.028-.719.093-1.036.196a.97.97 0 0 0-.364.196c-.084.084-.126.205-.126.364v7.07c0 .345.21.583.63.714.345.112.714.182 1.106.21l1.036.042c.915 0 1.708-.163 2.38-.49.681-.327 1.209-.821 1.582-1.484.373-.672.56-1.517.56-2.534zm2.271 1.862l-.056-1.022 4.018-.574c-.028-.448-.187-.821-.476-1.12s-.691-.448-1.204-.448c-.541 0-.989.191-1.344.574-.345.373-.523.915-.532 1.624l.014.49c.075.681.313 1.195.714 1.54.411.336.952.504 1.624.504.392 0 .751-.061 1.078-.182s.583-.257.77-.406a.9.9 0 0 1 .266.266.58.58 0 0 1 .112.35c0 .205-.103.392-.308.56-.205.159-.481.285-.826.378s-.737.14-1.176.14c-.719 0-1.349-.131-1.89-.392-.532-.271-.947-.667-1.246-1.19s-.448-1.167-.448-1.932c0-.551.079-1.036.238-1.456.168-.42.397-.775.686-1.064s.625-.509 1.008-.658c.392-.149.812-.224 1.26-.224.588 0 1.106.121 1.554.364s.798.583 1.05 1.022.378.938.378 1.498c0 .233-.056.401-.168.504-.103.103-.257.168-.462.196l-4.634.658zm11.697-4.186c.196 0 .355.047.476.14s.182.238.182.434c0 .14-.051.383-.154.728l-.392 1.204-.546 1.456-.602 1.442-.546 1.176a.98.98 0 0 1-.322.126c-.14.037-.294.056-.462.056-.196 0-.373-.033-.532-.098-.149-.056-.252-.14-.308-.252l-.392-.826-.518-1.218-.546-1.414-.518-1.414-.364-1.19c.075-.103.177-.187.308-.252a.99.99 0 0 1 .42-.098c.205 0 .364.047.476.14.121.093.215.257.28.49l.812 2.436.266.798.322.896.266.728h.07l.938-2.688.784-2.66c.168-.093.369-.14.602-.14zm2.577 4.186l-.056-1.022 4.018-.574c-.028-.448-.187-.821-.476-1.12s-.691-.448-1.204-.448a1.75 1.75 0 0 0-1.344.574c-.346.373-.523.915-.532 1.624l.014.49c.074.681.312 1.195.714 1.54.41.336.952.504 1.624.504.392 0 .751-.061 1.078-.182s.583-.257.77-.406a.91.91 0 0 1 .266.266c.074.103.112.219.112.35 0 .205-.103.392-.308.56-.206.159-.481.285-.826.378s-.738.14-1.176.14c-.719 0-1.349-.131-1.89-.392a2.94 2.94 0 0 1-1.246-1.19c-.299-.523-.448-1.167-.448-1.932 0-.551.079-1.036.238-1.456a3.11 3.11 0 0 1 .686-1.064c.289-.289.625-.509 1.008-.658.392-.149.812-.224 1.26-.224.588 0 1.106.121 1.554.364s.798.583 1.05 1.022.378.938.378 1.498c0 .233-.056.401-.168.504-.103.103-.257.168-.462.196l-4.634.658zm6.907-1.218l1.372.14v3.528c-.056.019-.145.042-.266.07-.112.028-.233.042-.364.042-.252 0-.439-.047-.56-.14-.121-.103-.182-.266-.182-.49v-3.15zm1.372.812l-1.372-.126v-6.076c.056-.019.14-.037.252-.056a1.67 1.67 0 0 1 .378-.042c.252 0 .439.047.56.14s.182.257.182.49v5.67zm8.287-.378c0 .7-.136 1.311-.406 1.834a2.98 2.98 0 0 1-1.148 1.204c-.486.28-1.06.42-1.722.42s-1.242-.14-1.736-.42c-.495-.289-.878-.691-1.148-1.204-.271-.523-.406-1.134-.406-1.834 0-.709.135-1.321.406-1.834.28-.523.667-.924 1.162-1.204s1.068-.42 1.722-.42 1.222.145 1.708.434c.494.28.877.677 1.148 1.19.28.513.42 1.125.42 1.834zm-3.276-2.352c-.579 0-1.036.21-1.372.63-.336.411-.504.985-.504 1.722s.163 1.311.49 1.722c.336.411.798.616 1.386.616s1.045-.205 1.372-.616c.336-.42.504-.994.504-1.722 0-.737-.168-1.311-.504-1.722-.327-.42-.784-.63-1.372-.63zm7.806 5.796c-.383 0-.742-.056-1.078-.168-.327-.103-.579-.219-.756-.35v-1.232a2.99 2.99 0 0 0 .672.448c.27.131.592.196.966.196.616 0 1.106-.187 1.47-.56.373-.383.56-.985.56-1.806 0-.569-.094-1.022-.28-1.358-.178-.336-.42-.579-.728-.728-.299-.159-.635-.238-1.008-.238a2.47 2.47 0 0 0-.784.112c-.215.075-.406.159-.574.252v4.564h-1.372v-4.606c0-.205.037-.369.112-.49s.214-.243.42-.364c.261-.149.574-.28.938-.392.373-.121.793-.182 1.26-.182a4.01 4.01 0 0 1 1.736.364c.513.233.919.602 1.218 1.106s.448 1.157.448 1.96c0 .775-.136 1.419-.406 1.932a2.71 2.71 0 0 1-1.148 1.162c-.486.252-1.041.378-1.666.378zm-2.156 2.436c-.252 0-.444-.051-.574-.154-.122-.093-.182-.257-.182-.49v-3.108l1.372.028v3.626c-.056.019-.14.037-.252.056a1.5 1.5 0 0 1-.364.042zm12.456-7.14v1.61h-1.372v-1.47c0-.429-.126-.742-.378-.938-.243-.196-.56-.294-.952-.294-.271 0-.528.042-.77.126s-.448.182-.616.294v2.282h-1.372v-2.296c0-.205.042-.373.126-.504.093-.14.233-.271.42-.392.27-.168.606-.313 1.008-.434s.812-.182 1.232-.182c.466 0 .886.07 1.26.21s.662.341.868.602l.154.168c.046.047.088.107.126.182.074.121.135.275.182.462.056.177.084.369.084.574zm4.088.07v1.54h-1.372v-1.47c0-.429-.122-.742-.364-.938s-.56-.294-.952-.294c-.299 0-.588.061-.868.182-.271.121-.514.294-.728.518l-.616-.924c.261-.233.588-.439.98-.616s.849-.266 1.372-.266c.494 0 .933.079 1.316.238s.681.406.896.742c.224.336.336.765.336 1.288zm-9.548.826h1.372v3.598c-.056.019-.14.042-.252.07a1.5 1.5 0 0 1-.364.042c-.252 0-.444-.047-.574-.14-.122-.103-.182-.266-.182-.49v-3.08zm4.088 0h1.372v3.598c-.056.019-.145.042-.266.07a1.5 1.5 0 0 1-.364.042c-.252 0-.439-.047-.56-.14-.122-.103-.182-.266-.182-.49v-3.08zm4.088 0h1.372v3.598l-.28.07a1.44 1.44 0 0 1-.35.042c-.262 0-.453-.047-.574-.14-.112-.103-.168-.266-.168-.49v-3.08zm3.895 1.148l-.056-1.022 4.018-.574c-.028-.448-.186-.821-.476-1.12s-.69-.448-1.204-.448c-.541 0-.989.191-1.344.574-.345.373-.522.915-.532 1.624l.014.49c.075.681.313 1.195.714 1.54.411.336.952.504 1.624.504a3.08 3.08 0 0 0 1.078-.182c.327-.121.584-.257.77-.406a.9.9 0 0 1 .266.266.58.58 0 0 1 .112.35c0 .205-.102.392-.308.56-.205.159-.48.285-.826.378s-.737.14-1.176.14c-.718 0-1.348-.131-1.89-.392-.532-.271-.947-.667-1.246-1.19s-.448-1.167-.448-1.932c0-.551.08-1.036.238-1.456.168-.42.397-.775.686-1.064s.626-.509 1.008-.658c.392-.149.812-.224 1.26-.224.588 0 1.106.121 1.554.364s.798.583 1.05 1.022.378.938.378 1.498c0 .233-.056.401-.168.504-.102.103-.256.168-.462.196l-4.634.658zm12.62-1.82v1.4h-1.372v-1.33c0-.476-.136-.826-.406-1.05s-.63-.336-1.078-.336a3.06 3.06 0 0 0-.91.126 3.59 3.59 0 0 0-.686.294v2.296h-1.372v-2.31c0-.205.042-.373.126-.504.093-.14.233-.271.42-.392.261-.159.602-.299 1.022-.42.42-.131.886-.196 1.4-.196.896 0 1.596.201 2.1.602s.756 1.008.756 1.82zm-5.824.672h1.372v3.598c-.056.019-.14.042-.252.07a1.5 1.5 0 0 1-.364.042c-.252 0-.444-.047-.574-.14-.122-.103-.182-.266-.182-.49v-3.08zm4.452 0h1.372v3.598c-.056.019-.145.042-.266.07a1.5 1.5 0 0 1-.364.042c-.252 0-.439-.047-.56-.14-.122-.103-.182-.266-.182-.49v-3.08zm3.369-.07h1.358v1.82c0 .345.102.593.308.742.205.14.485.21.84.21.149 0 .317-.023.504-.07.186-.056.345-.117.476-.182a1.18 1.18 0 0 1 .154.238c.056.093.084.201.084.322 0 .233-.126.425-.378.574-.243.149-.602.224-1.078.224-.691 0-1.242-.149-1.652-.448-.411-.308-.616-.817-.616-1.526v-1.904zm.756-1.596v-1.106h2.814c.028.056.056.135.084.238.037.093.056.196.056.308 0 .187-.047.327-.14.42-.084.093-.201.14-.35.14h-2.464zm.602 2.002h-1.358v-5.068c.056-.019.14-.037.252-.056a1.67 1.67 0 0 1 .378-.042c.252 0 .434.047.546.14.121.093.182.257.182.49v4.536zm-61.546 17.82l-.504.546c-.336.355-.742.635-1.218.84-.467.196-1.008.294-1.624.294-.663 0-1.237-.117-1.722-.35s-.863-.56-1.134-.98c-.261-.429-.392-.929-.392-1.498 0-.467.093-.877.28-1.232a2.66 2.66 0 0 1 .77-.896c.327-.243.681-.42 1.064-.532l.616.952c-.233.047-.453.145-.658.294a1.77 1.77 0 0 0-.518.56c-.131.233-.196.513-.196.84 0 .513.168.929.504 1.246.345.317.821.476 1.428.476.308 0 .644-.065 1.008-.196.364-.14.7-.383 1.008-.728l.392-.574c.159-.308.28-.686.364-1.134a7.99 7.99 0 0 0 .126-1.47 1.31 1.31 0 0 1 .308-.098 1.12 1.12 0 0 1 .294-.042c.233 0 .401.07.504.21.103.131.154.313.154.546 0 .495-.075 1.008-.224 1.54-.14.532-.35.994-.63 1.386zm.658 1.666c-.224 0-.443-.121-.658-.364l-4.214-4.368-.364-.434c-.299-.317-.513-.616-.644-.896s-.196-.574-.196-.882c0-.383.089-.719.266-1.008.187-.299.448-.527.784-.686.345-.168.765-.252 1.26-.252.513 0 .896.079 1.148.238.252.149.378.341.378.574a.62.62 0 0 1-.098.336c-.056.103-.126.182-.21.238a2.14 2.14 0 0 0-.49-.182 2.04 2.04 0 0 0-.588-.084c-.327 0-.588.079-.784.238s-.294.383-.294.672a1.19 1.19 0 0 0 .21.686c.14.205.341.448.602.728l4.62 4.718a.88.88 0 0 1-.238.532c-.121.131-.285.196-.49.196zm11.393-7.7a.63.63 0 0 1-.14.392c-.084.112-.182.196-.294.252a4.45 4.45 0 0 0-.84-.462c-.318-.14-.724-.21-1.218-.21-.551 0-1.041.126-1.47.378-.43.243-.77.611-1.022 1.106-.243.485-.364 1.087-.364 1.806 0 1.083.266 1.899.798 2.45.541.551 1.246.826 2.114.826.466 0 .872-.065 1.218-.196a4.19 4.19 0 0 0 .868-.462c.112.056.21.145.294.266.084.112.126.243.126.392a.69.69 0 0 1-.098.35c-.066.103-.173.196-.322.28-.206.14-.49.261-.854.364-.355.112-.808.168-1.358.168-.794 0-1.512-.163-2.156-.49-.635-.327-1.139-.817-1.512-1.47-.374-.663-.56-1.489-.56-2.478 0-.98.191-1.801.574-2.464s.886-1.162 1.512-1.498c.634-.336 1.325-.504 2.072-.504.522 0 .98.061 1.372.182.401.112.709.261.924.448.224.177.336.369.336.574zm7.567 4.242c0 .7-.135 1.311-.406 1.834a2.97 2.97 0 0 1-1.148 1.204c-.485.28-1.059.42-1.722.42s-1.241-.14-1.736-.42a2.97 2.97 0 0 1-1.148-1.204c-.271-.523-.406-1.134-.406-1.834 0-.709.135-1.321.406-1.834.28-.523.667-.924 1.162-1.204s1.069-.42 1.722-.42 1.223.145 1.708.434a2.88 2.88 0 0 1 1.148 1.19c.28.513.42 1.125.42 1.834zm-3.276-2.352c-.579 0-1.036.21-1.372.63-.336.411-.504.985-.504 1.722s.163 1.311.49 1.722c.336.411.798.616 1.386.616s1.045-.205 1.372-.616c.336-.42.504-.994.504-1.722 0-.737-.168-1.311-.504-1.722-.327-.42-.784-.63-1.372-.63zm9.304 4.368v-4.578l1.358-.014v4.69c0 .187-.042.341-.126.462-.075.121-.201.233-.378.336-.205.131-.49.252-.854.364-.364.121-.779.182-1.246.182-.7 0-1.316-.121-1.848-.364a2.75 2.75 0 0 1-1.232-1.12c-.289-.513-.434-1.162-.434-1.946 0-.821.145-1.484.434-1.988.299-.513.695-.891 1.19-1.134s1.041-.364 1.638-.364c.364 0 .7.047 1.008.14s.551.21.728.35v1.218c-.159-.168-.373-.308-.644-.42-.261-.121-.569-.182-.924-.182-.373 0-.714.079-1.022.238s-.555.415-.742.77c-.177.345-.266.807-.266 1.386 0 .803.191 1.386.574 1.75s.891.546 1.526.546a2.39 2.39 0 0 0 .742-.098 2.94 2.94 0 0 0 .518-.224zm1.358-4.284l-1.372.014v-3.57c.065-.019.154-.037.266-.056.121-.028.243-.042.364-.042.261 0 .448.047.56.14.121.093.182.257.182.49v3.024zm2.558 3.052l-.056-1.022 4.018-.574c-.028-.448-.187-.821-.476-1.12s-.691-.448-1.204-.448a1.75 1.75 0 0 0-1.344.574c-.346.373-.523.915-.532 1.624l.014.49c.074.681.312 1.195.714 1.54.41.336.952.504 1.624.504.392 0 .751-.061 1.078-.182s.583-.257.77-.406a.91.91 0 0 1 .266.266c.074.103.112.219.112.35 0 .205-.103.392-.308.56-.206.159-.481.285-.826.378s-.738.14-1.176.14c-.719 0-1.349-.131-1.89-.392a2.94 2.94 0 0 1-1.246-1.19c-.299-.523-.448-1.167-.448-1.932 0-.551.079-1.036.238-1.456a3.11 3.11 0 0 1 .686-1.064c.289-.289.625-.509 1.008-.658.392-.149.812-.224 1.26-.224.588 0 1.106.121 1.554.364s.798.583 1.05 1.022.378.938.378 1.498c0 .233-.056.401-.168.504-.103.103-.257.168-.462.196l-4.634.658zm6.711-6.076a.78.78 0 0 1 .238-.574c.159-.159.359-.238.602-.238.252 0 .453.079.602.238a.78.78 0 0 1 .238.574.8.8 0 0 1-.238.588c-.149.149-.35.224-.602.224-.243 0-.443-.075-.602-.224a.8.8 0 0 1-.238-.588zm.154 4.858h1.372v3.668c-.056.019-.14.042-.252.07a1.56 1.56 0 0 1-.378.042c-.243 0-.429-.047-.56-.14-.121-.103-.182-.266-.182-.49v-3.15zm1.372.686h-1.372v-3.486c.056-.019.14-.037.252-.056a1.74 1.74 0 0 1 .392-.042c.252 0 .434.047.546.14.121.093.182.257.182.49v2.954zm7.868-1.288v1.4h-1.372v-1.33c0-.476-.135-.826-.406-1.05s-.63-.336-1.078-.336c-.336 0-.639.042-.91.126-.261.084-.49.182-.686.294v2.296h-1.372v-2.31c0-.205.042-.373.126-.504.094-.14.234-.271.42-.392.262-.159.602-.299 1.022-.42a4.69 4.69 0 0 1 1.4-.196c.896 0 1.596.201 2.1.602s.756 1.008.756 1.82zm-5.824.672h1.372v3.598c-.056.019-.14.042-.252.07s-.233.042-.364.042c-.252 0-.443-.047-.574-.14-.121-.103-.182-.266-.182-.49v-3.08zm4.452 0h1.372v3.598c-.056.019-.144.042-.266.07-.112.028-.233.042-.364.042-.252 0-.438-.047-.56-.14-.121-.103-.182-.266-.182-.49v-3.08zm6.057 3.416a3.72 3.72 0 0 1-1.512-.308c-.457-.215-.826-.56-1.106-1.036-.28-.485-.42-1.12-.42-1.904 0-.719.14-1.321.42-1.806s.668-.849 1.162-1.092 1.069-.364 1.722-.364c.448 0 .859.056 1.232.168.383.112.696.247.938.406.15.103.271.219.364.35a.73.73 0 0 1 .14.462v4.34h-1.358v-4.27c-.149-.093-.331-.173-.546-.238-.205-.075-.457-.112-.756-.112-.578 0-1.05.177-1.414.532-.354.355-.532.891-.532 1.61 0 .793.178 1.353.532 1.68.364.327.808.49 1.33.49.383 0 .691-.065.924-.196a2.53 2.53 0 0 0 .588-.448l.056 1.176c-.149.14-.373.271-.672.392-.298.112-.662.168-1.092.168zm1.596.35v-1.428h1.344v1.498c0 .616-.14 1.115-.42 1.498-.28.392-.658.672-1.134.84-.476.177-1.012.266-1.61.266-.466 0-.872-.051-1.218-.154-.345-.093-.592-.182-.742-.266-.289-.168-.434-.392-.434-.672a.74.74 0 0 1 .098-.378.69.69 0 0 1 .252-.238c.206.149.486.285.84.406.364.121.747.182 1.148.182.598 0 1.06-.126 1.386-.378s.49-.644.49-1.176z"/><path d="M274.255 189.965c.63 0 1.1-.135 1.41-.405.32-.28.48-.63.48-1.05 0-.37-.12-.675-.36-.915s-.62-.435-1.14-.585l-1.17-.345a5.65 5.65 0 0 1-1.185-.54 2.42 2.42 0 0 1-.78-.78c-.18-.32-.27-.7-.27-1.14 0-.79.29-1.41.87-1.86s1.36-.675 2.34-.675c.55 0 1.04.06 1.47.18.43.11.765.26 1.005.45.25.19.375.4.375.63 0 .15-.04.29-.12.42-.08.12-.18.215-.3.285-.24-.19-.57-.355-.99-.495-.41-.14-.86-.21-1.35-.21-.55 0-.985.115-1.305.345-.31.23-.465.54-.465.93 0 .31.11.565.33.765.23.19.59.355 1.08.495l.885.27c.82.24 1.46.575 1.92 1.005.47.43.705 1.02.705 1.77 0 .8-.3 1.45-.9 1.95-.59.5-1.43.75-2.52.75-.61 0-1.145-.07-1.605-.21-.46-.13-.825-.3-1.095-.51-.26-.22-.39-.445-.39-.675a.7.7 0 0 1 .18-.495c.12-.13.255-.23.405-.3.24.22.565.435.975.645.42.2.925.3 1.515.3zm5.106-1.575v-1.29h1.47v1.245c0 .59.155 1.015.465 1.275.32.26.755.39 1.305.39.37 0 .68-.035.93-.105a3.08 3.08 0 0 0 .6-.24V187.1h1.47v2.61c0 .21-.035.385-.105.525-.06.14-.195.27-.405.39-.25.15-.59.285-1.02.405-.42.12-.915.18-1.485.18-.67 0-1.25-.1-1.74-.3a2.34 2.34 0 0 1-1.11-.915c-.25-.42-.375-.955-.375-1.605zm6.24-.54h-1.47v-3.825c.06-.02.15-.04.27-.06.13-.03.265-.045.405-.045.27 0 .47.05.6.15s.195.275.195.525v3.255zm-4.77 0h-1.47v-3.825c.07-.02.165-.04.285-.06.13-.03.265-.045.405-.045.27 0 .465.05.585.15.13.1.195.275.195.525v3.255zm10.15-4.05c.63 0 1.195.135 1.695.405.51.27.91.68 1.2 1.23.29.54.435 1.225.435 2.055 0 .84-.155 1.535-.465 2.085-.3.55-.72.96-1.26 1.23-.53.27-1.155.405-1.875.405a4.61 4.61 0 0 1-1.395-.195c-.41-.13-.745-.275-1.005-.435-.21-.14-.36-.275-.45-.405-.09-.14-.135-.32-.135-.54V184.7h1.47v4.89c.14.1.34.195.6.285.27.09.575.135.915.135.63 0 1.135-.205 1.515-.615.39-.41.585-1.045.585-1.905 0-.87-.195-1.505-.585-1.905-.38-.4-.875-.6-1.485-.6a2.25 2.25 0 0 0-1.02.225c-.29.14-.53.305-.72.495l-.18-1.185c.22-.16.51-.32.87-.48s.79-.24 1.29-.24zm-1.785 1.215h-1.47v-3.75c.07-.02.165-.04.285-.06.13-.03.265-.045.405-.045.27 0 .465.05.585.15.13.1.195.275.195.525v3.18zm12.699 1.14v1.725h-1.47v-1.575c0-.46-.135-.795-.405-1.005-.26-.21-.6-.315-1.02-.315-.29 0-.565.045-.825.135s-.48.195-.66.315v2.445h-1.47v-2.46c0-.22.045-.4.135-.54.1-.15.25-.29.45-.42.29-.18.65-.335 1.08-.465s.87-.195 1.32-.195c.5 0 .95.075 1.35.225s.71.365.93.645l.165.18c.05.05.095.115.135.195a1.76 1.76 0 0 1 .195.495 2.03 2.03 0 0 1 .09.615zm4.38.075v1.65h-1.47v-1.575c0-.46-.13-.795-.39-1.005s-.6-.315-1.02-.315c-.32 0-.63.065-.93.195a2.48 2.48 0 0 0-.78.555l-.66-.99c.28-.25.63-.47 1.05-.66s.91-.285 1.47-.285c.53 0 1 .085 1.41.255a2.03 2.03 0 0 1 .96.795c.24.36.36.82.36 1.38zm-10.23.885h1.47v3.855a3.97 3.97 0 0 1-.27.075c-.12.03-.25.045-.39.045-.27 0-.475-.05-.615-.15-.13-.11-.195-.285-.195-.525v-3.3zm4.38 0h1.47v3.855c-.06.02-.155.045-.285.075-.12.03-.25.045-.39.045-.27 0-.47-.05-.6-.15-.13-.11-.195-.285-.195-.525v-3.3zm4.38 0h1.47v3.855l-.3.075a1.54 1.54 0 0 1-.375.045c-.28 0-.485-.05-.615-.15-.12-.11-.18-.285-.18-.525v-3.3zm3.484-5.28a.84.84 0 0 1 .255-.615c.17-.17.385-.255.645-.255.27 0 .485.085.645.255a.84.84 0 0 1 .255.615c0 .25-.085.46-.255.63-.16.16-.375.24-.645.24-.26 0-.475-.08-.645-.24-.17-.17-.255-.38-.255-.63zm.165 5.205h1.47v3.93a3.97 3.97 0 0 1-.27.075c-.12.03-.255.045-.405.045-.26 0-.46-.05-.6-.15-.13-.11-.195-.285-.195-.525v-3.375zm1.47.735h-1.47v-3.735c.06-.02.15-.04.27-.06.13-.03.27-.045.42-.045.27 0 .465.05.585.15.13.1.195.275.195.525v3.165zm2.22-.735h1.455v1.95c0 .37.11.635.33.795.22.15.52.225.9.225a2.25 2.25 0 0 0 .54-.075 3.22 3.22 0 0 0 .51-.195c.06.07.115.155.165.255.06.1.09.215.09.345 0 .25-.135.455-.405.615-.26.16-.645.24-1.155.24-.74 0-1.33-.16-1.77-.48-.44-.33-.66-.875-.66-1.635v-2.04zm.81-1.71v-1.185h3.015c.03.06.06.145.09.255a.88.88 0 0 1 .06.33c0 .2-.05.35-.15.45-.09.1-.215.15-.375.15h-2.64zm.645 2.145h-1.455v-5.43c.06-.02.15-.04.27-.06.13-.03.265-.045.405-.045.27 0 .465.05.585.15.13.1.195.275.195.525v4.86zm8.403-1.875v-1.17h3.105c.04.05.075.125.105.225.04.1.06.215.06.345 0 .2-.05.35-.15.45-.09.1-.225.15-.405.15h-2.715zm.24-2.025v1.83h-1.44V183.5c0-.6.115-1.09.345-1.47a2.14 2.14 0 0 1 .99-.84c.43-.18.93-.27 1.5-.27.6 0 1.065.08 1.395.24s.495.375.495.645a.86.86 0 0 1-.075.36c-.05.1-.12.19-.21.27-.18-.09-.4-.165-.66-.225-.25-.06-.505-.09-.765-.09-.57 0-.975.115-1.215.345s-.36.6-.36 1.11zm-1.44 1.23h1.47v6.165a3.97 3.97 0 0 1-.27.075c-.12.03-.25.045-.39.045-.27 0-.475-.05-.615-.15-.13-.11-.195-.285-.195-.525v-5.61zm12.284 2.7c0 .75-.145 1.405-.435 1.965-.29.55-.7.98-1.23 1.29-.52.3-1.135.45-1.845.45s-1.33-.15-1.86-.45c-.53-.31-.94-.74-1.23-1.29-.29-.56-.435-1.215-.435-1.965 0-.76.145-1.415.435-1.965a3.16 3.16 0 0 1 1.245-1.29c.53-.3 1.145-.45 1.845-.45s1.31.155 1.83.465c.53.3.94.725 1.23 1.275.3.55.45 1.205.45 1.965zm-3.51-2.52c-.62 0-1.11.225-1.47.675-.36.44-.54 1.055-.54 1.845s.175 1.405.525 1.845c.36.44.855.66 1.485.66s1.12-.22 1.47-.66c.36-.45.54-1.065.54-1.845 0-.79-.18-1.405-.54-1.845-.35-.45-.84-.675-1.47-.675zm6.714.48v2.235h-1.47v-2.25c0-.24.05-.435.15-.585s.255-.295.465-.435c.28-.18.645-.33 1.095-.45a5.93 5.93 0 0 1 1.5-.18c.86 0 1.29.235 1.29.705a.88.88 0 0 1-.06.33.69.69 0 0 1-.135.255l-.39-.06c-.15-.02-.305-.03-.465-.03-.42 0-.8.045-1.14.135-.33.09-.61.2-.84.33zm-1.47 1.575l1.47.15v3.78a3.97 3.97 0 0 1-.27.075c-.12.03-.25.045-.39.045-.27 0-.475-.05-.615-.15-.13-.11-.195-.285-.195-.525v-3.375zm-50.446 17.4h1.53c.67 0 1.2-.145 1.59-.435.39-.3.585-.74.585-1.32 0-.57-.2-1-.6-1.29-.4-.3-.98-.45-1.74-.45l-.72.03a5.28 5.28 0 0 0-.645.09v3.375zm1.575 1.215h-3.075v-5.07c0-.17.045-.3.135-.39.1-.09.23-.165.39-.225.3-.09.665-.155 1.095-.195a11.03 11.03 0 0 1 1.275-.075c1.28 0 2.235.265 2.865.795.64.52.96 1.245.96 2.175 0 .6-.145 1.125-.435 1.575-.28.44-.69.785-1.23 1.035s-1.2.375-1.98.375zm-.09-.435l1.2-.45.825 1.05.825 1.065.72.915.495.66a.81.81 0 0 1-.33.48c-.16.12-.325.18-.495.18-.23 0-.41-.055-.54-.165s-.265-.26-.405-.45l-2.295-3.285zm-2.985-.03h1.515v3.78l-.3.075c-.12.03-.255.045-.405.045-.28 0-.485-.055-.615-.165s-.195-.29-.195-.54v-3.195zm9.12 1.155l-.06-1.095 4.305-.615c-.03-.48-.2-.88-.51-1.2s-.74-.48-1.29-.48c-.58 0-1.06.205-1.44.615-.37.4-.56.98-.57 1.74l.015.525c.08.73.335 1.28.765 1.65.44.36 1.02.54 1.74.54.42 0 .805-.065 1.155-.195s.625-.275.825-.435c.12.08.215.175.285.285a.62.62 0 0 1 .12.375c0 .22-.11.42-.33.6-.22.17-.515.305-.885.405s-.79.15-1.26.15c-.77 0-1.445-.14-2.025-.42-.57-.29-1.015-.715-1.335-1.275s-.48-1.25-.48-2.07c0-.59.085-1.11.255-1.56.18-.45.425-.83.735-1.14a3.11 3.11 0 0 1 1.08-.705 3.76 3.76 0 0 1 1.35-.24c.63 0 1.185.13 1.665.39a2.82 2.82 0 0 1 1.125 1.095c.27.47.405 1.005.405 1.605 0 .25-.06.43-.18.54-.11.11-.275.18-.495.21l-4.965.705zm12.533-4.485c.21 0 .38.05.51.15s.195.255.195.465c0 .15-.055.41-.165.78l-.42 1.29-.585 1.56-.645 1.545-.585 1.26c-.07.05-.185.095-.345.135a1.92 1.92 0 0 1-.495.06c-.21 0-.4-.035-.57-.105a.57.57 0 0 1-.33-.27l-.42-.885-.555-1.305-.585-1.515-.555-1.515-.39-1.275a.89.89 0 0 1 .33-.27c.15-.07.3-.105.45-.105.22 0 .39.05.51.15.13.1.23.275.3.525l.87 2.61.285.855.345.96.285.78h.075l1.005-2.88.84-2.85c.18-.1.395-.15.645-.15zm2.173-2.025a.84.84 0 0 1 .255-.615c.17-.17.385-.255.645-.255.27 0 .485.085.645.255a.84.84 0 0 1 .255.615c0 .25-.085.46-.255.63-.16.16-.375.24-.645.24-.26 0-.475-.08-.645-.24-.17-.17-.255-.38-.255-.63zm.165 5.205h1.47v3.93a3.97 3.97 0 0 1-.27.075c-.12.03-.255.045-.405.045-.26 0-.46-.05-.6-.15-.13-.11-.195-.285-.195-.525v-3.375zm1.47.735h-1.47v-3.735c.06-.02.15-.04.27-.06.13-.03.27-.045.42-.045.27 0 .465.05.585.15.13.1.195.275.195.525v3.165zm2.79.57l-.06-1.095 4.305-.615c-.03-.48-.2-.88-.51-1.2s-.74-.48-1.29-.48c-.58 0-1.06.205-1.44.615-.37.4-.56.98-.57 1.74l.015.525c.08.73.335 1.28.765 1.65.44.36 1.02.54 1.74.54.42 0 .805-.065 1.155-.195s.625-.275.825-.435c.12.08.215.175.285.285a.62.62 0 0 1 .12.375c0 .22-.11.42-.33.6-.22.17-.515.305-.885.405s-.79.15-1.26.15c-.77 0-1.445-.14-2.025-.42-.57-.29-1.015-.715-1.335-1.275s-.48-1.25-.48-2.07c0-.59.085-1.11.255-1.56.18-.45.425-.83.735-1.14a3.11 3.11 0 0 1 1.08-.705 3.76 3.76 0 0 1 1.35-.24c.63 0 1.185.13 1.665.39a2.82 2.82 0 0 1 1.125 1.095c.27.47.405 1.005.405 1.605 0 .25-.06.43-.18.54-.11.11-.275.18-.495.21l-4.965.705zm11.738-2.295l-.54 1.815-.555 1.695-.48 1.335c-.09.06-.2.11-.33.15s-.295.06-.495.06c-.21 0-.4-.035-.57-.105-.16-.07-.27-.17-.33-.3-.1-.2-.215-.49-.345-.87l-.375-1.29-.405-1.515-.36-1.53-.27-1.305c.08-.08.185-.155.315-.225s.285-.105.465-.105c.22 0 .39.06.51.18.12.11.205.295.255.555l.285 1.53.33 1.5.3 1.26.195.81h.06l.345-1.14.57-1.8.66-2.07c.1-.06.215-.105.345-.135.13-.04.275-.06.435-.06.21 0 .385.04.525.12.15.07.25.18.3.33l.615 1.965.525 1.71.33 1.095h.075l.66-2.775.585-2.91c.18-.11.395-.165.645-.165.2 0 .365.05.495.15.13.09.195.24.195.45 0 .12-.035.335-.105.645l-.255 1.095-.345 1.32-.39 1.365-.375 1.185-.3.825c-.07.05-.18.095-.33.135a1.61 1.61 0 0 1-.51.075c-.49 0-.78-.12-.87-.36l-.45-1.26-.525-1.65-.51-1.785z"/><path d="M266.875 78.624v-5.6c0-.181.048-.32.144-.416.107-.096.246-.176.416-.24.32-.096.704-.165 1.152-.208.459-.053.896-.08 1.312-.08 1.376 0 2.39.293 3.04.88.662.576.992 1.36.992 2.352 0 .672-.149 1.259-.448 1.76-.288.491-.725.875-1.312 1.152-.586.267-1.322.4-2.208.4h-3.088zm.864 3.472c-.298 0-.517-.059-.656-.176s-.208-.309-.208-.576v-3.472h1.616v4.096l-.32.08c-.128.032-.272.048-.432.048zm.736-4.784h1.392c.768 0 1.366-.165 1.792-.496.438-.331.656-.827.656-1.488s-.208-1.147-.624-1.456-1.008-.464-1.776-.464l-.768.032-.672.08v3.792zm8.557-1.216v2.384h-1.568v-2.4c0-.256.053-.464.16-.624s.272-.315.496-.464c.298-.192.688-.352 1.168-.48.49-.128 1.024-.192 1.6-.192.917 0 1.376.251 1.376.752 0 .128-.022.245-.064.352-.032.107-.08.197-.144.272l-.416-.064c-.16-.021-.326-.032-.496-.032a4.75 4.75 0 0 0-1.216.144c-.352.096-.651.213-.896.352zm-1.568 1.68l1.568.16v4.032c-.064.021-.16.048-.288.08s-.267.048-.416.048c-.288 0-.507-.053-.656-.16-.139-.117-.208-.304-.208-.56v-3.6zm13.119.496c0 .8-.154 1.499-.464 2.096a3.39 3.39 0 0 1-1.312 1.376c-.554.32-1.21.48-1.968.48s-1.418-.16-1.984-.48c-.565-.331-1.002-.789-1.312-1.376-.309-.597-.464-1.296-.464-2.096 0-.811.155-1.509.464-2.096.32-.597.763-1.056 1.328-1.376s1.222-.48 1.968-.48 1.398.165 1.952.496c.566.32 1.003.773 1.312 1.36.32.587.48 1.285.48 2.096zm-3.744-2.688c-.661 0-1.184.24-1.568.72-.384.469-.576 1.125-.576 1.968s.187 1.499.56 1.968c.384.469.912.704 1.584.704s1.195-.235 1.568-.704c.384-.48.576-1.136.576-1.968 0-.843-.192-1.499-.576-1.968-.373-.48-.896-.72-1.568-.72zm4.522 8.608a3.45 3.45 0 0 0 .656-.384c.181-.128.32-.304.416-.528s.144-.528.144-.912v-4.992h1.568v5.232c0 .629-.107 1.125-.32 1.488-.214.373-.47.635-.768.784-.288.16-.555.24-.8.24-.299 0-.518-.091-.656-.272s-.219-.4-.24-.656zm1.007-11.968a.89.89 0 0 1 .273-.656c.192-.181.426-.272.704-.272a.88.88 0 0 1 .672.272c.181.181.272.4.272.656 0 .267-.091.491-.272.672-.171.171-.395.256-.672.256a1.02 1.02 0 0 1-.704-.256.91.91 0 0 1-.273-.672zm1.777 6.48l-1.568-.144v-3.984a2.04 2.04 0 0 1 .288-.064c.138-.032.282-.048.432-.048.288 0 .501.053.64.16s.208.293.208.56v3.52zm2.959.464L295.04 78l4.592-.656c-.032-.512-.214-.939-.544-1.28s-.79-.512-1.376-.512c-.619 0-1.131.219-1.536.656-.395.427-.598 1.045-.608 1.856l.016.56c.085.779.357 1.365.816 1.76.469.384 1.088.576 1.856.576.448 0 .858-.069 1.232-.208s.666-.293.88-.464c.128.085.229.187.304.304.085.117.128.251.128.4 0 .235-.118.448-.352.64-.235.181-.55.325-.944.432s-.843.16-1.344.16c-.822 0-1.542-.149-2.16-.448-.608-.309-1.083-.763-1.424-1.36s-.512-1.333-.512-2.208c0-.629.09-1.184.272-1.664.192-.48.453-.885.784-1.216s.714-.581 1.152-.752a4.01 4.01 0 0 1 1.44-.256c.672 0 1.264.139 1.776.416a3.01 3.01 0 0 1 1.2 1.168c.288.501.432 1.072.432 1.712 0 .267-.064.459-.192.576-.118.117-.294.192-.528.224l-5.296.752zm11.382-3.568c-.683 0-1.259.235-1.728.704-.459.459-.688 1.12-.688 1.984 0 .853.224 1.509.672 1.968s1.029.688 1.744.688c.427 0 .784-.059 1.072-.176s.544-.245.768-.384a.88.88 0 0 1 .304.288c.085.107.128.24.128.4 0 .331-.219.603-.656.816s-.997.32-1.68.32c-.768 0-1.451-.144-2.048-.432a3.24 3.24 0 0 1-1.408-1.296c-.331-.587-.496-1.317-.496-2.192 0-.885.176-1.621.528-2.208s.827-1.024 1.424-1.312c.597-.299 1.248-.448 1.952-.448.683 0 1.237.117 1.664.352.437.235.656.512.656.832a.64.64 0 0 1-.128.384.84.84 0 0 1-.288.256c-.224-.139-.475-.261-.752-.368-.277-.117-.624-.176-1.04-.176zm4.104 2.176h1.552v2.08c0 .395.117.677.352.848.234.16.554.24.96.24a2.41 2.41 0 0 0 .576-.08 3.47 3.47 0 0 0 .544-.208 1.36 1.36 0 0 1 .176.272.7.7 0 0 1 .096.368c0 .267-.144.485-.432.656-.278.171-.688.256-1.232.256-.79 0-1.419-.171-1.888-.512-.47-.352-.704-.933-.704-1.744v-2.176zm.864-1.824v-1.264h3.216a1.54 1.54 0 0 1 .096.272c.042.107.064.224.064.352 0 .213-.054.373-.16.48-.096.107-.23.16-.4.16h-2.816zm.688 2.288h-1.552v-5.792a2.04 2.04 0 0 1 .288-.064c.138-.032.282-.048.432-.048.288 0 .496.053.624.16.138.107.208.293.208.56v5.184zm-46.41 14.184a.72.72 0 0 1-.16.448c-.096.128-.208.224-.336.288-.267-.192-.587-.368-.96-.528-.363-.16-.827-.24-1.392-.24-.629 0-1.189.144-1.68.432-.491.277-.88.699-1.168 1.264-.277.555-.416 1.243-.416 2.064 0 1.237.304 2.171.912 2.8.619.629 1.424.944 2.416.944.533 0 .997-.075 1.392-.224.395-.16.725-.336.992-.528.128.064.24.165.336.304.096.128.144.277.144.448a.78.78 0 0 1-.112.4c-.075.117-.197.224-.368.32-.235.16-.56.299-.976.416-.405.128-.923.192-1.552.192-.907 0-1.728-.187-2.464-.56-.725-.373-1.301-.933-1.728-1.68-.427-.757-.64-1.701-.64-2.832 0-1.12.219-2.059.656-2.816s1.013-1.328 1.728-1.712c.725-.384 1.515-.576 2.368-.576.597 0 1.12.069 1.568.208.459.128.811.299 1.056.512.256.203.384.421.384.656zm8.648 4.848c0 .8-.154 1.499-.464 2.096a3.39 3.39 0 0 1-1.312 1.376c-.554.32-1.21.48-1.968.48s-1.418-.16-1.984-.48c-.565-.331-1.002-.789-1.312-1.376-.309-.597-.464-1.296-.464-2.096 0-.811.155-1.509.464-2.096.32-.597.763-1.056 1.328-1.376s1.222-.48 1.968-.48 1.398.165 1.952.496c.566.32 1.003.773 1.312 1.36.32.587.48 1.285.48 2.096zm-3.744-2.688c-.661 0-1.184.24-1.568.72-.384.469-.576 1.125-.576 1.968s.187 1.499.56 1.968c.384.469.912.704 1.584.704s1.195-.235 1.568-.704c.384-.48.576-1.136.576-1.968 0-.843-.192-1.499-.576-1.968-.373-.48-.896-.72-1.568-.72zm11.833 1.248v1.84h-1.568v-1.68c0-.491-.144-.848-.432-1.072-.277-.224-.64-.336-1.088-.336-.309 0-.602.048-.88.144s-.512.208-.704.336v2.608h-1.568v-2.624c0-.235.048-.427.144-.576.107-.16.267-.309.48-.448.31-.192.694-.357 1.152-.496a4.84 4.84 0 0 1 1.408-.208c.534 0 1.014.08 1.44.24s.758.389.992.688l.176.192c.054.053.102.123.144.208a1.85 1.85 0 0 1 .208.528c.064.203.096.421.096.656zm4.672.08v1.76h-1.568v-1.68c0-.491-.138-.848-.416-1.072s-.64-.336-1.088-.336a2.47 2.47 0 0 0-.992.208c-.309.139-.586.336-.832.592l-.704-1.056c.299-.267.672-.501 1.12-.704s.971-.304 1.568-.304c.566 0 1.067.091 1.504.272s.779.464 1.024.848c.256.384.384.875.384 1.472zm-10.912.944h1.568v4.112l-.288.08a1.71 1.71 0 0 1-.416.048c-.288 0-.506-.053-.656-.16-.138-.117-.208-.304-.208-.56v-3.52zm4.672 0h1.568v4.112c-.064.021-.165.048-.304.08a1.71 1.71 0 0 1-.416.048c-.288 0-.501-.053-.64-.16-.138-.117-.208-.304-.208-.56v-3.52zm4.672 0h1.568v4.112l-.32.08a1.64 1.64 0 0 1-.4.048c-.298 0-.517-.053-.656-.16-.128-.117-.192-.304-.192-.56v-3.52zm7.141 4.352a3.87 3.87 0 0 1-1.232-.192c-.374-.117-.662-.251-.864-.4v-1.408c.213.192.469.363.768.512.309.149.677.224 1.104.224.704 0 1.264-.213 1.68-.64.426-.437.64-1.125.64-2.064 0-.651-.107-1.168-.32-1.552-.203-.384-.48-.661-.832-.832a2.42 2.42 0 0 0-1.152-.272c-.342 0-.64.043-.896.128-.246.085-.464.181-.656.288v5.216h-1.568v-5.264c0-.235.042-.421.128-.56s.245-.277.48-.416c.298-.171.656-.32 1.072-.448a4.64 4.64 0 0 1 1.44-.208c.736 0 1.397.139 1.984.416A3.07 3.07 0 0 1 295.882 95c.341.576.512 1.323.512 2.24 0 .885-.155 1.621-.464 2.208s-.747 1.029-1.312 1.328c-.555.288-1.19.432-1.904.432zm-2.464 2.784c-.288 0-.507-.059-.656-.176-.139-.107-.208-.293-.208-.56v-3.552l1.568.032v4.144a2.04 2.04 0 0 1-.288.064c-.128.032-.267.048-.416.048zm8.123-7.216l1.568.16v4.032c-.064.021-.165.048-.304.08-.128.032-.267.048-.416.048-.288 0-.501-.053-.64-.16-.139-.117-.208-.304-.208-.56v-3.6zm1.568.928l-1.568-.144v-6.944a2.04 2.04 0 0 1 .288-.064 1.92 1.92 0 0 1 .432-.048c.288 0 .501.053.64.16s.208.293.208.56v6.48zm3.007.464L302.884 97l4.592-.656c-.032-.512-.214-.939-.544-1.28s-.79-.512-1.376-.512c-.619 0-1.131.219-1.536.656-.395.427-.598 1.045-.608 1.856l.016.56c.085.779.357 1.365.816 1.76.469.384 1.088.576 1.856.576.448 0 .858-.069 1.232-.208s.666-.293.88-.464c.128.085.229.187.304.304.085.117.128.251.128.4 0 .235-.118.448-.352.64-.235.181-.55.325-.944.432a5.15 5.15 0 0 1-1.344.16c-.822 0-1.542-.149-2.16-.448-.608-.309-1.083-.763-1.424-1.36s-.512-1.333-.512-2.208c0-.629.09-1.184.272-1.664.192-.48.453-.885.784-1.216s.714-.581 1.152-.752a4.01 4.01 0 0 1 1.44-.256c.672 0 1.264.139 1.776.416a3.01 3.01 0 0 1 1.2 1.168c.288.501.432 1.072.432 1.712 0 .267-.064.459-.192.576-.118.117-.294.192-.528.224l-5.296.752zm7.798-1.392h1.552v2.08c0 .395.117.677.352.848.234.16.554.24.96.24a2.41 2.41 0 0 0 .576-.08 3.47 3.47 0 0 0 .544-.208 1.36 1.36 0 0 1 .176.272.7.7 0 0 1 .096.368c0 .267-.144.485-.432.656-.278.171-.688.256-1.232.256-.79 0-1.419-.171-1.888-.512-.47-.352-.704-.933-.704-1.744v-2.176zm.864-1.824v-1.264h3.216a1.54 1.54 0 0 1 .096.272c.042.107.064.224.064.352 0 .213-.054.373-.16.48-.096.107-.23.16-.4.16h-2.816zm.688 2.288h-1.552v-5.792a2.04 2.04 0 0 1 .288-.064c.138-.032.282-.048.432-.048.288 0 .496.053.624.16.138.107.208.293.208.56v5.184zm4.884.928L317.118 97l4.592-.656c-.032-.512-.213-.939-.544-1.28s-.789-.512-1.376-.512c-.619 0-1.131.219-1.536.656-.395.427-.597 1.045-.608 1.856l.016.56c.085.779.357 1.365.816 1.76.469.384 1.088.576 1.856.576a3.51 3.51 0 0 0 1.232-.208c.373-.139.667-.293.88-.464.128.085.229.187.304.304.085.117.128.251.128.4 0 .235-.117.448-.352.64-.235.181-.549.325-.944.432a5.15 5.15 0 0 1-1.344.16c-.821 0-1.541-.149-2.16-.448-.608-.309-1.083-.763-1.424-1.36s-.512-1.333-.512-2.208c0-.629.091-1.184.272-1.664.192-.48.453-.885.784-1.216s.715-.581 1.152-.752a4.01 4.01 0 0 1 1.44-.256c.672 0 1.264.139 1.776.416a3.01 3.01 0 0 1 1.2 1.168c.288.501.432 1.072.432 1.712 0 .267-.064.459-.192.576-.117.117-.293.192-.528.224l-5.296.752z"/></g><defs><filter id="A" x="5.006" y="79.357" width="354.315" height="257.158" filterUnits="userSpaceOnUse" class="B"><feFlood class="C"/><feBlend in="SourceGraphic"/><feGaussianBlur stdDeviation="40"/></filter><filter id="B" x="13.162" y=".516" width="141.333" height="142.437" filterUnits="userSpaceOnUse" class="B"><feFlood result="A" class="C"/><feColorMatrix in="SourceAlpha" values="0 0 0 0 0 0 0 0 0 0 0 0 0 0 0 0 0 0 127 0" result="B"/><feOffset dx="6" dy="6"/><feGaussianBlur stdDeviation="6"/><feComposite in2="B" operator="out"/><feColorMatrix values="0 0 0 0 0.0891666 0 0 0 0 0 0 0 0 0 0.445833 0 0 0 0.15 0"/><feBlend in2="A" result="C"/><feColorMatrix in="SourceAlpha" values="0 0 0 0 0 0 0 0 0 0 0 0 0 0 0 0 0 0 127 0" result="B"/><feOffset dx="-4" dy="-4"/><feGaussianBlur stdDeviation="5"/><feComposite in2="B" operator="out"/><feColorMatrix values="0 0 0 0 1 0 0 0 0 1 0 0 0 0 1 0 0 0 0.7 0"/><feBlend in2="C"/><feBlend in="SourceGraphic"/></filter><filter id="C" x="226.313" y="17.667" width="137.5" height="140.654" filterUnits="userSpaceOnUse" class="B"><feFlood result="A" class="C"/><feColorMatrix in="SourceAlpha" values="0 0 0 0 0 0 0 0 0 0 0 0 0 0 0 0 0 0 127 0" result="B"/><feOffset dx="6" dy="6"/><feGaussianBlur stdDeviation="6"/><feComposite in2="B" operator="out"/><feColorMatrix values="0 0 0 0 0.0891666 0 0 0 0 0 0 0 0 0 0.445833 0 0 0 0.15 0"/><feBlend in2="A" result="C"/><feColorMatrix in="SourceAlpha" values="0 0 0 0 0 0 0 0 0 0 0 0 0 0 0 0 0 0 127 0" result="B"/><feOffset dx="-4" dy="-4"/><feGaussianBlur stdDeviation="5"/><feComposite in2="B" operator="out"/><feColorMatrix values="0 0 0 0 1 0 0 0 0 1 0 0 0 0 1 0 0 0 0.7 0"/><feBlend in2="C"/><feBlend in="SourceGraphic"/></filter><filter id="D" x="236.829" y="142.329" width="130.905" height="136.136" filterUnits="userSpaceOnUse" class="B"><feFlood result="A" class="C"/><feColorMatrix in="SourceAlpha" values="0 0 0 0 0 0 0 0 0 0 0 0 0 0 0 0 0 0 127 0" result="B"/><feOffset dx="6" dy="6"/><feGaussianBlur stdDeviation="6"/><feComposite in2="B" operator="out"/><feColorMatrix values="0 0 0 0 0.0891666 0 0 0 0 0 0 0 0 0 0.445833 0 0 0 0.15 0"/><feBlend in2="A" result="C"/><feColorMatrix in="SourceAlpha" values="0 0 0 0 0 0 0 0 0 0 0 0 0 0 0 0 0 0 127 0" result="B"/><feOffset dx="-4" dy="-4"/><feGaussianBlur stdDeviation="5"/><feComposite in2="B" operator="out"/><feColorMatrix values="0 0 0 0 1 0 0 0 0 1 0 0 0 0 1 0 0 0 0.7 0"/><feBlend in2="C"/><feBlend in="SourceGraphic"/></filter><filter id="E" x="168.088" y="211.026" width="136.136" height="130.944" filterUnits="userSpaceOnUse" class="B"><feFlood result="A" class="C"/><feColorMatrix in="SourceAlpha" values="0 0 0 0 0 0 0 0 0 0 0 0 0 0 0 0 0 0 127 0" result="B"/><feOffset dx="6" dy="6"/><feGaussianBlur stdDeviation="6"/><feComposite in2="B" operator="out"/><feColorMatrix values="0 0 0 0 0.0891666 0 0 0 0 0 0 0 0 0 0.445833 0 0 0 0.15 0"/><feBlend in2="A" result="C"/><feColorMatrix in="SourceAlpha" values="0 0 0 0 0 0 0 0 0 0 0 0 0 0 0 0 0 0 127 0" result="B"/><feOffset dx="-4" dy="-4"/><feGaussianBlur stdDeviation="5"/><feComposite in2="B" operator="out"/><feColorMatrix values="0 0 0 0 1 0 0 0 0 1 0 0 0 0 1 0 0 0 0.7 0"/><feBlend in2="C"/><feBlend in="SourceGraphic"/></filter><filter id="F" x="43.429" y="200.577" width="140.673" height="137.461" filterUnits="userSpaceOnUse" class="B"><feFlood result="A" class="C"/><feColorMatrix in="SourceAlpha" values="0 0 0 0 0 0 0 0 0 0 0 0 0 0 0 0 0 0 127 0" result="B"/><feOffset dx="6" dy="6"/><feGaussianBlur stdDeviation="6"/><feComposite in2="B" operator="out"/><feColorMatrix values="0 0 0 0 0.0891666 0 0 0 0 0 0 0 0 0 0.445833 0 0 0 0.15 0"/><feBlend in2="A" result="C"/><feColorMatrix in="SourceAlpha" values="0 0 0 0 0 0 0 0 0 0 0 0 0 0 0 0 0 0 127 0" result="B"/><feOffset dx="-4" dy="-4"/><feGaussianBlur stdDeviation="5"/><feComposite in2="B" operator="out"/><feColorMatrix values="0 0 0 0 1 0 0 0 0 1 0 0 0 0 1 0 0 0 0.7 0"/><feBlend in2="C"/><feBlend in="SourceGraphic"/></filter><filter id="G" x=".73" y="114.823" width="122.663" height="140.074" filterUnits="userSpaceOnUse" class="B"><feFlood result="A" class="C"/><feColorMatrix in="SourceAlpha" values="0 0 0 0 0 0 0 0 0 0 0 0 0 0 0 0 0 0 127 0" result="B"/><feOffset dx="6" dy="6"/><feGaussianBlur stdDeviation="6"/><feComposite in2="B" operator="out"/><feColorMatrix values="0 0 0 0 0.0891666 0 0 0 0 0 0 0 0 0 0.445833 0 0 0 0.15 0"/><feBlend in2="A" result="C"/><feColorMatrix in="SourceAlpha" values="0 0 0 0 0 0 0 0 0 0 0 0 0 0 0 0 0 0 127 0" result="B"/><feOffset dx="-4" dy="-4"/><feGaussianBlur stdDeviation="5"/><feComposite in2="B" operator="out"/><feColorMatrix values="0 0 0 0 1 0 0 0 0 1 0 0 0 0 1 0 0 0 0.7 0"/><feBlend in2="C"/><feBlend in="SourceGraphic"/></filter><filter id="H" x="105.585" y="80.042" width="157.158" height="157.158" filterUnits="userSpaceOnUse" class="B"><feFlood result="A" class="C"/><feColorMatrix in="SourceAlpha" values="0 0 0 0 0 0 0 0 0 0 0 0 0 0 0 0 0 0 127 0" result="B"/><feOffset dx="6" dy="6"/><feGaussianBlur stdDeviation="6"/><feComposite in2="B" operator="out"/><feColorMatrix values="0 0 0 0 0.0891666 0 0 0 0 0 0 0 0 0 0.445833 0 0 0 0.15 0"/><feBlend in2="A" result="C"/><feColorMatrix in="SourceAlpha" values="0 0 0 0 0 0 0 0 0 0 0 0 0 0 0 0 0 0 127 0" result="B"/><feOffset dx="-4" dy="-4"/><feGaussianBlur stdDeviation="5"/><feComposite in2="B" operator="out"/><feColorMatrix values="0 0 0 0 1 0 0 0 0 1 0 0 0 0 1 0 0 0 0.7 0"/><feBlend in2="C"/><feBlend in="SourceGraphic"/></filter><linearGradient id="I" x1="85.006" y1="183.989" x2="279.322" y2="183.989" xlink:href="#W"><stop stop-color="#cc2b5e"/><stop offset="1" stop-color="#753a88"/></linearGradient><linearGradient id="J" x1="121.762" y1="34.278" x2="51.394" y2="118.139" xlink:href="#W"><stop stop-color="#ff6a6a"/><stop offset="1" stop-color="#ff7e00"/></linearGradient><linearGradient id="K" x1="81" y1="39" x2="103" y2="39" xlink:href="#W"><stop stop-color="#ff6a6a"/><stop offset="1" stop-color="#ff7e00"/></linearGradient><linearGradient id="L" x1="317.591" y1="141.427" x2="262.854" y2="46.62" xlink:href="#W"><stop stop-color="#ff6a6a"/><stop offset="1" stop-color="#ff7e00"/></linearGradient><linearGradient id="M" x1="315" y1="117.345" x2="337" y2="117.345" xlink:href="#W"><stop stop-color="#ff6a6a"/><stop offset="1" stop-color="#ff7e00"/></linearGradient><linearGradient id="N" x1="280.681" y1="250.511" x2="318.123" y2="147.64" xlink:href="#W"><stop stop-color="#ff6a6a"/><stop offset="1" stop-color="#ff7e00"/></linearGradient><linearGradient id="O" x1="173.399" y1="292.359" x2="276.27" y2="254.917" xlink:href="#W"><stop stop-color="#ff6a6a"/><stop offset="1" stop-color="#ff7e00"/></linearGradient><linearGradient id="P" x1="296" y1="232" x2="316" y2="232" xlink:href="#W"><stop stop-color="#ff6a6a"/><stop offset="1" stop-color="#ff7e00"/></linearGradient><linearGradient id="Q" x1="188" y1="306.138" x2="210" y2="306.138" xlink:href="#W"><stop stop-color="#ff6a6a"/><stop offset="1" stop-color="#ff7e00"/></linearGradient><linearGradient id="R" x1="72.382" y1="237.079" x2="167.189" y2="291.815" xlink:href="#W"><stop stop-color="#ff6a6a"/><stop offset="1" stop-color="#ff7e00"/></linearGradient><linearGradient id="S" x1="72" y1="267.526" x2="92" y2="267.526" xlink:href="#W"><stop stop-color="#ff6a6a"/><stop offset="1" stop-color="#ff7e00"/></linearGradient><linearGradient id="T" x1="49.791" y1="124.167" x2="68.801" y2="231.977" xlink:href="#W"><stop stop-color="#ff6a6a"/><stop offset="1" stop-color="#ff7e00"/></linearGradient><linearGradient id="U" x1="120.585" y1="156.62" x2="243.743" y2="156.62" xlink:href="#W"><stop stop-color="#ff6a6a"/><stop offset="1" stop-color="#ff7e00"/></linearGradient><linearGradient id="V" x1="22" y1="151" x2="44" y2="151" xlink:href="#W"><stop stop-color="#ff6a6a"/><stop offset="1" stop-color="#ff7e00"/></linearGradient><linearGradient id="W" gradientUnits="userSpaceOnUse"/></defs></svg>