<svg xmlns="http://www.w3.org/2000/svg" xmlns:xlink="http://www.w3.org/1999/xlink" width="1557" height="1303" fill="none" xmlns:v="https://vecta.io/nano"><style><![CDATA[.B{color-interpolation-filters:sRGB}.C{flood-opacity:0}.D{fill:#fff}.E{fill-rule:evenodd}.F{fill:#4d4d4d}]]></style><g opacity=".5" filter="url(#A)"><path d="M1069.55 458.49c10.95 45.246 11.46 92.391 1.49 137.862-9.98 45.472-30.17 88.075-59.06 124.58a306.65 306.65 0 0 1-107.667 86.116c-41.961 20.16-87.961 30.502-134.512 30.242a306.64 306.64 0 0 1-240.865-119.055c-28.478-36.826-48.198-79.652-57.664-125.232a306.65 306.65 0 0 1 3.028-137.837l82.632 20.985a221.39 221.39 0 0 0 39.445 189.93 221.4 221.4 0 0 0 77.035 63.038c30.13 14.893 63.255 22.73 96.865 22.918s66.82-7.279 97.115-21.835 56.877-35.817 77.733-62.173 35.438-57.115 42.639-89.944 6.834-66.867-1.074-99.533l82.86-20.062z" fill="url(#I)"/></g><g filter="url(#B)"><path d="M684.888 831.54c-25.19-7.385-48.813-17.32-70.689-29.478-13.22-7.159-29.364-3.411-38.316 8.462L444.147 990.2c-10.372 13.92-6.652 33.89 8.215 42.89 46.822 28.78 98.01 51.99 153.429 68.24 55.167 16.17 111.038 24.35 165.985 25.41 17.377.44 31.29-14.35 30.075-31.67l-13.866-222.361c-.871-14.754-12.615-26.951-27.681-27.812-25.23-1.652-50.477-6.045-75.416-13.357z" class="D"/><path d="M615.162 800.308l.009.006c21.746 12.086 45.231 21.963 70.28 29.307 24.793 7.269 49.893 11.636 74.975 13.28 16.106.924 28.626 13.955 29.556 29.69l13.864 222.339c1.292 18.48-13.541 34.28-32.111 33.81-55.118-1.07-111.165-9.27-166.506-25.49-55.594-16.3-106.943-39.59-153.911-68.45-15.884-9.63-19.837-30.94-8.779-45.789l131.739-179.68.008-.011c9.534-12.646 26.756-16.657 40.866-9.017l.01.005zM444.148 990.2c-10.373 13.92-6.652 33.89 8.214 42.89 46.823 28.78 98.011 51.99 153.43 68.24 55.167 16.17 111.038 24.35 165.984 25.41 17.377.44 31.29-14.35 30.075-31.67l-13.865-222.361c-.872-14.754-12.615-26.951-27.682-27.812-25.23-1.652-50.477-6.045-75.416-13.357-25.19-7.385-48.812-17.32-70.688-29.478-13.221-7.159-29.365-3.412-38.317 8.462L444.148 990.2z" fill="url(#J)" class="E"/><path d="M427.8 620.484l-213.684 62.641c-16.766 4.932-25.653 23.117-19.491 39.422 36.984 95.919 97.041 182.189 175.289 250.267 13.046 11.484 33.399 9.244 43.593-5.001l131.735-179.675c9.027-12.126 7.412-29.013-3.515-39.329-33.315-31.925-59.953-69.826-78.27-111.853-5.893-13.491-21.277-20.736-35.657-16.472z" class="D"/><path d="M214.115 683.125L427.8 620.484c14.38-4.264 29.764 2.982 35.657 16.472 18.316 42.027 44.955 79.928 78.27 111.854 10.927 10.316 12.542 27.202 3.515 39.328L413.507 967.814c-10.194 14.245-30.547 16.485-43.593 5-78.248-68.077-138.305-154.347-175.29-250.267-6.162-16.305 2.726-34.489 19.491-39.422zm154.481 291.194c-78.494-68.293-138.737-154.833-175.838-251.052l-.005-.013c-6.567-17.379 2.901-36.782 20.798-42.048l213.68-62.639c15.349-4.55 31.761 3.173 38.058 17.589l.001.001c18.208 41.777 44.69 79.458 77.815 111.203 11.647 11.001 13.38 29.016 3.748 41.964L415.134 968.978c-10.896 15.211-32.609 17.598-46.538 5.341z" fill="url(#K)" class="E"/><path d="M825.286 870.514l13.865 222.366c1.141 17.56 16.885 30.11 33.993 27.74 102.871-14.97 199.746-55.23 282.676-116 13.99-10.395 16.32-30.499 4.88-43.704l-146.04-168.103c-9.8-11.354-26.661-13.561-39.231-5.21-38.035 25.231-80.996 43.001-126.275 51.884-14.441 2.605-24.918 15.947-23.868 31.027z" class="D"/><path d="M839.151 1092.88l-13.865-222.367c-1.05-15.079 9.427-28.421 23.868-31.026 45.279-8.883 88.24-26.653 126.276-51.884 12.57-8.352 29.43-6.144 39.23 5.21l146.04 168.103c11.44 13.205 9.11 33.309-4.88 43.704-82.93 60.77-179.805 101.03-282.676 116-17.108 2.37-32.852-10.18-33.993-27.74zm177.019-301.376l146.04 168.101v.001c12.22 14.095 9.71 35.54-5.2 46.624l-.01.01c-83.18 60.95-180.368 101.34-283.568 116.36h-.014c-18.246 2.53-35.046-10.85-36.263-29.59v-.01l-13.864-222.348c-1.117-16.087 10.048-30.337 25.493-33.131 45.014-8.833 87.724-26.5 125.539-51.584 13.394-8.899 31.377-6.56 41.847 5.567z" fill="url(#L)" class="E"/><path d="M1102.42 637.174c-14.87 33.937-34.85 64.738-58.54 91.439-10.14 11.252-10.44 28.126-.38 39.554l145.96 168.355c11.45 13.204 31.49 13.883 43.91 1.384 58.94-60.137 106.78-132.826 138.4-215.472 6.13-16.256-2.76-34.455-19.38-39.33l-213.62-62.627c-14.86-4.358-30.13 2.929-36.35 16.697z" class="D"/><path d="M1100.59 636.36l.01-.01c6.63-14.662 22.9-22.435 38.74-17.793l213.61 62.628c17.76 5.208 27.23 24.63 20.69 41.955v.008c-31.72 82.911-79.72 155.832-138.84 216.158l-.01.01c-13.24 13.319-34.63 12.604-46.84-1.484L1042 769.488c-10.74-12.21-10.41-30.22.39-42.208 23.55-26.547 43.41-57.169 58.2-90.909v-.011zm-56.71 92.253c-10.14 11.252-10.44 28.126-.38 39.554l145.96 168.355c11.45 13.204 31.49 13.883 43.91 1.384 58.94-60.137 106.78-132.827 138.4-215.472 6.13-16.257-2.76-34.455-19.38-39.33l-213.62-62.627c-14.86-4.358-30.13 2.929-36.35 16.697-14.87 33.937-34.85 64.738-58.54 91.439z" fill="url(#M)" class="E"/><path d="M1133.98 444.039c6.64 36.454 7.29 73.158 2.57 108.542-2.11 14.998 7.07 29.155 21.8 33.01l215.13 58.004c16.88 4.549 33.88-6.092 37.19-23.398 15.25-82.81 14.29-169.828-5.69-256.028-4.01-16.908-21.55-27.029-38.06-21.777l-212.13 67.48c-14.76 4.695-23.35 19.271-20.81 34.167z" class="D"/><path d="M1132.01 444.386v-.012c-2.7-15.863 6.45-31.406 22.17-36.408l212.13-67.48c17.64-5.612 36.35 5.203 40.61 23.222v.009c20.05 86.477 21.01 173.772 5.71 256.842v.014c-3.53 18.441-21.66 29.807-39.67 24.953l-215.12-58c-15.73-4.123-25.52-19.241-23.27-35.217 4.69-35.179 4.04-71.67-2.56-107.912v-.011zm4.54 108.195c-2.11 14.998 7.07 29.154 21.8 33.01l215.13 58.004c16.88 4.549 33.88-6.092 37.19-23.398 15.25-82.81 14.29-169.828-5.69-256.028-4.01-16.909-21.55-27.029-38.06-21.777l-212.13 67.48c-14.76 4.695-23.35 19.271-20.81 34.167 6.64 36.454 7.29 73.158 2.57 108.542z" fill="url(#N)" class="E"/><path d="M417.07 408.887L203.455 346.26c-16.877-4.948-34.112 5.318-37.801 22.565-18.013 86.633-17.242 173.577.147 256.091 3.525 16.9 20.941 27.477 37.707 22.544l213.758-62.892c14.38-4.264 23.494-18.553 21.036-33.498-5.526-35.268-5.706-71.977.099-108.573 1.943-15.023-6.973-29.4-21.331-33.61z" class="D"/><path d="M163.696 368.418l.003-.012c3.931-18.382 22.324-29.341 40.319-24.065l213.614 62.627c15.357 4.502 24.814 19.843 22.753 35.785l-.004.029-.004.028c-5.772 36.384-5.593 72.88-.1 107.943 2.618 15.948-7.109 31.186-22.443 35.732l-.004.002-213.758 62.892c-17.891 5.264-36.466-6.017-40.229-24.054-17.444-82.78-18.217-170.001-.147-256.907zm2.105 256.498c3.526 16.9 20.941 27.477 37.707 22.544l213.758-62.892c14.381-4.264 23.494-18.553 21.037-33.498-5.527-35.268-5.707-71.977.098-108.573 1.943-15.023-6.973-29.4-21.331-33.61L203.455 346.26c-16.877-4.948-34.112 5.318-37.801 22.565-18.013 86.633-17.242 173.577.147 256.091z" fill="url(#O)" class="E"/><path d="M960.421 514.932c0-99.745-80.859-180.603-180.603-180.603s-180.603 80.858-180.603 180.603 80.859 180.603 180.603 180.603 180.603-80.859 180.603-180.603z" class="D"/><path d="M750.203 495.781v-23.437c0-4.558 2.279-6.836 6.836-6.836h6.055c2.344 0 3.971.625 4.883 1.875 1.041-1.25 2.669-1.875 4.882-1.875h6.055c4.557 0 6.836 2.278 6.836 6.836v21.679l-3.711 1.758h-.195v-23.437c0-2.214-.977-3.321-2.93-3.321h-6.055c-1.953 0-2.929 1.107-2.929 3.321v21.679l-3.711 1.758h-.196v-23.437c0-2.214-.976-3.321-2.929-3.321h-6.055c-1.953 0-2.93 1.107-2.93 3.321v21.679l-3.711 1.758h-.195zm48.242-.781c-3.906 0-5.859-1.953-5.859-5.859v-14.649l3.711-1.758h.195v16.407c0 1.562.651 2.343 1.953 2.343h4.493c1.302 0 1.953-.781 1.953-2.343v-14.649l3.711-1.758h.195v24.414c0 3.907-1.953 5.86-5.859 5.86h-8.321v-.196l1.563-3.32h6.758c1.302 0 1.953-.781 1.953-2.344v-2.734c-.508.391-1.159.586-1.953.586h-4.493zm-112.304 68c-4.558 0-6.836-2.279-6.836-6.836v-21.68l3.711-1.757h.195v23.437c0 2.214.977 3.32 2.93 3.32h6.054c1.953 0 2.93-1.106 2.93-3.32v-21.68l3.711-1.757h.195v23.437c0 2.214.977 3.32 2.93 3.32h6.055c1.953 0 2.929-1.106 2.929-3.32v-21.68l3.711-1.757h.196v23.437c0 4.557-2.279 6.836-6.836 6.836h-6.055c-2.344 0-3.971-.625-4.883-1.875-1.042 1.25-2.669 1.875-4.883 1.875h-6.054zm41.406-3.516h4.492c1.302 0 1.953-.781 1.953-2.343v-9.766c0-1.563-.651-2.344-1.953-2.344h-4.492c-1.302 0-1.953.781-1.953 2.344v9.766c0 1.562.651 2.343 1.953 2.343zm0 3.516c-3.906 0-5.859-1.953-5.859-5.859v-9.766c0-3.906 1.953-5.859 5.859-5.859h4.492c3.906 0 5.859 1.953 5.859 5.859v9.766c0 3.906-1.953 5.859-5.859 5.859h-4.492zm16.211.781v-16.406c0-3.906 1.953-5.859 5.859-5.859h4.883v.195l-1.562 3.32h-3.321c-1.302 0-1.953.781-1.953 2.344v14.648l-3.711 1.758h-.195zm15.039 0v-29.297l3.711-1.757h.195v15.82a5.92 5.92 0 0 1 .547-.098l7.617-7.715h.195l3.438 1.621-6.523 5.997h1.171c3.907 0 5.86 1.953 5.86 5.859v7.812l-3.711 1.758h-.195v-9.57c0-1.563-.651-2.344-1.954-2.344h-4.492c-1.302 0-1.953.781-1.953 2.344v7.812l-3.711 1.758h-.195zm38.672 0v-29.297l2.07-.976h12.383v.195l-1.582 3.359h-8.965v9.415h10.547v.195l-1.582 3.359h-8.965v11.992l-3.711 1.758h-.195zm21.875 0v-29.297l3.711-1.757h.195v29.296l-3.711 1.758h-.195zm16.601-4.297h4.493c1.302 0 1.953-.781 1.953-2.343v-9.766c0-1.563-.651-2.344-1.953-2.344h-4.493c-1.302 0-1.953.781-1.953 2.344v9.766c0 1.562.651 2.343 1.953 2.343zm0 3.516c-3.906 0-5.859-1.953-5.859-5.859v-9.766c0-3.906 1.953-5.859 5.859-5.859h4.493c3.906 0 5.859 1.953 5.859 5.859v9.766c0 3.906-1.953 5.859-5.859 5.859h-4.493zm22.071 0c-3.907 0-5.86-1.953-5.86-5.859v-14.649l3.711-1.758h.195v16.407c0 1.562.652 2.343 1.954 2.343h4.492c1.302 0 1.953-.781 1.953-2.343v-14.649l3.711-1.758h.195v16.407c0 1.562.651 2.343 1.953 2.343h4.492c1.303 0 1.954-.781 1.954-2.343v-14.649l3.711-1.758h.195v16.407c0 3.906-1.953 5.859-5.86 5.859h-4.492c-1.797 0-3.099-.482-3.906-1.445-.859.963-2.161 1.445-3.906 1.445h-4.492z" class="F"/><path d="M652.82 387.933c-70.14 70.14-70.14 183.858 0 253.997s183.857 70.139 253.997 0 70.139-183.858 0-253.997-183.858-70.139-253.997 0zm-1.415 255.411c-70.92-70.92-70.92-185.905 0-256.825s185.905-70.92 256.826 0 70.92 185.905 0 256.825-185.905 70.921-256.826 0z" fill="url(#P)" class="E"/></g><g filter="url(#C)"><path d="M222.665 472.789a2.41 2.41 0 0 0 2.411 2.411c.639 0 1.252-.254 1.705-.706a2.41 2.41 0 0 0 0-3.409c-.453-.452-1.066-.706-1.705-.706a2.41 2.41 0 0 0-2.411 2.41zm10.045 0a2.41 2.41 0 0 0 2.411 2.411 2.41 2.41 0 0 0 2.41-2.411 2.41 2.41 0 0 0-2.41-2.41 2.41 2.41 0 0 0-2.411 2.41zm-20.09 0a2.41 2.41 0 0 0 2.411 2.411 2.41 2.41 0 0 0 2.411-2.411 2.41 2.41 0 0 0-2.411-2.41 2.41 2.41 0 0 0-2.411 2.41zm33.208-8.718a22.52 22.52 0 0 0-4.836-7.198 22.32 22.32 0 0 0-7.197-4.836 22.4 22.4 0 0 0-8.719-1.748h-.101c-3.043.015-5.991.618-8.764 1.803a22.38 22.38 0 0 0-7.132 4.847c-2.054 2.074-3.666 4.485-4.781 7.172a22.51 22.51 0 0 0-1.723 8.784c.018 3.488.843 6.924 2.411 10.04v7.634a2.31 2.31 0 0 0 .677 1.633c.433.434 1.021.677 1.634.677h7.639a22.56 22.56 0 0 0 10.039 2.411h.106c3.008 0 5.926-.583 8.674-1.723a22.35 22.35 0 0 0 7.172-4.781c2.074-2.054 3.706-4.455 4.846-7.132 1.185-2.772 1.788-5.721 1.803-8.764.015-3.059-.577-6.027-1.748-8.819zm-7.588 21.998c-3.521 3.485-8.192 5.404-13.164 5.404h-.086c-3.028-.015-6.036-.769-8.693-2.185l-.422-.226h-7.072v-7.072l-.226-.421c-1.416-2.657-2.169-5.666-2.184-8.694a18.56 18.56 0 0 1 5.404-13.249c3.505-3.541 8.191-5.5 13.198-5.52h.086a18.58 18.58 0 0 1 7.242 1.452c2.24.939 4.249 2.29 5.977 4.017 1.723 1.723 3.079 3.737 4.018 5.977a18.61 18.61 0 0 1 1.451 7.323c-.03 5.002-1.994 9.688-5.529 13.194z" fill="url(#Q)"/></g><g class="F"><path d="M269.807 471.786c-.267-.102-.493-.257-.679-.462-.164-.206-.246-.463-.246-.772 0-.329.082-.597.246-.802s.453-.391.864-.556l4.32-1.882h.587c.411 0 .74.123.987.37s.371.576.371.988v17.65c-.124.041-.288.083-.494.124-.206.061-.432.092-.679.092-.885 0-1.327-.38-1.327-1.141v-15.46l-3.95 1.851zm-51.129 51.193c0-1.316-.206-2.438-.618-3.363-.39-.947-.936-1.718-1.635-2.315-.679-.596-1.481-1.028-2.407-1.296-.905-.288-1.882-.432-2.931-.432l-1.728.062c-.474.041-.916.103-1.327.185v14.688c.493.124 1.018.206 1.573.247l1.759.062c2.428 0 4.248-.658 5.462-1.975 1.234-1.316 1.852-3.271 1.852-5.863zm2.561 0c0 1.687-.237 3.158-.71 4.413-.453 1.234-1.111 2.263-1.975 3.086-.843.822-1.872 1.44-3.086 1.851-1.213.391-2.571.586-4.073.586-.658 0-1.399-.03-2.222-.092a9.66 9.66 0 0 1-2.345-.401c-.864-.268-1.296-.741-1.296-1.42v-15.861c0-.329.083-.576.247-.74.165-.185.422-.329.772-.432.637-.206 1.357-.34 2.16-.401l2.406-.093c1.502 0 2.87.206 4.105.617 1.254.391 2.324.988 3.209 1.79.884.782 1.573 1.769 2.067 2.962.494 1.173.741 2.551.741 4.135z"/><use xlink:href="#X"/><path d="M242.733 528.78c0 1.317-.484 2.346-1.45 3.086s-2.366 1.111-4.197 1.111c-.782 0-1.502-.072-2.16-.216-.658-.123-1.224-.288-1.697-.494-.453-.226-.813-.473-1.08-.74-.247-.288-.371-.576-.371-.864 0-.247.062-.484.185-.71.144-.226.35-.422.618-.586a10.29 10.29 0 0 0 1.944 1.111c.74.308 1.584.462 2.53.462 2.139 0 3.209-.72 3.209-2.16 0-1.172-.71-1.933-2.129-2.283l-2.561-.679c-1.255-.329-2.17-.802-2.746-1.419-.577-.638-.865-1.451-.865-2.438a3.97 3.97 0 0 1 .309-1.543c.226-.494.566-.926 1.018-1.296s1.008-.658 1.667-.864c.679-.226 1.471-.339 2.376-.339 1.44 0 2.602.216 3.487.648.884.411 1.327.894 1.327 1.45a1.21 1.21 0 0 1-.216.71c-.124.205-.299.36-.525.462-.37-.246-.895-.514-1.574-.802s-1.481-.432-2.407-.432-1.666.175-2.221.525c-.535.349-.803.843-.803 1.481 0 .473.155.874.463 1.203s.823.576 1.543.741l2.129.525c1.399.349 2.448.874 3.148 1.573.699.679 1.049 1.605 1.049 2.777zm10.496-8.794c-.699 0-1.347.123-1.944.37-.597.227-1.111.576-1.543 1.049-.432.453-.771 1.029-1.018 1.728-.247.679-.371 1.461-.371 2.346 0 1.769.443 3.127 1.327 4.073.885.926 2.068 1.388 3.549 1.388.864 0 1.584-.113 2.16-.339.576-.247 1.09-.525 1.543-.833.226.123.411.278.555.463s.216.411.216.679c0 .288-.113.555-.339.802s-.545.463-.957.648c-.391.185-.864.329-1.419.432-.535.123-1.121.185-1.759.185-1.07 0-2.057-.154-2.962-.463s-1.687-.771-2.346-1.388-1.172-1.389-1.542-2.315c-.371-.946-.556-2.057-.556-3.332 0-1.255.196-2.346.586-3.271.391-.947.916-1.739 1.574-2.376s1.43-1.111 2.315-1.42a8.33 8.33 0 0 1 2.869-.493 7.79 7.79 0 0 1 1.759.185c.556.103 1.029.257 1.42.463s.689.442.894.709c.227.247.34.504.34.772 0 .247-.072.463-.216.648a1.45 1.45 0 0 1-.556.432c-.452-.309-.946-.576-1.481-.803s-1.234-.339-2.098-.339zm8.132-1.605c.103-.041.257-.082.463-.123.226-.062.463-.093.71-.093.864 0 1.296.381 1.296 1.142v7.931c0 1.337.35 2.293 1.049 2.869.699.556 1.666.833 2.901.833.822 0 1.522-.082 2.098-.246.576-.186 1.028-.371 1.358-.556v-11.757a2.81 2.81 0 0 1 .462-.123c.227-.062.453-.093.679-.093.885 0 1.327.381 1.327 1.142v10.739c0 .432-.061.781-.185 1.049-.103.247-.37.493-.802.74-.473.268-1.132.525-1.975.772-.823.247-1.821.37-2.993.37-2.057 0-3.641-.452-4.752-1.358-1.091-.905-1.636-2.324-1.636-4.258v-8.98zm27.025 10.399c0 1.317-.483 2.346-1.45 3.086s-2.366 1.111-4.196 1.111c-.782 0-1.502-.072-2.161-.216-.658-.123-1.224-.288-1.697-.494-.452-.226-.812-.473-1.08-.74-.247-.288-.37-.576-.37-.864 0-.247.062-.484.185-.71.144-.226.35-.422.617-.586.556.411 1.204.781 1.944 1.111.741.308 1.584.462 2.531.462 2.139 0 3.209-.72 3.209-2.16 0-1.172-.71-1.933-2.129-2.283l-2.562-.679c-1.254-.329-2.17-.802-2.746-1.419-.576-.638-.864-1.451-.864-2.438a3.97 3.97 0 0 1 .309-1.543c.226-.494.565-.926 1.018-1.296s1.008-.658 1.666-.864c.679-.226 1.471-.339 2.376-.339 1.44 0 2.603.216 3.487.648.885.411 1.327.894 1.327 1.45a1.21 1.21 0 0 1-.216.71c-.123.205-.298.36-.524.462-.371-.246-.895-.514-1.574-.802s-1.481-.432-2.407-.432-1.666.175-2.222.525c-.535.349-.802.843-.802 1.481a1.69 1.69 0 0 0 .463 1.203c.308.33.823.576 1.543.741l2.129.525c1.399.349 2.448.874 3.147 1.573.7.679 1.049 1.605 1.049 2.777zm13.802 0c0 1.317-.483 2.346-1.45 3.086s-2.366 1.111-4.197 1.111c-.782 0-1.502-.072-2.16-.216-.658-.123-1.224-.288-1.697-.494-.453-.226-.813-.473-1.08-.74-.247-.288-.37-.576-.37-.864 0-.247.061-.484.185-.71.144-.226.349-.422.617-.586a10.29 10.29 0 0 0 1.944 1.111c.74.308 1.584.462 2.53.462 2.14 0 3.209-.72 3.209-2.16 0-1.172-.709-1.933-2.129-2.283l-2.561-.679c-1.255-.329-2.17-.802-2.746-1.419-.576-.638-.864-1.451-.864-2.438 0-.535.103-1.049.308-1.543a3.61 3.61 0 0 1 1.019-1.296c.452-.37 1.008-.658 1.666-.864.679-.226 1.471-.339 2.376-.339 1.44 0 2.602.216 3.487.648.884.411 1.327.894 1.327 1.45a1.21 1.21 0 0 1-.216.71c-.124.205-.299.36-.525.462-.37-.246-.895-.514-1.574-.802s-1.481-.432-2.406-.432-1.667.175-2.222.525c-.535.349-.803.843-.803 1.481 0 .473.155.874.463 1.203s.823.576 1.543.741l2.129.525c1.399.349 2.448.874 3.148 1.573.699.679 1.049 1.605 1.049 2.777z"/><use xlink:href="#X" x="80.7"/><path d="M326.611 525.448c0 1.152-.164 2.191-.494 3.116s-.802 1.718-1.419 2.376c-.597.659-1.327 1.163-2.191 1.513s-1.831.524-2.901.524-2.036-.175-2.9-.524a6.18 6.18 0 0 1-2.222-1.513c-.617-.658-1.09-1.45-1.419-2.376s-.494-1.964-.494-3.116.164-2.191.494-3.117c.349-.926.833-1.718 1.45-2.376a6.19 6.19 0 0 1 2.222-1.512c.864-.35 1.82-.524 2.869-.524s2.006.174 2.87.524 1.595.854 2.191 1.512c.617.658 1.09 1.45 1.42 2.376.349.926.524 1.965.524 3.117zm-7.005-5.493c-1.398 0-2.499.484-3.301 1.45s-1.204 2.315-1.204 4.043c0 1.748.391 3.106 1.173 4.073.802.946 1.913 1.419 3.332 1.419s2.52-.483 3.302-1.45 1.173-2.314 1.173-4.042-.401-3.076-1.204-4.043c-.781-.966-1.872-1.45-3.271-1.45zm20.698 3.333c0-1.152-.329-1.996-.988-2.531-.637-.534-1.501-.802-2.592-.802-.823 0-1.553.103-2.191.309s-1.183.442-1.635.709v11.541a2.81 2.81 0 0 1-.463.124c-.206.061-.432.092-.679.092-.884 0-1.327-.37-1.327-1.111v-10.522c0-.432.083-.782.247-1.049.185-.288.494-.566.926-.833.535-.33 1.244-.628 2.129-.895s1.882-.401 2.993-.401c1.872 0 3.343.421 4.413 1.265 1.09.843 1.635 2.17 1.635 3.98v9.35c-.103.041-.267.083-.493.124a2.27 2.27 0 0 1-.648.092c-.885 0-1.327-.37-1.327-1.111v-8.331z"/></g><g filter="url(#D)"><path d="M338.181 748.541c-1.125-.281-2.25-.843-3.094-1.687-.844-.281-1.125-1.125-1.125-1.688s.281-1.406.844-1.687c.844-.563 1.688-1.125 2.531-.844 1.688 0 3.094.844 3.938 1.969l2.531-3.375c-.844-.844-1.687-1.407-2.531-1.969s-1.969-.844-3.094-.844v-3.937h-3.375v3.937c-1.406.281-2.813 1.125-3.938 2.25-1.125 1.406-1.968 3.094-1.687 4.782 0 1.687.562 3.375 1.687 4.5 1.407 1.406 3.375 2.25 5.063 3.093.844.282 1.969.844 2.813 1.407.562.562.843 1.406.843 2.25s-.281 1.687-.843 2.531c-.844.844-1.969 1.125-2.813 1.125-1.125 0-2.531-.281-3.375-1.125a8.54 8.54 0 0 1-2.25-2.25l-2.813 3.094a13.32 13.32 0 0 0 2.813 2.812c1.406.844 3.094 1.688 4.781 1.688v3.656h3.094v-4.219c1.688-.281 3.094-1.125 4.219-2.25 1.406-1.406 2.25-3.656 2.25-5.625 0-1.687-.563-3.656-1.969-4.781-1.406-1.406-2.812-2.25-4.5-2.813h0zm-1.687-19.687c-12.376 0-22.501 10.125-22.501 22.5s10.125 22.5 22.501 22.5 22.5-10.125 22.5-22.5-10.125-22.5-22.5-22.5zm0 41.906c-10.688 0-19.407-8.718-19.407-19.406s8.719-19.407 19.407-19.407 19.406 8.719 19.406 19.407-8.719 19.406-19.406 19.406h0z" fill="url(#R)"/></g><path d="M378.43 745.906c0-.268.134-.535.402-.803.288-.288.668-.545 1.141-.771s1.029-.401 1.667-.525a9.22 9.22 0 0 1 2.036-.216c1.996 0 3.549.484 4.66 1.451 1.131.966 1.697 2.273 1.697 3.919a6.62 6.62 0 0 1-.216 1.666c-.144.535-.381 1.09-.71 1.666-.329.556-.761 1.142-1.296 1.759s-1.183 1.276-1.944 1.975l-5.03 4.659h9.165a1.48 1.48 0 0 1 .216.402 1.66 1.66 0 0 1 .093.586c0 .699-.319 1.049-.957 1.049h-10.893c-.411-.288-.617-.699-.617-1.234 0-.597.247-1.132.741-1.605l5.554-5.338 1.574-1.636c.432-.493.771-.956 1.018-1.388a4.48 4.48 0 0 0 .556-1.265c.123-.412.185-.834.185-1.266 0-.987-.329-1.779-.988-2.376-.658-.617-1.656-.925-2.993-.925-.926 0-1.738.154-2.438.462s-1.285.638-1.759.988c-.226-.103-.432-.257-.617-.463-.164-.206-.247-.463-.247-.771zm-99.428 49.063c0 .885-.216 1.708-.648 2.469-.411.74-1.11 1.317-2.098 1.728 1.173.391 2.047 1.008 2.623 1.851.576.823.864 1.759.864 2.808 0 1.872-.679 3.261-2.037 4.166-1.337.905-3.25 1.358-5.739 1.358a25.49 25.49 0 0 1-2.53-.123c-.803-.062-1.574-.196-2.315-.402-.864-.246-1.296-.72-1.296-1.419v-15.799c0-.597.34-.988 1.018-1.173a10.97 10.97 0 0 1 2.222-.401c.782-.082 1.636-.123 2.561-.123 2.325 0 4.135.411 5.431 1.234s1.944 2.098 1.944 3.826zm-10.707 5.308v6.665c.494.103 1.059.185 1.697.247l1.975.092c1.707 0 3.003-.277 3.888-.833.884-.576 1.327-1.471 1.327-2.684 0-1.07-.401-1.913-1.204-2.531-.781-.637-1.944-.956-3.487-.956h-4.196zm0-2.037h4.196c1.296 0 2.274-.288 2.932-.864.679-.576 1.018-1.358 1.018-2.345 0-2.037-1.604-3.055-4.814-3.055l-1.882.093-1.45.185v5.986zm15.421-3.425c.103-.041.257-.082.463-.123a2.67 2.67 0 0 1 .709-.093c.864 0 1.297.381 1.297 1.142v7.93c0 1.337.349 2.294 1.049 2.87.699.555 1.666.833 2.9.833.823 0 1.523-.082 2.099-.247.576-.185 1.028-.37 1.357-.555v-11.757c.103-.041.257-.082.463-.123a2.56 2.56 0 0 1 .679-.093c.885 0 1.327.381 1.327 1.142v10.738c0 .432-.062.782-.185 1.049-.103.247-.37.494-.802.741-.474.267-1.132.525-1.975.771-.823.247-1.821.371-2.994.371-2.057 0-3.641-.453-4.752-1.358-1.09-.905-1.635-2.325-1.635-4.258v-8.98zm29.154 11.849c0 .412-.092.731-.277.957-.165.226-.432.453-.803.679-.411.267-.997.514-1.759.74-.761.247-1.635.371-2.622.371-1.111 0-2.13-.144-3.055-.432s-1.728-.731-2.407-1.327c-.659-.617-1.173-1.389-1.543-2.315-.35-.946-.525-2.077-.525-3.394 0-1.337.185-2.479.556-3.425.37-.967.864-1.759 1.481-2.376.638-.617 1.378-1.07 2.222-1.358.864-.288 1.779-.432 2.746-.432.658 0 1.296.082 1.913.247s1.152.37 1.605.617v-6.202a2.81 2.81 0 0 1 .463-.124c.226-.061.452-.092.678-.092.885 0 1.327.37 1.327 1.111v16.755zm-2.468-9.226c-.412-.288-.885-.535-1.42-.741s-1.152-.308-1.851-.308a5.39 5.39 0 0 0-1.821.308c-.555.185-1.049.504-1.481.957-.432.432-.782 1.008-1.049 1.728-.247.72-.37 1.594-.37 2.623 0 1.892.452 3.26 1.357 4.104s2.109 1.265 3.611 1.265c.72 0 1.306-.072 1.759-.216.473-.165.894-.36 1.265-.586v-9.134zm16.69 10.09c-.35.288-.833.535-1.45.741-.597.206-1.317.309-2.16.309-.906 0-1.759-.124-2.562-.371-.802-.267-1.512-.679-2.129-1.234-.596-.576-1.08-1.317-1.45-2.222-.35-.905-.525-2.006-.525-3.302 0-1.172.175-2.201.525-3.085s.833-1.626 1.45-2.222c.638-.597 1.389-1.039 2.253-1.327.864-.309 1.82-.463 2.87-.463.946 0 1.81.124 2.592.37.802.227 1.47.515 2.005.864.309.206.556.443.741.71.206.247.308.556.308.926v12.405c0 1.028-.174 1.892-.524 2.592a4.18 4.18 0 0 1-1.42 1.728c-.596.452-1.306.781-2.129.987s-1.707.309-2.653.309c-1.05 0-1.945-.113-2.685-.34-.72-.205-1.214-.391-1.481-.555-.617-.35-.926-.792-.926-1.327a1.42 1.42 0 0 1 .185-.741 1.52 1.52 0 0 1 .525-.432c.432.33 1.039.628 1.82.895.782.288 1.636.432 2.562.432 1.378 0 2.427-.298 3.147-.895.741-.576 1.111-1.512 1.111-2.808v-1.944zm-3.333-.987c.823 0 1.492-.124 2.006-.37.535-.268.977-.566 1.327-.895v-8.023c-.35-.227-.792-.422-1.327-.587-.514-.185-1.131-.277-1.851-.277-1.399 0-2.521.421-3.364 1.265-.823.843-1.234 2.098-1.234 3.765 0 .925.113 1.717.339 2.376.226.637.535 1.162.926 1.573.411.412.884.71 1.419.895.556.185 1.142.278 1.759.278zm12.131-3.209c.555 2.695 2.324 4.042 5.307 4.042.864 0 1.646-.144 2.345-.432s1.255-.597 1.667-.926c.493.288.74.679.74 1.173 0 .288-.133.566-.401.833-.247.268-.596.504-1.049.71-.432.206-.946.37-1.543.494a9.01 9.01 0 0 1-1.882.185c-2.387 0-4.279-.648-5.678-1.944-1.378-1.296-2.068-3.189-2.068-5.678 0-1.173.165-2.212.494-3.117.35-.926.823-1.707 1.42-2.345a6.08 6.08 0 0 1 2.191-1.45c.843-.35 1.758-.525 2.746-.525.926 0 1.779.154 2.561.463s1.45.751 2.006 1.327c.576.555 1.018 1.224 1.327 2.006.329.761.493 1.604.493 2.53 0 .453-.102.782-.308.987-.206.186-.494.299-.864.34l-9.504 1.327zm4.258-6.974c-1.255 0-2.294.442-3.117 1.327-.822.864-1.254 2.108-1.296 3.734l8.486-1.173c-.103-1.131-.504-2.057-1.203-2.777-.679-.741-1.636-1.111-2.87-1.111zm14.86 13.053c-1.44 0-2.613-.319-3.518-.957-.885-.638-1.327-1.697-1.327-3.178v-14.658c.103-.041.257-.082.463-.123.226-.062.463-.093.71-.093.864 0 1.296.371 1.296 1.111v3.549h5.06c.062.103.124.247.185.432.062.164.093.35.093.555 0 .7-.309 1.049-.926 1.049h-4.412v8.023c0 .823.226 1.41.679 1.759.473.329 1.131.494 1.974.494.35 0 .741-.062 1.173-.185s.792-.268 1.08-.432c.123.123.237.278.339.463a1.31 1.31 0 0 1 .155.648c0 .452-.268.823-.803 1.111s-1.275.432-2.221.432zm26.36-9.998c0-1.317-.205-2.438-.617-3.364-.391-.946-.936-1.717-1.635-2.314-.679-.597-1.481-1.029-2.407-1.296-.905-.288-1.883-.432-2.932-.432l-1.728.062c-.473.041-.915.103-1.327.185v14.688c.494.123 1.019.206 1.574.247l1.759.062c2.427 0 4.248-.659 5.462-1.975 1.234-1.317 1.851-3.271 1.851-5.863zm2.561 0c0 1.687-.236 3.158-.709 4.412-.453 1.235-1.111 2.263-1.975 3.086-.844.823-1.872 1.44-3.086 1.852-1.214.391-2.571.586-4.073.586-.658 0-1.399-.031-2.222-.093-.823-.041-1.604-.174-2.345-.401-.864-.267-1.296-.74-1.296-1.419v-15.861c0-.329.082-.576.247-.741.164-.185.422-.329.771-.432.638-.205 1.358-.339 2.16-.401l2.407-.092c1.502 0 2.87.205 4.104.617 1.255.391 2.325.987 3.209 1.79.885.781 1.574 1.769 2.068 2.962.494 1.172.74 2.551.74 4.135zm5.811 3.919c.555 2.695 2.324 4.042 5.307 4.042.864 0 1.646-.144 2.346-.432s1.254-.597 1.666-.926c.494.288.74.679.74 1.173 0 .288-.133.566-.401.833-.247.268-.596.504-1.049.71-.432.206-.946.37-1.543.494a9.01 9.01 0 0 1-1.882.185c-2.386 0-4.279-.648-5.678-1.944-1.378-1.296-2.067-3.189-2.067-5.678 0-1.173.164-2.212.493-3.117.35-.926.823-1.707 1.42-2.345a6.08 6.08 0 0 1 2.191-1.45c.843-.35 1.759-.525 2.746-.525.926 0 1.78.154 2.561.463s1.451.751 2.006 1.327c.576.555 1.018 1.224 1.327 2.006.329.761.494 1.604.494 2.53 0 .453-.103.782-.309.987-.206.186-.494.299-.864.34l-9.504 1.327zm4.258-6.974c-1.255 0-2.294.442-3.116 1.327-.823.864-1.255 2.108-1.296 3.734l8.485-1.173c-.102-1.131-.504-2.057-1.203-2.777-.679-.741-1.635-1.111-2.87-1.111zm14.86 13.053c-1.44 0-2.613-.319-3.518-.957-.884-.638-1.327-1.697-1.327-3.178v-14.658c.103-.041.257-.082.463-.123.226-.062.463-.093.71-.093.864 0 1.296.371 1.296 1.111v3.549h5.06c.062.103.124.247.186.432.061.164.092.35.092.555 0 .7-.308 1.049-.926 1.049h-4.412v8.023c0 .823.226 1.41.679 1.759.473.329 1.131.494 1.975.494.349 0 .74-.062 1.172-.185s.792-.268 1.08-.432c.124.123.237.278.34.463a1.31 1.31 0 0 1 .154.648c0 .452-.267.823-.802 1.111s-1.276.432-2.222.432zm7.912-6.079c.556 2.695 2.325 4.042 5.308 4.042.864 0 1.646-.144 2.345-.432s1.255-.597 1.666-.926c.494.288.741.679.741 1.173 0 .288-.134.566-.401.833-.247.268-.597.504-1.049.71-.432.206-.947.37-1.543.494-.576.123-1.204.185-1.882.185-2.387 0-4.279-.648-5.678-1.944-1.379-1.296-2.068-3.189-2.068-5.678 0-1.173.165-2.212.494-3.117.35-.926.823-1.707 1.419-2.345.618-.638 1.348-1.121 2.191-1.45.844-.35 1.759-.525 2.747-.525.925 0 1.779.154 2.561.463s1.45.751 2.006 1.327a5.59 5.59 0 0 1 1.326 2.006c.33.761.494 1.604.494 2.53 0 .453-.103.782-.308.987-.206.186-.494.299-.864.34l-9.505 1.327zm4.259-6.974c-1.255 0-2.294.442-3.117 1.327-.823.864-1.255 2.108-1.296 3.734l8.486-1.173c-.103-1.131-.504-2.057-1.203-2.777-.679-.741-1.636-1.111-2.87-1.111zm12.453 12.59c-.103.041-.258.082-.463.123-.206.062-.432.093-.679.093-.885 0-1.327-.37-1.327-1.111v-10.461c0-.473.082-.843.247-1.111.185-.288.483-.565.895-.833.535-.35 1.255-.648 2.16-.895.925-.267 1.964-.401 3.116-.401 1.646 0 2.469.412 2.469 1.234 0 .206-.031.402-.093.587-.061.164-.144.308-.246.432l-.803-.124c-.329-.041-.658-.061-.987-.061-.947 0-1.78.102-2.5.308-.72.185-1.316.412-1.789.679v11.541zm27.245-9.628c0-1.008-.288-1.748-.864-2.222s-1.347-.709-2.314-.709c-1.337 0-2.53.473-3.579 1.419.123.412.185.854.185 1.327v9.813c-.103.041-.268.082-.494.123-.206.062-.422.093-.648.093-.885 0-1.327-.37-1.327-1.111v-8.733c0-1.008-.288-1.748-.864-2.222s-1.358-.709-2.345-.709a5.75 5.75 0 0 0-1.882.308c-.576.206-1.07.443-1.482.71v11.541a2.81 2.81 0 0 1-.462.123c-.206.062-.432.093-.679.093-.885 0-1.327-.37-1.327-1.111V797.53c0-.411.082-.75.247-1.018.185-.288.493-.576.925-.864.556-.35 1.255-.648 2.099-.895a8.74 8.74 0 0 1 2.592-.401c1.008 0 1.903.154 2.684.463.782.288 1.379.689 1.79 1.203.535-.473 1.204-.864 2.006-1.172.802-.329 1.718-.494 2.746-.494 1.667 0 2.993.401 3.981 1.204.987.781 1.481 1.995 1.481 3.641v9.751c-.103.041-.267.082-.494.123-.205.062-.421.093-.648.093-.884 0-1.327-.37-1.327-1.111v-8.733zm9.733 9.628c-.103.041-.257.082-.463.123-.205.062-.432.093-.679.093-.884 0-1.326-.37-1.326-1.111v-13.238a2.81 2.81 0 0 1 .462-.123 2.68 2.68 0 0 1 .71-.093c.864 0 1.296.381 1.296 1.142v13.207zm-2.839-18.7c0-.432.144-.792.432-1.08.309-.309.7-.463 1.173-.463s.854.154 1.142.463c.288.288.432.648.432 1.08a1.57 1.57 0 0 1-.432 1.111c-.288.288-.669.432-1.142.432s-.864-.144-1.173-.432a1.57 1.57 0 0 1-.432-1.111zm17.534 9.473c0-1.152-.329-1.995-.988-2.53-.637-.535-1.501-.802-2.592-.802-.822 0-1.553.103-2.191.308s-1.182.443-1.635.71v11.541c-.103.041-.257.082-.463.123-.206.062-.432.093-.679.093-.884 0-1.327-.37-1.327-1.111V797.53c0-.432.083-.781.247-1.049.185-.288.494-.565.926-.833.535-.329 1.245-.627 2.129-.895s1.883-.401 2.993-.401c1.872 0 3.343.422 4.413 1.265 1.09.844 1.635 2.171 1.635 3.981v9.35c-.102.041-.267.082-.493.123-.206.062-.422.093-.648.093-.885 0-1.327-.37-1.327-1.111v-8.332zm8.85 3.611c.555 2.695 2.325 4.042 5.307 4.042.865 0 1.646-.144 2.346-.432s1.255-.597 1.666-.926c.494.288.741.679.741 1.173 0 .288-.134.566-.402.833-.246.268-.596.504-1.049.71-.432.206-.946.37-1.543.494a9.01 9.01 0 0 1-1.882.185c-2.386 0-4.279-.648-5.678-1.944-1.378-1.296-2.067-3.189-2.067-5.678 0-1.173.164-2.212.494-3.117.349-.926.822-1.707 1.419-2.345a6.08 6.08 0 0 1 2.191-1.45c.843-.35 1.759-.525 2.746-.525.926 0 1.78.154 2.561.463s1.451.751 2.006 1.327c.576.555 1.018 1.224 1.327 2.006.329.761.494 1.604.494 2.53 0 .453-.103.782-.309.987-.206.186-.494.299-.864.34l-9.504 1.327zm4.258-6.974c-1.255 0-2.293.442-3.116 1.327-.823.864-1.255 2.108-1.296 3.734l8.486-1.173c-.103-1.131-.504-2.057-1.204-2.777-.679-.741-1.635-1.111-2.87-1.111zm160.925 142.634c.967 0 1.852.113 2.654.34.802.205 1.492.524 2.068.956a4.34 4.34 0 0 1 1.326 1.605c.33.638.494 1.378.494 2.222 0 .617-.103 1.172-.308 1.666-.206.473-.463.884-.772 1.234-.288.35-.607.628-.956.833s-.659.34-.926.401c.411.124.823.319 1.234.587.412.247.782.566 1.111.956.35.371.627.823.833 1.358.226.514.34 1.101.34 1.759 0 .926-.175 1.738-.525 2.438-.329.699-.802 1.285-1.419 1.759-.618.452-1.358.802-2.222 1.049-.864.226-1.811.339-2.839.339-.844 0-1.625-.072-2.345-.216-.7-.123-1.307-.298-1.821-.524-.514-.247-.915-.515-1.203-.803s-.432-.586-.432-.895c0-.288.072-.534.216-.74.164-.206.37-.381.617-.525.535.412 1.183.782 1.944 1.111.782.329 1.79.494 3.024.494 1.358 0 2.458-.288 3.302-.864.843-.597 1.265-1.492 1.265-2.685 0-1.049-.391-1.892-1.173-2.53s-1.913-.957-3.394-.957h-2.561c-.083-.102-.155-.247-.216-.432-.062-.205-.093-.411-.093-.617 0-.226.031-.432.093-.617s.133-.329.216-.432h2.345c1.522 0 2.602-.278 3.24-.833.658-.576.987-1.327.987-2.253 0-1.008-.37-1.769-1.11-2.283-.721-.535-1.729-.802-3.025-.802-.987 0-1.861.154-2.622.462-.741.288-1.358.607-1.852.957a1.66 1.66 0 0 1-.555-.463c-.165-.226-.247-.483-.247-.771 0-.268.134-.535.401-.803.267-.288.638-.535 1.111-.74.494-.227 1.059-.401 1.697-.525a9.8 9.8 0 0 1 2.098-.216zm-51.322 58.753v6.635c-.123.04-.288.08-.493.12-.206.06-.432.1-.679.1-.905 0-1.358-.39-1.358-1.15v-16.412c0-.33.082-.576.247-.741.164-.185.422-.329.771-.432.597-.185 1.317-.319 2.16-.401l2.5-.124c2.612 0 4.515.556 5.708 1.667 1.214 1.09 1.821 2.571 1.821 4.443 0 1.913-.617 3.446-1.851 4.598-1.235 1.131-3.138 1.697-5.709 1.697h-3.117zm2.963-2.098c1.645 0 2.921-.34 3.826-1.018s1.358-1.729 1.358-3.148c0-1.399-.443-2.417-1.327-3.055-.864-.658-2.109-.987-3.734-.987a15.25 15.25 0 0 0-1.666.092l-1.451.185v7.931h2.994zm14.299 8.733c-.103.04-.258.08-.463.12-.206.06-.432.1-.679.1-.885 0-1.327-.37-1.327-1.12v-19.035c.103-.041.257-.082.463-.123.226-.062.452-.093.679-.093.884 0 1.327.371 1.327 1.111v19.04zm9.969-1.54c.864 0 1.574-.09 2.13-.25.576-.19.987-.36 1.234-.52v-4.479l-3.826.401c-1.07.103-1.862.35-2.376.741-.515.37-.772.925-.772 1.667 0 .78.298 1.39.895 1.82.597.41 1.502.62 2.715.62zm-.03-13.056c1.789 0 3.209.401 4.258 1.203s1.574 2.068 1.574 3.796v7.317c0 .45-.093.8-.278 1.05-.165.22-.422.44-.772.64-.493.29-1.152.54-1.974.74-.803.23-1.728.34-2.778.34-1.933 0-3.435-.38-4.505-1.14-1.049-.76-1.574-1.86-1.574-3.3 0-1.358.443-2.376 1.327-3.055.885-.7 2.13-1.132 3.734-1.296l4.382-.432v-.864c0-1.029-.309-1.78-.926-2.253s-1.45-.71-2.499-.71c-.864 0-1.677.124-2.438.371a13.51 13.51 0 0 0-2.037.833 3.59 3.59 0 0 1-.463-.494 1.09 1.09 0 0 1-.185-.617c0-.288.072-.525.216-.71s.371-.36.679-.524c.556-.288 1.193-.504 1.913-.648.72-.165 1.502-.247 2.346-.247zm20.212 5.369c0-1.152-.329-1.995-.987-2.53-.638-.535-1.502-.803-2.592-.803-.823 0-1.554.103-2.191.309s-1.183.442-1.636.71v11.541c-.103.04-.257.08-.463.12-.205.06-.432.1-.679.1-.884 0-1.326-.37-1.326-1.12v-10.518c0-.432.082-.782.246-1.049.186-.288.494-.566.926-.833.535-.329 1.245-.628 2.129-.895s1.883-.401 2.994-.401c1.872 0 3.342.422 4.412 1.265 1.091.843 1.636 2.17 1.636 3.981v9.35a2.88 2.88 0 0 1-.494.12 2.31 2.31 0 0 1-.648.1c-.885 0-1.327-.37-1.327-1.12v-8.327zm16.966 0c0-1.152-.329-1.995-.988-2.53-.637-.535-1.501-.803-2.592-.803-.823 0-1.553.103-2.191.309s-1.183.442-1.635.71v11.541c-.103.04-.257.08-.463.12-.206.06-.432.1-.679.1-.884 0-1.327-.37-1.327-1.12v-10.518c0-.432.083-.782.247-1.049.185-.288.494-.566.926-.833.535-.329 1.244-.628 2.129-.895s1.882-.401 2.993-.401c1.872 0 3.343.422 4.413 1.265 1.09.843 1.635 2.17 1.635 3.981v9.35c-.103.04-.267.08-.493.12a2.31 2.31 0 0 1-.648.1c-.885 0-1.327-.37-1.327-1.12v-8.327zm9.714 9.227c-.103.04-.257.08-.463.12-.206.06-.432.1-.679.1-.884 0-1.327-.37-1.327-1.12v-13.233a2.81 2.81 0 0 1 .463-.124c.226-.061.463-.092.71-.092.864 0 1.296.38 1.296 1.141v13.208zm-2.839-18.7c0-.432.144-.792.432-1.08.309-.309.699-.463 1.173-.463s.853.154 1.141.463c.288.288.432.648.432 1.08a1.57 1.57 0 0 1-.432 1.111c-.288.288-.668.432-1.141.432s-.864-.144-1.173-.432a1.57 1.57 0 0 1-.432-1.111zm17.534 9.473c0-1.152-.33-1.995-.988-2.53-.638-.535-1.502-.803-2.592-.803-.823 0-1.553.103-2.191.309s-1.183.442-1.635.71v11.541c-.103.04-.257.08-.463.12-.206.06-.432.1-.679.1-.885 0-1.327-.37-1.327-1.12v-10.518c0-.432.082-.782.247-1.049.185-.288.494-.566.926-.833.535-.329 1.244-.628 2.129-.895s1.882-.401 2.993-.401c1.872 0 3.343.422 4.413 1.265 1.09.843 1.635 2.17 1.635 3.981v9.35c-.103.04-.267.08-.494.12a2.3 2.3 0 0 1-.648.1c-.884 0-1.326-.37-1.326-1.12v-8.327zm16.626 7.807c-.35.29-.833.53-1.45.74-.597.21-1.317.31-2.16.31-.906 0-1.759-.12-2.562-.37a5.95 5.95 0 0 1-2.129-1.24c-.596-.57-1.08-1.31-1.45-2.22-.35-.902-.525-2.003-.525-3.299 0-1.172.175-2.201.525-3.086s.833-1.625 1.45-2.221c.638-.597 1.389-1.039 2.253-1.327.864-.309 1.82-.463 2.87-.463.946 0 1.81.123 2.592.37.802.226 1.47.514 2.005.864a2.71 2.71 0 0 1 .741.71c.206.247.308.555.308.926v12.406c0 1.03-.174 1.89-.524 2.59-.329.72-.802 1.3-1.42 1.73-.596.45-1.306.78-2.129.99-.823.2-1.707.3-2.654.3-1.049 0-1.944-.11-2.684-.33-.72-.21-1.214-.4-1.481-.56-.617-.35-.926-.79-.926-1.33a1.42 1.42 0 0 1 .185-.74c.144-.18.319-.33.525-.43.432.33 1.039.63 1.82.9.782.28 1.636.43 2.561.43 1.379 0 2.428-.3 3.148-.9.741-.57 1.111-1.51 1.111-2.81v-1.94zm-3.333-.99c.823 0 1.492-.12 2.006-.37.535-.27.977-.56 1.327-.89v-8.026c-.35-.226-.792-.421-1.327-.586-.514-.185-1.131-.278-1.851-.278-1.399 0-2.521.422-3.364 1.266-.823.843-1.234 2.098-1.234 3.764 0 .926.113 1.718.339 2.376.226.638.535 1.164.926 1.574.411.41.884.71 1.419.89.556.19 1.142.28 1.759.28z" class="F"/><g filter="url(#E)"><path d="M603.721 926.991c1.873-1.459 4.323-2.265 6.757-2.265 1.457 0 2.634.499 3.528 1.294a5.53 5.53 0 0 1 .646.685 5.53 5.53 0 0 1 .646-.685c.894-.795 2.072-1.294 3.528-1.294 2.434 0 4.886.806 6.755 2.265 1.459 1.132 2.6 2.697 3.048 4.586.946.158 1.786.639 2.466 1.277 1.081 1.015 1.853 2.483 2.337 3.994a14.26 14.26 0 0 1 .664 4.91c-.038.847-.162 1.711-.398 2.538l.146.067c.833.392 1.508 1.007 2.015 1.824.957 1.542 1.295 3.762 1.295 6.592 0 3.254-1.246 5.462-2.844 6.834-.833.714-1.807 1.243-2.859 1.553-.382 1.76-1.167 3.407-2.293 4.812-1.627 2.035-4.158 3.755-7.558 3.755-2.724 0-4.87-1.508-6.248-2.949l-.698-.804-.7.801c-1.378 1.446-3.523 2.952-6.248 2.952-3.402 0-5.933-1.72-7.558-3.755a11.65 11.65 0 0 1-2.297-4.812 7.77 7.77 0 0 1-2.857-1.553c-1.598-1.374-2.841-3.58-2.841-6.834 0-2.83.338-5.05 1.292-6.592.507-.84 1.262-1.501 2.162-1.891-.232-.828-.365-1.679-.399-2.538a14.26 14.26 0 0 1 .664-4.91c.484-1.509 1.254-2.979 2.337-3.994.678-.661 1.536-1.105 2.466-1.277.45-1.891 1.589-3.454 3.046-4.586h0zm2.076 2.663c-1.229.957-1.95 2.231-1.95 3.699 0 .268-.064.531-.186.769s-.299.444-.515.6-.468.259-.733.299-.534.018-.788-.067c-.309-.103-.635-.079-1.103.363-.523.488-1.052 1.373-1.435 2.562a10.93 10.93 0 0 0-.504 3.728c.056 1.252.354 2.292.822 2.995a1.72 1.72 0 0 1 .187.374h2.436a6.41 6.41 0 0 1 6.401 5.948c.97.387 1.775 1.099 2.278 2.014a4.5 4.5 0 0 1 .478 3.003c-.194 1.027-.738 1.954-1.54 2.623a4.5 4.5 0 0 1-2.855 1.045c-1.044.007-2.058-.349-2.869-1.007a4.5 4.5 0 0 1-1.574-2.602c-.208-1.023-.053-2.087.438-3.009a4.5 4.5 0 0 1 2.251-2.044c-.107-.722-.47-1.38-1.022-1.857a3.04 3.04 0 0 0-1.986-.737h-5.91c-.338.783-.588 2.137-.588 4.426 0 2.299.835 3.56 1.664 4.271.907.777 1.905.98 2.193.98a1.69 1.69 0 0 1 1.689 1.688c0 .946.522 2.664 1.711 4.15 1.143 1.434 2.774 2.488 4.919 2.488 1.434 0 2.754-.806 3.805-1.905a8.56 8.56 0 0 0 1.167-1.542 4.12 4.12 0 0 0 .258-.525l.014-.031v-21.318h-2.017a4.51 4.51 0 0 1-2.027 2.27c-.919.498-1.982.662-3.008.462a4.51 4.51 0 0 1-3.643-4.42c0-1.045.364-2.058 1.028-2.864s1.589-1.357 2.615-1.556a4.5 4.5 0 0 1 3.008.462c.918.498 1.635 1.3 2.027 2.269h2.017v-5.714l-.007-.128a7.36 7.36 0 0 0-.405-2.034c-.203-.54-.466-.961-.777-1.238-.277-.248-.66-.441-1.283-.441-1.725 0-3.434.581-4.683 1.553l.002-.002zm10.559 28.831v3.868l.012.031c.045.12.13.297.261.525a8.32 8.32 0 0 0 1.166 1.542c1.049 1.099 2.371 1.905 3.805 1.905 2.144 0 3.774-1.054 4.92-2.488 1.186-1.486 1.711-3.206 1.711-4.15 0-.447.178-.877.494-1.194s.747-.494 1.194-.494c.289 0 1.284-.203 2.193-.98.827-.711 1.662-1.972 1.662-4.271 0-2.72-.356-4.12-.786-4.811-.134-.239-.338-.432-.585-.552-.227-.108-.57-.189-1.099-.189-.305 0-.605-.083-.868-.24a1.69 1.69 0 0 1-.621-.652c-.144-.269-.212-.573-.197-.878s.112-.601.281-.855c.469-.705.766-1.743.824-2.995.049-1.262-.123-2.524-.506-3.728-.383-1.189-.912-2.072-1.432-2.562-.471-.442-.797-.466-1.103-.363a1.69 1.69 0 0 1-.789.068c-.265-.04-.516-.142-.734-.299s-.394-.362-.516-.6a1.69 1.69 0 0 1-.186-.77c0-1.468-.72-2.742-1.95-3.699-1.245-.97-2.956-1.553-4.683-1.553-.621 0-1.002.195-1.281.441-.352.346-.618.77-.775 1.238-.252.695-.391 1.425-.412 2.164v23.163h1.432a3.04 3.04 0 0 0 3.04-3.039v-4.042a4.5 4.5 0 0 1-2.732-5.034c.2-1.026.75-1.95 1.557-2.615a4.5 4.5 0 0 1 2.864-1.028c1.045 0 2.057.363 2.863 1.028s1.357 1.589 1.557 2.615.036 2.089-.462 3.007-1.301 1.635-2.27 2.027v4.042c0 1.702-.676 3.334-1.879 4.537s-2.836 1.88-4.538 1.88h-1.432 0zm-9.6-20.264c-.299 0-.585.119-.796.33s-.33.497-.33.796.119.585.33.796.497.33.796.33.585-.119.796-.33.33-.498.33-.796-.119-.585-.33-.796-.497-.33-.796-.33zm-1.126 16.886c0 .299.119.585.33.796s.497.33.796.33.585-.119.796-.33.33-.497.33-.796-.119-.585-.33-.796-.497-.329-.796-.329-.585.118-.796.329-.33.498-.33.796zm15.761-11.257c0 .298.118.585.33.796s.497.33.796.33a1.13 1.13 0 0 0 .796-.33c.211-.211.329-.498.329-.796s-.118-.585-.329-.796a1.13 1.13 0 0 0-.796-.33c-.299 0-.585.119-.796.33a1.12 1.12 0 0 0-.33.796z" fill="url(#S)"/></g><path d="M989.788 903.154c.185-.041.39-.072.617-.092a4.03 4.03 0 0 1 .648-.062c.432 0 .823.103 1.172.309s.525.606.525 1.203v10.8h3.086a2.32 2.32 0 0 1 .185.432c.062.165.092.36.092.587 0 .699-.318 1.049-.956 1.049h-2.407v4.628a2.81 2.81 0 0 1-.463.124 2.86 2.86 0 0 1-.617.061c-.885 0-1.327-.36-1.327-1.08v-3.733h-8.918c-.206-.103-.391-.278-.555-.525-.144-.267-.216-.576-.216-.926 0-.185.01-.339.031-.463l.123-.401 8.98-11.911zm.648 2.438h-.062l-6.851 9.72h6.851l.062-9.72zm-126.291 53.044c0-1.316-.205-2.437-.617-3.363-.391-.946-.936-1.718-1.635-2.314-.679-.597-1.481-1.029-2.407-1.296-.905-.288-1.882-.432-2.932-.432l-1.728.061c-.473.041-.915.103-1.327.185v14.689c.494.123 1.019.205 1.574.246l1.759.062c2.428 0 4.248-.658 5.462-1.975 1.234-1.316 1.851-3.271 1.851-5.863zm2.562 0c0 1.687-.237 3.158-.71 4.413-.453 1.234-1.111 2.263-1.975 3.086-.844.823-1.872 1.44-3.086 1.851-1.214.391-2.571.587-4.073.587-.658 0-1.399-.031-2.222-.093a9.65 9.65 0 0 1-2.345-.401c-.864-.268-1.296-.741-1.296-1.42v-15.861c0-.329.082-.576.247-.74.164-.185.422-.329.771-.432.638-.206 1.358-.34 2.16-.401l2.407-.093c1.502 0 2.87.206 4.104.617 1.255.391 2.325.988 3.209 1.79.885.782 1.574 1.769 2.068 2.962.494 1.173.741 2.551.741 4.135zm5.81 3.919c.555 2.695 2.325 4.043 5.307 4.043.864 0 1.646-.144 2.346-.432s1.255-.597 1.666-.926c.494.288.741.679.741 1.172 0 .288-.134.566-.402.834-.246.267-.596.504-1.049.709-.432.206-.946.371-1.543.494-.576.124-1.203.185-1.882.185-2.386 0-4.279-.648-5.678-1.944-1.378-1.296-2.067-3.188-2.067-5.678 0-1.172.164-2.211.493-3.116.35-.926.823-1.708 1.42-2.345.617-.638 1.347-1.122 2.191-1.451.843-.349 1.759-.524 2.746-.524.926 0 1.78.154 2.561.463a5.59 5.59 0 0 1 2.006 1.326c.576.556 1.018 1.224 1.327 2.006.329.761.494 1.605.494 2.531 0 .452-.103.781-.309.987-.206.185-.494.298-.864.339l-9.504 1.327zm4.258-6.974c-1.255 0-2.293.443-3.116 1.327-.823.864-1.255 2.109-1.296 3.734l8.486-1.173c-.103-1.131-.505-2.057-1.204-2.777-.679-.74-1.635-1.111-2.87-1.111zM897 964.438c0 1.316-.484 2.345-1.45 3.085s-2.366 1.111-4.197 1.111c-.782 0-1.502-.072-2.16-.216-.658-.123-1.224-.288-1.697-.494-.453-.226-.813-.473-1.08-.74-.247-.288-.371-.576-.371-.864 0-.247.062-.484.186-.71.144-.226.349-.422.617-.586.555.411 1.203.782 1.944 1.111.74.308 1.584.463 2.53.463 2.139 0 3.209-.72 3.209-2.16 0-1.173-.71-1.934-2.129-2.284l-2.561-.679c-1.255-.329-2.17-.802-2.746-1.419-.576-.638-.864-1.451-.864-2.438a3.97 3.97 0 0 1 .308-1.543c.226-.494.566-.926 1.018-1.296s1.008-.658 1.667-.864c.679-.226 1.471-.339 2.376-.339 1.44 0 2.602.216 3.487.648.884.411 1.327.895 1.327 1.45a1.21 1.21 0 0 1-.216.71 1.16 1.16 0 0 1-.525.463c-.37-.247-.895-.515-1.574-.803s-1.481-.432-2.407-.432-1.666.175-2.221.525a1.67 1.67 0 0 0-.803 1.481c0 .473.155.874.463 1.203s.823.576 1.543.741l2.129.525c1.399.349 2.448.874 3.148 1.573.699.679 1.049 1.605 1.049 2.778zm6.365 3.733a2.81 2.81 0 0 1-.463.124c-.206.061-.432.092-.679.092-.885 0-1.327-.37-1.327-1.111v-13.237c.103-.042.257-.083.463-.124.226-.062.463-.092.71-.092.864 0 1.296.38 1.296 1.141v13.207zm-2.839-18.699c0-.432.144-.792.432-1.08.308-.309.699-.463 1.172-.463s.854.154 1.142.463c.288.288.432.648.432 1.08s-.144.802-.432 1.11c-.288.288-.668.432-1.142.432s-.864-.144-1.172-.432c-.288-.308-.432-.678-.432-1.11zm17.194 17.28c-.35.288-.833.535-1.45.74-.597.206-1.317.309-2.16.309-.905 0-1.759-.123-2.562-.37a5.97 5.97 0 0 1-2.129-1.235c-.596-.576-1.08-1.316-1.45-2.221-.35-.905-.525-2.006-.525-3.302 0-1.173.175-2.201.525-3.086s.833-1.625 1.45-2.222c.638-.596 1.389-1.038 2.253-1.326.864-.309 1.821-.463 2.87-.463.946 0 1.81.123 2.592.37.802.226 1.471.514 2.005.864a2.71 2.71 0 0 1 .741.71c.206.247.309.555.309.925v12.405c0 1.029-.175 1.893-.525 2.592-.329.72-.802 1.296-1.419 1.728-.597.453-1.307.782-2.13.988a10.9 10.9 0 0 1-2.653.308c-1.049 0-1.944-.113-2.685-.339-.72-.206-1.214-.391-1.481-.556-.617-.349-.926-.792-.926-1.326a1.42 1.42 0 0 1 .185-.741 1.52 1.52 0 0 1 .525-.432c.432.329 1.039.627 1.82.895.782.288 1.636.432 2.562.432 1.378 0 2.427-.298 3.147-.895.741-.576 1.111-1.512 1.111-2.808v-1.944zm-3.333-.988c.823 0 1.492-.123 2.006-.37.535-.267.977-.566 1.327-.895v-8.023c-.35-.226-.792-.421-1.327-.586-.514-.185-1.131-.278-1.851-.278-1.399 0-2.52.422-3.364 1.265-.823.844-1.234 2.099-1.234 3.765 0 .926.113 1.718.339 2.376.227.638.535 1.162.926 1.574.411.411.885.71 1.42.895.555.185 1.141.277 1.758.277zm20.246-6.819c0-1.152-.329-1.996-.987-2.53-.638-.535-1.502-.803-2.592-.803-.823 0-1.553.103-2.191.309s-1.183.442-1.635.71v11.54c-.103.041-.258.083-.463.124-.206.061-.432.092-.679.092-.885 0-1.327-.37-1.327-1.111v-10.522c0-.432.082-.782.247-1.049.185-.288.494-.566.926-.833.534-.329 1.244-.628 2.129-.895s1.882-.401 2.993-.401c1.872 0 3.343.421 4.413 1.265 1.09.843 1.635 2.17 1.635 3.98v9.35a2.78 2.78 0 0 1-.494.124 2.26 2.26 0 0 1-.648.092c-.884 0-1.327-.37-1.327-1.111v-8.331zm6.876 12.189c-.165.288-.34.493-.525.617-.185.144-.411.216-.679.216-.452 0-.823-.175-1.111-.525l.463-1.388.494-1.636.463-1.635.339-1.451c.165-.082.34-.144.525-.185a2.26 2.26 0 0 1 .648-.092c.37 0 .658.092.864.277.205.165.308.453.308.864 0 .35-.072.762-.216 1.235a12.41 12.41 0 0 1-.463 1.419l-.586 1.358c-.206.411-.38.72-.524.926zm24.43-12.498c0-1.316-.205-2.437-.617-3.363-.391-.946-.936-1.718-1.635-2.314-.679-.597-1.481-1.029-2.407-1.296-.905-.288-1.882-.432-2.932-.432l-1.728.061a12.15 12.15 0 0 0-1.326.185v14.689a9.34 9.34 0 0 0 1.573.246l1.759.062c2.428 0 4.248-.658 5.462-1.975 1.234-1.316 1.851-3.271 1.851-5.863zm2.562 0c0 1.687-.237 3.158-.71 4.413-.453 1.234-1.111 2.263-1.975 3.086-.843.823-1.872 1.44-3.086 1.851-1.213.391-2.571.587-4.073.587-.658 0-1.399-.031-2.222-.093a9.65 9.65 0 0 1-2.345-.401c-.864-.268-1.296-.741-1.296-1.42v-15.861c0-.329.082-.576.247-.74.165-.185.422-.329.771-.432.638-.206 1.358-.34 2.16-.401l2.407-.093c1.502 0 2.87.206 4.104.617 1.255.391 2.325.988 3.21 1.79.884.782 1.573 1.769 2.067 2.962.494 1.173.741 2.551.741 4.135zm5.81 3.919c.555 2.695 2.325 4.043 5.308 4.043.864 0 1.645-.144 2.345-.432s1.255-.597 1.666-.926c.494.288.741.679.741 1.172 0 .288-.134.566-.402.834-.246.267-.596.504-1.049.709-.432.206-.946.371-1.543.494-.576.124-1.203.185-1.882.185-2.386 0-4.279-.648-5.678-1.944-1.378-1.296-2.067-3.188-2.067-5.678 0-1.172.164-2.211.494-3.116.349-.926.822-1.708 1.419-2.345.617-.638 1.347-1.122 2.191-1.451.843-.349 1.759-.524 2.746-.524.926 0 1.78.154 2.561.463a5.59 5.59 0 0 1 2.006 1.326c.576.556 1.018 1.224 1.327 2.006.329.761.494 1.605.494 2.531 0 .452-.103.781-.309.987-.206.185-.494.298-.864.339l-9.504 1.327zm4.258-6.974c-1.254 0-2.293.443-3.116 1.327-.823.864-1.255 2.109-1.296 3.734l8.486-1.173c-.103-1.131-.504-2.057-1.204-2.777-.679-.74-1.635-1.111-2.87-1.111zm20.541-1.882c.349 0 .627.093.833.278.227.185.337.452.337.802 0 .226-.08.628-.24 1.204l-.653 2.005-.925 2.531-1.08 2.777-1.142 2.623-1.049 2.191c-.103.082-.288.154-.556.216-.247.061-.514.092-.802.092-.761 0-1.255-.216-1.481-.648l-.71-1.45-.926-2.098-1.018-2.5-1.018-2.623-.926-2.53-.71-2.191c.144-.206.34-.37.587-.494s.493-.185.74-.185c.371 0 .648.093.833.278.206.185.391.494.556.926l1.913 5.523.463 1.296.555 1.543.587 1.512.493 1.265h.124l2.283-6.14 1.883-5.956c.267-.165.617-.247 1.049-.247zm6.12 8.856c.55 2.695 2.32 4.043 5.31 4.043.86 0 1.64-.144 2.34-.432s1.26-.597 1.67-.926c.49.288.74.679.74 1.172 0 .288-.14.566-.4.834-.25.267-.6.504-1.05.709-.43.206-.95.371-1.54.494-.58.124-1.21.185-1.89.185-2.38 0-4.28-.648-5.67-1.944-1.38-1.296-2.07-3.188-2.07-5.678 0-1.172.16-2.211.49-3.116.35-.926.82-1.708 1.42-2.345a6.14 6.14 0 0 1 2.19-1.451c.85-.349 1.76-.524 2.75-.524.92 0 1.78.154 2.56.463s1.45.75 2.01 1.326c.57.556 1.01 1.224 1.32 2.006.33.761.5 1.605.5 2.531 0 .452-.11.781-.31.987-.21.185-.5.298-.87.339l-9.5 1.327zm4.26-6.974c-1.26 0-2.3.443-3.12 1.327-.82.864-1.25 2.109-1.3 3.734l8.49-1.173c-.1-1.131-.5-2.057-1.2-2.777-.68-.74-1.64-1.111-2.87-1.111zm12.7 12.59c-.11.041-.26.083-.47.124-.2.061-.43.092-.67.092-.89 0-1.33-.37-1.33-1.111v-19.039c.1-.041.26-.082.46-.123.23-.062.45-.093.68-.093.88 0 1.33.371 1.33 1.111v19.039zm18.11-7.066c0 1.152-.16 2.191-.49 3.117s-.8 1.717-1.42 2.376c-.6.658-1.33 1.162-2.19 1.512s-1.83.524-2.9.524-2.04-.175-2.9-.524c-.87-.35-1.61-.854-2.22-1.512-.62-.659-1.09-1.451-1.42-2.376s-.5-1.965-.5-3.117.17-2.191.5-3.117c.35-.925.83-1.717 1.45-2.376.61-.658 1.35-1.162 2.22-1.512.86-.349 1.82-.524 2.87-.524s2 .175 2.87.524c.86.35 1.59.854 2.19 1.512.62.659 1.09 1.451 1.42 2.376.35.926.52 1.965.52 3.117zm-7-5.493c-1.4 0-2.5.484-3.3 1.451-.81.966-1.21 2.314-1.21 4.042 0 1.749.39 3.106 1.18 4.073.8.946 1.91 1.42 3.33 1.42s2.52-.484 3.3-1.451 1.17-2.314 1.17-4.042-.4-3.076-1.2-4.042c-.78-.967-1.87-1.451-3.27-1.451zm16.9 13.022c-.72 0-1.4-.082-2.04-.247-.63-.164-1.16-.36-1.57-.586v5.986c-.1.042-.26.083-.46.124a2.36 2.36 0 0 1-.68.092c-.89 0-1.33-.38-1.33-1.141v-16.293c0-.412.07-.741.22-.988.14-.246.44-.504.89-.771.56-.309 1.22-.586 1.98-.833.78-.268 1.66-.401 2.65-.401 1.01 0 1.96.144 2.84.432.9.288 1.68.74 2.31 1.357.66.597 1.18 1.368 1.55 2.315.39.946.58 2.077.58 3.394 0 1.276-.17 2.386-.52 3.333-.33.946-.8 1.738-1.42 2.376-.62.617-1.36 1.08-2.22 1.388-.85.309-1.77.463-2.78.463zm-.34-2.036c1.44 0 2.59-.432 3.46-1.296.88-.885 1.32-2.294 1.32-4.228 0-1.008-.13-1.862-.4-2.561-.24-.7-.59-1.265-1.05-1.697-.43-.432-.93-.741-1.51-.926-.57-.185-1.18-.278-1.82-.278-.74 0-1.37.093-1.88.278a9.39 9.39 0 0 0-1.39.617v9.103c.39.288.85.525 1.39.71.53.185 1.16.278 1.88.278zm29.19-8.054c0-1.008-.29-1.749-.86-2.222-.58-.473-1.35-.71-2.32-.71-1.34 0-2.53.473-3.58 1.42a4.71 4.71 0 0 1 .19 1.327v9.812a2.98 2.98 0 0 1-.5.124c-.2.061-.42.092-.65.092-.88 0-1.32-.37-1.32-1.111v-8.732c0-1.008-.29-1.749-.87-2.222-.57-.473-1.35-.71-2.34-.71-.66 0-1.29.103-1.88.309-.58.206-1.07.442-1.48.71v11.54c-.11.041-.26.083-.47.124-.2.061-.43.092-.68.092-.88 0-1.32-.37-1.32-1.111v-10.522c0-.411.08-.751.24-1.018.19-.288.5-.576.93-.864.55-.35 1.25-.648 2.1-.895.86-.268 1.73-.401 2.59-.401 1.01 0 1.9.154 2.68.463.79.288 1.38.689 1.79 1.203.54-.473 1.21-.864 2.01-1.173.8-.329 1.72-.493 2.75-.493 1.66 0 2.99.401 3.98 1.203.98.782 1.48 1.996 1.48 3.641v9.751a2.98 2.98 0 0 1-.5.124c-.2.061-.42.092-.64.092-.89 0-1.33-.37-1.33-1.111v-8.732zm8.87 4.011c.55 2.695 2.32 4.043 5.31 4.043.86 0 1.64-.144 2.34-.432s1.26-.597 1.67-.926c.49.288.74.679.74 1.172 0 .288-.14.566-.4.834-.25.267-.6.504-1.05.709-.43.206-.95.371-1.55.494-.57.124-1.2.185-1.88.185-2.38 0-4.28-.648-5.68-1.944-1.37-1.296-2.06-3.188-2.06-5.678 0-1.172.16-2.211.49-3.116.35-.926.82-1.708 1.42-2.345a6.14 6.14 0 0 1 2.19-1.451c.84-.349 1.76-.524 2.75-.524.92 0 1.78.154 2.56.463s1.45.75 2 1.326c.58.556 1.02 1.224 1.33 2.006.33.761.49 1.605.49 2.531 0 .452-.1.781-.3.987-.21.185-.5.298-.87.339l-9.5 1.327zm4.26-6.974c-1.26 0-2.3.443-3.12 1.327-.82.864-1.26 2.109-1.3 3.734l8.49-1.173c-.1-1.131-.5-2.057-1.2-2.777-.68-.74-1.64-1.111-2.87-1.111zm19.85 3.364c0-1.152-.32-1.996-.98-2.53-.64-.535-1.5-.803-2.59-.803-.83 0-1.56.103-2.2.309-.63.206-1.18.442-1.63.71v11.54c-.1.041-.26.083-.46.124-.21.061-.44.092-.68.092-.89 0-1.33-.37-1.33-1.111v-10.522c0-.432.08-.782.25-1.049.18-.288.49-.566.92-.833.54-.329 1.25-.628 2.13-.895.89-.268 1.88-.401 3-.401 1.87 0 3.34.421 4.41 1.265 1.09.843 1.63 2.17 1.63 3.98v9.35c-.1.041-.26.083-.49.124-.21.061-.42.092-.65.092-.88 0-1.33-.37-1.33-1.111v-8.331zm11.97 9.689c-1.44 0-2.61-.319-3.52-.956-.88-.638-1.32-1.698-1.32-3.179v-14.657c.1-.041.25-.082.46-.124a2.72 2.72 0 0 1 .71-.092c.86 0 1.3.37 1.3 1.111v3.548h5.06c.06.103.12.247.18.432.06.165.09.35.09.556 0 .699-.3 1.049-.92 1.049h-4.41v8.023c0 .823.22 1.409.67 1.759.48.329 1.14.494 1.98.494.35 0 .74-.062 1.17-.186s.79-.267 1.08-.432c.13.124.24.278.34.463s.16.401.16.648c0 .453-.27.823-.81 1.111-.53.288-1.27.432-2.22.432zm-177.341 46.316a1.11 1.11 0 0 1-.617-.18 4.46 4.46 0 0 1-.617-.53l-1.574-1.63c-.678.72-1.512 1.29-2.499 1.72-.988.44-2.16.65-3.518.65-1.07 0-2.036-.15-2.9-.46-.864-.29-1.605-.7-2.222-1.23-.617-.54-1.101-1.19-1.451-1.95-.329-.78-.493-1.64-.493-2.59 0-1.44.38-2.63 1.141-3.58.762-.97 1.729-1.67 2.901-2.1-.494-.57-.864-1.14-1.111-1.7-.247-.55-.37-1.16-.37-1.816 0-1.276.422-2.294 1.265-3.055.864-.761 2.078-1.142 3.641-1.142 1.091 0 1.913.154 2.469.463.576.308.864.699.864 1.172 0 .247-.072.474-.216.679-.124.185-.268.329-.432.432-.329-.185-.72-.339-1.173-.463a4.93 4.93 0 0 0-1.357-.185c-.782 0-1.399.196-1.852.587-.452.37-.679.884-.679 1.542 0 .636.165 1.206.494 1.696.329.5.802 1.06 1.419 1.7l5.802 6.05c.288-.66.504-1.44.648-2.35.164-.9.247-1.92.247-3.05.185-.09.37-.15.555-.19.206-.06.401-.09.586-.09.823 0 1.235.46 1.235 1.39a13.05 13.05 0 0 1-.402 3.18c-.267 1.07-.648 2.03-1.141 2.9l2.715 2.8c-.123.89-.576 1.33-1.358 1.33zm-8.794-2.07c.72 0 1.471-.14 2.253-.43s1.512-.77 2.191-1.45l-5.987-6.26c-.391.12-.771.3-1.142.52-.37.21-.699.49-.987.84-.267.32-.494.72-.679 1.17-.165.45-.247.95-.247 1.51 0 1.23.401 2.23 1.204 2.99.823.74 1.954 1.11 3.394 1.11zm33.632-15.054c0 .288-.092.534-.278.74a1.58 1.58 0 0 1-.586.463c-.535-.37-1.162-.72-1.882-1.049s-1.656-.494-2.808-.494c-.946 0-1.821.165-2.623.494a5.91 5.91 0 0 0-2.098 1.45c-.597.64-1.07 1.44-1.42 2.41-.329.96-.494 2.07-.494 3.33 0 1.28.165 2.39.494 3.33.329.95.782 1.74 1.358 2.38a5.83 5.83 0 0 0 2.129 1.45c.823.31 1.738.46 2.746.46 1.07 0 1.996-.14 2.778-.43.802-.31 1.47-.67 2.005-1.08.206.08.401.24.587.46a1.07 1.07 0 0 1 .277.74c0 .43-.247.83-.74 1.18-.473.32-1.121.61-1.944.86-.823.27-1.872.4-3.148.4-1.296 0-2.499-.21-3.61-.62s-2.078-1.01-2.901-1.82c-.802-.82-1.44-1.84-1.913-3.05-.473-1.22-.71-2.64-.71-4.26 0-1.63.237-3.04.71-4.26.494-1.233 1.152-2.262 1.975-3.084a8.02 8.02 0 0 1 2.87-1.852 9.97 9.97 0 0 1 3.487-.617c.843 0 1.615.072 2.314.216.72.144 1.327.339 1.821.586.514.227.905.494 1.172.803.288.288.432.576.432.864zm16.463 9.564c0 1.15-.165 2.19-.494 3.12-.329.92-.802 1.72-1.419 2.37a5.9 5.9 0 0 1-2.191 1.52c-.864.35-1.831.52-2.901.52s-2.037-.17-2.901-.52a6.18 6.18 0 0 1-2.221-1.52c-.617-.65-1.091-1.45-1.42-2.37-.329-.93-.493-1.97-.493-3.12s.164-2.19.493-3.12a7.13 7.13 0 0 1 1.451-2.37c.617-.66 1.357-1.16 2.221-1.51s1.821-.528 2.87-.528 2.006.178 2.87.528 1.594.85 2.191 1.51a6.75 6.75 0 0 1 1.419 2.37c.35.93.525 1.97.525 3.12zm-7.005-5.49c-1.399 0-2.499.48-3.302 1.45s-1.203 2.31-1.203 4.04c0 1.75.391 3.11 1.172 4.07.803.95 1.914 1.42 3.333 1.42s2.52-.48 3.302-1.45c.782-.96 1.172-2.31 1.172-4.04s-.401-3.07-1.203-4.04c-.782-.97-1.872-1.45-3.271-1.45zm23.015 10.27c0 .42-.1.73-.28.96-.17.23-.43.45-.8.68-.41.27-1 .51-1.76.74-.76.25-1.638.37-2.625.37-1.111 0-2.129-.14-3.055-.43s-1.728-.73-2.407-1.33c-.658-.62-1.173-1.39-1.543-2.31-.35-.95-.524-2.08-.524-3.4 0-1.33.185-2.48.555-3.42.37-.97.864-1.76 1.481-2.38.638-.62 1.379-1.07 2.222-1.36.864-.28 1.779-.428 2.746-.428.659 0 1.296.082 1.913.248.617.16 1.157.37 1.607.62v-6.206c.1-.041.26-.083.46-.124.23-.061.45-.092.68-.092.88 0 1.33.37 1.33 1.111v16.751zm-2.47-9.22c-.41-.29-.89-.54-1.42-.74-.536-.21-1.153-.31-1.853-.31-.638 0-1.244.1-1.82.31-.556.18-1.05.5-1.482.95-.432.44-.781 1.01-1.049 1.73-.247.72-.37 1.6-.37 2.62 0 1.9.453 3.27 1.358 4.11s2.108 1.26 3.61 1.26c.72 0 1.306-.07 1.756-.21.48-.17.9-.36 1.27-.59v-9.13zm9.78 11.51c-.11.04-.26.08-.47.12-.2.06-.43.09-.68.09-.88 0-1.32-.37-1.32-1.11v-13.23c.1-.05.25-.09.46-.13.23-.06.46-.09.71-.09.86 0 1.3.38 1.3 1.14v13.21zm-2.84-18.702c0-.432.14-.792.43-1.08.31-.308.7-.463 1.17-.463s.86.155 1.14.463c.29.288.44.648.44 1.08a1.57 1.57 0 0 1-.44 1.111c-.28.288-.67.432-1.14.432s-.86-.144-1.17-.432a1.56 1.56 0 0 1-.43-1.111zm17.53 9.472c0-1.15-.33-1.99-.99-2.53-.63-.53-1.5-.8-2.59-.8-.82 0-1.55.1-2.19.31-.64.2-1.18.44-1.64.71v11.54c-.1.04-.25.08-.46.12-.2.06-.43.09-.68.09-.88 0-1.32-.37-1.32-1.11v-10.52c0-.43.08-.78.24-1.05.19-.29.5-.56.93-.83.53-.33 1.24-.63 2.13-.9.88-.264 1.88-.398 2.99-.398 1.87 0 3.34.418 4.41 1.268 1.09.84 1.64 2.17 1.64 3.98v9.35c-.1.04-.27.08-.49.12a2.37 2.37 0 0 1-.65.09c-.89 0-1.33-.37-1.33-1.11v-8.33zm16.63 7.81c-.35.29-.84.53-1.45.74-.6.2-1.32.31-2.16.31a8.85 8.85 0 0 1-2.56-.37 5.83 5.83 0 0 1-2.13-1.24c-.6-.57-1.08-1.31-1.45-2.22-.35-.9-.53-2-.53-3.3 0-1.17.18-2.2.53-3.09.35-.88.83-1.62 1.45-2.22.63-.59 1.38-1.04 2.25-1.32.86-.31 1.82-.468 2.87-.468.95 0 1.81.124 2.59.368.8.23 1.47.52 2.01.87.31.2.55.44.74.71a1.4 1.4 0 0 1 .31.92v12.41c0 1.03-.18 1.89-.53 2.59a4.23 4.23 0 0 1-1.42 1.73c-.59.45-1.3.78-2.13.98-.82.21-1.7.31-2.65.31-1.05 0-1.95-.11-2.69-.34-.72-.2-1.21-.39-1.48-.55-.61-.35-.92-.79-.92-1.33 0-.29.06-.53.18-.74.15-.18.32-.33.53-.43.43.33 1.04.63 1.82.89.78.29 1.63.44 2.56.44 1.38 0 2.43-.3 3.15-.9.74-.58 1.11-1.51 1.11-2.81v-1.94zm-3.34-.99c.83 0 1.5-.12 2.01-.37.54-.27.98-.57 1.33-.89v-8.03c-.35-.22-.79-.42-1.33-.58-.51-.19-1.13-.28-1.85-.28-1.4 0-2.52.42-3.36 1.26-.83.85-1.24 2.1-1.24 3.77 0 .92.11 1.72.34 2.37.23.64.54 1.17.93 1.58.41.41.88.71 1.42.89.55.19 1.14.28 1.75.28z" class="F"/><g filter="url(#F)"><path d="M937.253 908.65l2.812-3.514-9.054-7.243 9.054-7.242-2.812-3.515-11.25 9c-.264.211-.476.478-.623.782a2.26 2.26 0 0 0-.222.975 2.25 2.25 0 0 0 .845 1.757l11.25 9zm20.812-21.514l-2.813 3.515 9.054 7.242-9.054 7.243 2.813 3.514 11.249-9c.264-.21.477-.478.623-.782a2.25 2.25 0 0 0 .222-.975 2.26 2.26 0 0 0-.222-.975c-.146-.304-.359-.571-.623-.782l-11.249-9zm-3.711-9.006l-8.999 40.499-4.394-.977 8.999-40.499 4.394.977z" fill="url(#T)"/></g><path d="M1216.94 677.104a2.17 2.17 0 0 1 .19.432c.06.164.09.349.09.555 0 .35-.08.627-.25.833-.16.185-.4.278-.71.278h-7.9l-.49 5.554c.35-.185.83-.36 1.45-.524.62-.186 1.29-.278 2.01-.278.92 0 1.78.134 2.56.401.8.267 1.5.658 2.1 1.173.59.493 1.05 1.121 1.38 1.882.35.741.53 1.605.53 2.592 0 .905-.16 1.738-.46 2.499-.31.762-.77 1.42-1.36 1.975-.6.556-1.34.998-2.22 1.327-.87.309-1.86.463-2.97.463a11.17 11.17 0 0 1-2.43-.247c-.72-.144-1.34-.339-1.86-.586-.51-.247-.91-.514-1.2-.802-.27-.309-.4-.607-.4-.895 0-.329.1-.607.31-.833.22-.247.45-.422.68-.525.45.411 1.09.823 1.91 1.234.82.391 1.82.587 2.99.587 1.42 0 2.52-.391 3.31-1.173.78-.782 1.17-1.79 1.17-3.024 0-1.255-.4-2.232-1.21-2.931-.8-.7-1.85-1.05-3.14-1.05-.72 0-1.38.114-1.98.34a12.43 12.43 0 0 0-1.66.771c-.56-.041-1.01-.205-1.36-.493a1.54 1.54 0 0 1-.5-1.173v-.463l.07-.586.52-5.894c.04-.432.18-.771.4-1.018.23-.268.56-.401.99-.401h9.44zm-120.27 63.35c1.38 0 2.42-.308 3.12-.925.72-.638 1.08-1.451 1.08-2.438 0-.864-.28-1.564-.84-2.099-.53-.534-1.39-.977-2.56-1.326l-2.68-.803c-1.32-.391-2.36-.967-3.12-1.728-.74-.761-1.11-1.789-1.11-3.086 0-.781.14-1.481.43-2.098.31-.638.74-1.172 1.3-1.604.55-.432 1.21-.762 1.97-.988.78-.247 1.66-.37 2.62-.37a11.35 11.35 0 0 1 2.29.216c.72.123 1.34.308 1.85.555.53.227.95.484 1.23.772.29.288.44.586.44.895a1.29 1.29 0 0 1-.22.74c-.14.206-.33.37-.56.494-.53-.412-1.23-.772-2.09-1.08-.85-.309-1.79-.463-2.84-.463-1.22 0-2.17.257-2.87.771-.68.515-1.02 1.235-1.02 2.16 0 .721.25 1.307.74 1.759s1.32.844 2.47 1.173l1.88.555c1.63.474 2.9 1.142 3.83 2.006.94.844 1.42 2.026 1.42 3.549 0 1.625-.59 2.942-1.76 3.95-1.18 1.008-2.84 1.512-5 1.512-.95 0-1.81-.083-2.59-.247-.76-.165-1.42-.381-1.98-.648-.53-.268-.96-.556-1.26-.864-.29-.329-.44-.648-.44-.957 0-.35.11-.638.31-.864a1.98 1.98 0 0 1 .77-.524 8.29 8.29 0 0 0 .84.709 8.36 8.36 0 0 0 1.14.648 8.35 8.35 0 0 0 1.45.463c.53.124 1.12.185 1.76.185zm10.44-12.497c.11-.041.26-.082.47-.124.22-.061.46-.092.71-.092.86 0 1.29.381 1.29 1.142v7.93c0 1.337.35 2.294 1.05 2.87.7.555 1.67.833 2.9.833.83 0 1.52-.082 2.1-.247.58-.185 1.03-.37 1.36-.555v-11.757c.1-.041.26-.082.46-.124.23-.061.45-.092.68-.092.88 0 1.33.381 1.33 1.142v10.738c0 .432-.06.782-.19 1.049-.1.247-.37.494-.8.741-.47.267-1.13.524-1.98.771-.82.247-1.82.371-2.99.371-2.06 0-3.64-.453-4.75-1.358-1.09-.905-1.64-2.325-1.64-4.258v-8.98zm23.33-.463a7.48 7.48 0 0 1 2.65.463c.82.309 1.53.771 2.13 1.389.62.617 1.09 1.398 1.42 2.345.35.946.52 2.057.52 3.332 0 1.296-.17 2.418-.52 3.364s-.84 1.728-1.48 2.345c-.62.617-1.37 1.08-2.26 1.389-.88.288-1.85.432-2.9.432-1 0-1.92-.124-2.74-.371-.8-.226-1.46-.493-1.98-.802-.43-.267-.73-.525-.89-.771-.17-.268-.25-.618-.25-1.05v-17.403c.1-.041.26-.083.46-.124.23-.061.47-.092.71-.092.87 0 1.3.37 1.3 1.111v5.523c.45-.288.99-.535 1.6-.741.64-.226 1.38-.339 2.23-.339zm-.37 2.037c-.72 0-1.38.133-1.98.401-.57.247-1.07.545-1.48.895v8.732c.31.227.75.443 1.33.648.59.206 1.28.309 2.06.309.7 0 1.33-.103 1.89-.309.57-.226 1.07-.565 1.48-1.018s.73-1.018.95-1.697c.23-.7.34-1.522.34-2.469s-.11-1.769-.34-2.468c-.22-.7-.54-1.265-.95-1.697a3.64 3.64 0 0 0-1.48-.988 4.83 4.83 0 0 0-1.82-.339zm29.03 2.931c0-1.008-.29-1.748-.87-2.222-.57-.473-1.34-.709-2.31-.709-1.34 0-2.53.473-3.58 1.419a4.72 4.72 0 0 1 .19 1.327v9.813a3 3 0 0 1-.5.123 2.2 2.2 0 0 1-.65.093c-.88 0-1.32-.371-1.32-1.111v-8.733c0-1.008-.29-1.748-.87-2.222-.57-.473-1.36-.709-2.34-.709-.66 0-1.29.103-1.89.308-.57.206-1.06.443-1.48.71v11.541a2.59 2.59 0 0 1-.46.123 2.31 2.31 0 0 1-.68.093c-.88 0-1.32-.371-1.32-1.111v-10.523c0-.411.08-.75.24-1.018.19-.288.5-.576.93-.864.55-.35 1.25-.648 2.1-.895.86-.267 1.72-.401 2.59-.401 1.01 0 1.9.154 2.68.463.78.288 1.38.689 1.79 1.203.54-.473 1.21-.864 2.01-1.172.8-.329 1.72-.494 2.74-.494 1.67 0 3 .401 3.99 1.204.98.781 1.48 1.995 1.48 3.641v9.751a3 3 0 0 1-.5.123 2.2 2.2 0 0 1-.65.093c-.88 0-1.32-.371-1.32-1.111v-8.733zm9.73 9.628c-.1.041-.26.082-.46.123a2.36 2.36 0 0 1-.68.093c-.89 0-1.33-.371-1.33-1.111v-13.238c.1-.041.26-.082.46-.124.23-.061.47-.092.71-.092.87 0 1.3.381 1.3 1.142v13.207zm-2.84-18.7c0-.432.15-.792.43-1.08.31-.309.7-.463 1.18-.463.47 0 .85.154 1.14.463.29.288.43.648.43 1.08a1.56 1.56 0 0 1-.43 1.111c-.29.288-.67.432-1.14.432-.48 0-.87-.144-1.18-.432-.28-.309-.43-.679-.43-1.111zm12.54 19.163c-1.44 0-2.62-.319-3.52-.957-.89-.638-1.33-1.697-1.33-3.178V723.76c.1-.041.26-.082.46-.123.23-.062.47-.093.71-.093.87 0 1.3.371 1.3 1.111v3.549h5.06c.06.103.12.247.19.432a1.61 1.61 0 0 1 .09.555c0 .7-.31 1.049-.93 1.049h-4.41v8.023c0 .823.23 1.41.68 1.759.47.329 1.13.494 1.97.494.35 0 .74-.062 1.18-.185.43-.124.79-.268 1.08-.432.12.123.23.278.34.463.1.185.15.401.15.648 0 .452-.27.823-.8 1.111-.54.288-1.28.432-2.22.432zm24.81-19.163c.07.103.13.247.19.432.06.165.09.35.09.555 0 .35-.08.628-.25.834-.16.205-.4.308-.7.308h-8.4v6.419h7.99c.07.102.13.246.19.432.06.164.09.349.09.555 0 .35-.08.627-.25.833-.16.206-.4.309-.7.309h-7.32v8.054c-.1.041-.27.082-.49.123-.21.041-.42.062-.65.062-.93 0-1.39-.371-1.39-1.111v-16.447c0-.412.12-.741.37-.988s.58-.37.99-.37h10.24zm16.21 11.633c0 1.152-.16 2.191-.49 3.117s-.8 1.718-1.42 2.376c-.6.658-1.33 1.162-2.19 1.512s-1.83.525-2.9.525-2.04-.175-2.9-.525-1.61-.854-2.22-1.512c-.62-.658-1.09-1.45-1.42-2.376s-.5-1.965-.5-3.117.17-2.191.5-3.116c.35-.926.83-1.718 1.45-2.376a6.22 6.22 0 0 1 2.22-1.512c.86-.35 1.82-.525 2.87-.525s2.01.175 2.87.525 1.59.853 2.19 1.512c.62.658 1.09 1.45 1.42 2.376.35.925.52 1.964.52 3.116zm-7-5.492c-1.4 0-2.5.483-3.3 1.45s-1.21 2.314-1.21 4.042c0 1.749.4 3.107 1.18 4.074.8.946 1.91 1.419 3.33 1.419s2.52-.483 3.3-1.45 1.17-2.315 1.17-4.043-.4-3.075-1.2-4.042c-.78-.967-1.87-1.45-3.27-1.45zm13.29 12.559c-.1.041-.26.082-.46.123a2.36 2.36 0 0 1-.68.093c-.89 0-1.33-.371-1.33-1.111v-10.461c0-.473.08-.843.25-1.111.18-.288.48-.565.89-.833.54-.35 1.26-.648 2.16-.895.93-.267 1.97-.401 3.12-.401 1.65 0 2.47.411 2.47 1.234 0 .206-.03.402-.09.587a1.53 1.53 0 0 1-.25.432l-.8-.124a8.02 8.02 0 0 0-.99-.061c-.95 0-1.78.102-2.5.308-.72.185-1.32.412-1.79.679v11.541zm18.46 0a4.57 4.57 0 0 1-.5.123 2.31 2.31 0 0 1-.68.093c-.9 0-1.36-.381-1.36-1.142v-16.416c0-.329.09-.576.25-.741.17-.185.42-.329.77-.432.6-.185 1.33-.319 2.19-.401l2.57-.123c2.59 0 4.51.524 5.77 1.573 1.27 1.029 1.91 2.5 1.91 4.413 0 1.419-.37 2.613-1.11 3.579-.72.967-1.82 1.656-3.3 2.068l1.54 1.975 1.45 1.882 1.23 1.574.87 1.111a1.37 1.37 0 0 1-.56.833c-.27.206-.54.308-.83.308-.35 0-.64-.082-.87-.246-.22-.165-.46-.422-.7-.772l-4.51-6.295h-4.13v7.036zm3.51-9.134c1.53 0 2.72-.329 3.58-.988.87-.658 1.3-1.635 1.3-2.931s-.45-2.263-1.36-2.901c-.9-.658-2.2-.987-3.89-.987a15.97 15.97 0 0 0-1.69.092c-.56.042-1.05.103-1.49.186v7.529h3.55zm13.15 3.518c.56 2.695 2.33 4.042 5.31 4.042.86 0 1.64-.144 2.34-.432s1.26-.597 1.67-.926c.49.288.74.679.74 1.173 0 .288-.13.566-.4.833-.25.267-.6.504-1.05.71-.43.205-.95.37-1.54.493-.58.124-1.21.186-1.88.186-2.39 0-4.28-.648-5.68-1.944-1.38-1.296-2.07-3.189-2.07-5.678 0-1.173.16-2.212.49-3.117.35-.926.83-1.707 1.42-2.345.62-.638 1.35-1.121 2.19-1.45.85-.35 1.76-.525 2.75-.525.93 0 1.78.154 2.56.463s1.45.751 2.01 1.327a5.55 5.55 0 0 1 1.32 2.006c.33.761.5 1.604.5 2.53 0 .452-.1.782-.31.987-.21.185-.49.299-.86.34l-9.51 1.327zm4.26-6.974c-1.26 0-2.29.442-3.12 1.327-.82.864-1.25 2.108-1.29 3.733l8.48-1.172c-.1-1.132-.5-2.057-1.2-2.777-.68-.741-1.64-1.111-2.87-1.111zm20.54-1.883c.35 0 .63.093.83.278.23.185.34.453.34.803 0 .226-.08.627-.24 1.203l-.65 2.006-.93 2.53-1.08 2.777-1.14 2.623-1.05 2.191c-.1.082-.29.154-.55.216a3.36 3.36 0 0 1-.81.093c-.76 0-1.25-.216-1.48-.648l-.71-1.451-.92-2.098-1.02-2.5-1.02-2.622-.93-2.531-.71-2.191c.15-.205.34-.37.59-.493s.49-.186.74-.186c.37 0 .65.093.83.278.21.185.4.494.56.926l1.91 5.523.47 1.296.55 1.543.59 1.512.49 1.266h.13l2.28-6.141 1.88-5.956c.27-.164.62-.247 1.05-.247zm7.22 14.473a2.59 2.59 0 0 1-.46.123 2.31 2.31 0 0 1-.68.093c-.88 0-1.32-.371-1.32-1.111v-13.238c.1-.041.25-.082.46-.124.22-.061.46-.092.71-.092.86 0 1.29.381 1.29 1.142v13.207zm-2.83-18.7c0-.432.14-.792.43-1.08.31-.309.7-.463 1.17-.463s.85.154 1.14.463c.29.288.43.648.43 1.08a1.56 1.56 0 0 1-.43 1.111c-.29.288-.67.432-1.14.432s-.86-.144-1.17-.432a1.56 1.56 0 0 1-.43-1.111zm9.41 13.084c.56 2.695 2.33 4.042 5.31 4.042.87 0 1.65-.144 2.35-.432s1.25-.597 1.66-.926c.5.288.74.679.74 1.173 0 .288-.13.566-.4.833-.24.267-.59.504-1.05.71-.43.205-.94.37-1.54.493-.58.124-1.2.186-1.88.186-2.39 0-4.28-.648-5.68-1.944-1.38-1.296-2.07-3.189-2.07-5.678 0-1.173.17-2.212.5-3.117.35-.926.82-1.707 1.42-2.345.61-.638 1.34-1.121 2.19-1.45.84-.35 1.76-.525 2.74-.525.93 0 1.78.154 2.56.463.79.309 1.45.751 2.01 1.327.58.555 1.02 1.224 1.33 2.006.33.761.49 1.604.49 2.53 0 .452-.1.782-.31.987-.2.185-.49.299-.86.34l-9.51 1.327zm4.26-6.974c-1.25 0-2.29.442-3.11 1.327-.83.864-1.26 2.108-1.3 3.733l8.49-1.172c-.11-1.132-.51-2.057-1.21-2.777-.68-.741-1.63-1.111-2.87-1.111zm18.72 2.036l-.89 2.932-.9 2.839-.89 2.561-.8 2.129c-.17.103-.35.185-.56.247-.2.062-.48.093-.83.093a2.34 2.34 0 0 1-.93-.186c-.26-.102-.45-.277-.55-.524-.25-.514-.55-1.317-.9-2.407l-1.05-3.58-1.01-3.949-.78-3.487c.15-.144.32-.278.53-.401.22-.124.49-.186.8-.186.39 0 .68.114.86.34.19.206.33.545.44 1.018l.64 2.963.75 3.209.67 2.87.5 1.913h.12l.53-1.667.83-2.53 1.02-3.117 1.11-3.332c.37-.206.81-.309 1.33-.309.76 0 1.23.268 1.41.803l1.05 3.209.96 2.931.74 2.438.49 1.605h.16l1.54-5.894 1.36-6.172c.29-.185.64-.278 1.05-.278.35 0 .63.083.83.247.21.165.31.422.31.772 0 .226-.07.668-.22 1.327l-.52 2.252-.77 2.747-.83 2.839-.84 2.499c-.24.741-.46 1.306-.65 1.697-.1.082-.27.154-.52.216a2.35 2.35 0 0 1-.8.124c-.39 0-.72-.052-.99-.155-.25-.082-.41-.226-.49-.432l-.74-1.975-.81-2.468-.89-2.839-.87-2.932z" class="F"/><g filter="url(#G)"><path d="M1176.52 662.436h-36a4.51 4.51 0 0 0-4.5 4.5v40.5l9-9h31.5a4.52 4.52 0 0 0 4.5-4.5v-27a4.52 4.52 0 0 0-4.5-4.5zm0 31.5h-33.37l-2.63 2.633v-29.633h36v27z" fill="url(#U)"/><path d="M1158.52 691.686l3.53-7.718 7.72-3.532-7.72-3.533-3.53-7.717-3.53 7.717-7.72 3.533 7.72 3.532 3.53 7.718z" fill="url(#V)"/></g><path d="M1285.58 430.407a1.26 1.26 0 0 1-.22.709c-.12.206-.28.36-.49.463-.45-.226-.97-.422-1.54-.586-.56-.185-1.17-.278-1.82-.278a5.87 5.87 0 0 0-2.26.432c-.68.288-1.28.73-1.82 1.327-.51.576-.92 1.317-1.23 2.222-.31.884-.47 1.933-.5 3.147.21-.205.47-.421.78-.648a9.56 9.56 0 0 1 1.11-.648c.43-.206.91-.37 1.45-.494a6.6 6.6 0 0 1 1.73-.216c.9 0 1.73.134 2.49.402.77.246 1.42.627 1.98 1.141s.99 1.152 1.3 1.914c.3.761.46 1.645.46 2.653 0 .967-.16 1.831-.46 2.592a5.46 5.46 0 0 1-1.33 1.944c-.58.515-1.28.916-2.1 1.204-.8.288-1.7.432-2.68.432-1.03 0-1.99-.165-2.87-.494-.89-.35-1.66-.895-2.32-1.635-.64-.741-1.14-1.687-1.51-2.839-.35-1.173-.52-2.582-.52-4.228 0-1.933.23-3.559.7-4.875.48-1.317 1.1-2.376 1.86-3.179.78-.822 1.66-1.409 2.65-1.758a9.04 9.04 0 0 1 3.02-.525c.54 0 1.05.041 1.55.123.49.083.93.206 1.32.371.39.144.7.329.93.555a1.05 1.05 0 0 1 .34.772zm-5.15 15.644c1.19 0 2.17-.36 2.93-1.08s1.14-1.748 1.14-3.085-.39-2.325-1.17-2.963c-.76-.658-1.71-.987-2.84-.987-1.11 0-2.07.226-2.87.679s-1.44 1.008-1.92 1.666c.03 1.728.44 3.127 1.24 4.197.82 1.049 1.98 1.573 3.49 1.573zm-109.34 41.257v6.634c-.12.042-.29.083-.49.124a2.41 2.41 0 0 1-.68.092c-.91 0-1.36-.38-1.36-1.141V476.6c0-.329.08-.576.25-.74.16-.185.42-.329.77-.432.59-.185 1.31-.319 2.16-.401l2.5-.124c2.61 0 4.51.556 5.71 1.667 1.21 1.09 1.82 2.571 1.82 4.443 0 1.913-.62 3.446-1.86 4.598-1.23 1.131-3.13 1.697-5.7 1.697h-3.12zm2.96-2.098c1.65 0 2.92-.34 3.83-1.019.9-.678 1.36-1.728 1.36-3.147 0-1.399-.45-2.417-1.33-3.055-.87-.658-2.11-.987-3.74-.987-.55 0-1.11.03-1.66.092a13.02 13.02 0 0 0-1.45.185v7.931h2.99zm13.45 8.732c-.1.042-.26.083-.46.124a2.36 2.36 0 0 1-.68.092c-.89 0-1.33-.37-1.33-1.11v-10.461c0-.473.08-.844.25-1.111.18-.288.48-.566.89-.833.54-.35 1.26-.648 2.16-.895.93-.268 1.97-.401 3.12-.401 1.65 0 2.47.411 2.47 1.234 0 .206-.03.401-.09.586-.07.165-.15.309-.25.432l-.8-.123c-.33-.041-.66-.062-.99-.062-.95 0-1.78.103-2.5.309-.72.185-1.32.411-1.79.679v11.54zm22.25-7.066c0 1.152-.16 2.191-.49 3.117s-.8 1.717-1.42 2.376c-.6.658-1.33 1.162-2.19 1.512-.87.349-1.83.524-2.9.524s-2.04-.175-2.9-.524c-.87-.35-1.61-.854-2.23-1.512-.61-.659-1.09-1.451-1.42-2.376-.32-.926-.49-1.965-.49-3.117s.17-2.191.49-3.117c.35-.925.84-1.717 1.45-2.376.62-.658 1.36-1.162 2.23-1.512.86-.349 1.82-.524 2.87-.524s2 .175 2.87.524c.86.35 1.59.854 2.19 1.512.61.659 1.09 1.451 1.42 2.376.35.926.52 1.965.52 3.117zm-7-5.493c-1.4 0-2.5.484-3.31 1.451-.8.967-1.2 2.314-1.2 4.042 0 1.749.39 3.106 1.17 4.073.81.947 1.92 1.42 3.34 1.42s2.52-.484 3.3-1.451 1.17-2.314 1.17-4.042-.4-3.075-1.2-4.042c-.78-.967-1.87-1.451-3.27-1.451zm8.69 17.126a7.47 7.47 0 0 0 .99-.524 2.1 2.1 0 0 0 .74-.648c.2-.247.36-.566.46-.957.12-.37.19-.854.19-1.45v-15.12a2.49 2.49 0 0 1 .46-.124 2.68 2.68 0 0 1 .71-.092c.86 0 1.29.38 1.29 1.141v14.658c0 .905-.12 1.645-.37 2.221-.24.597-.55 1.07-.92 1.42-.35.37-.72.627-1.11.771s-.73.216-1.02.216c-.51 0-.87-.154-1.08-.462-.19-.288-.3-.638-.34-1.05zm2.01-23.266c0-.432.14-.792.43-1.08.31-.309.7-.463 1.17-.463s.85.154 1.14.463c.29.288.43.648.43 1.08a1.56 1.56 0 0 1-.43 1.111c-.29.288-.67.432-1.14.432s-.86-.144-1.17-.432a1.56 1.56 0 0 1-.43-1.111zm9.38 13.083c.56 2.695 2.33 4.043 5.31 4.043.86 0 1.64-.144 2.34-.432s1.26-.597 1.67-.926c.49.288.74.679.74 1.173 0 .288-.13.565-.4.833-.25.267-.6.504-1.05.709-.43.206-.95.371-1.54.494-.58.124-1.21.185-1.88.185-2.39 0-4.28-.648-5.68-1.944-1.38-1.296-2.07-3.188-2.07-5.678 0-1.172.17-2.211.49-3.116.35-.926.83-1.708 1.42-2.345a6.14 6.14 0 0 1 2.19-1.451c.85-.349 1.76-.524 2.75-.524.93 0 1.78.154 2.56.463a5.67 5.67 0 0 1 2.01 1.327c.57.555 1.02 1.224 1.32 2.005.33.761.5 1.605.5 2.531 0 .452-.1.781-.31.987-.21.185-.49.298-.86.339l-9.51 1.327zm4.26-6.973c-1.25 0-2.29.442-3.12 1.326-.82.864-1.25 2.109-1.29 3.734l8.48-1.172c-.1-1.132-.5-2.058-1.2-2.778-.68-.74-1.64-1.11-2.87-1.11zm16.59.061c-.7 0-1.35.124-1.95.371a3.99 3.99 0 0 0-1.54 1.049c-.43.452-.77 1.028-1.02 1.728-.24.679-.37 1.46-.37 2.345 0 1.769.44 3.127 1.33 4.073.88.926 2.07 1.389 3.55 1.389.86 0 1.58-.113 2.16-.34.57-.247 1.09-.524 1.54-.833.23.124.41.278.56.463.14.185.21.411.21.679 0 .288-.11.555-.34.802-.22.247-.54.463-.95.648-.39.185-.87.329-1.42.432-.54.124-1.12.185-1.76.185-1.07 0-2.06-.154-2.96-.463-.91-.308-1.69-.771-2.35-1.388s-1.17-1.389-1.54-2.314c-.37-.947-.56-2.058-.56-3.333 0-1.255.2-2.345.59-3.271.39-.946.91-1.738 1.57-2.376a6.23 6.23 0 0 1 2.32-1.42c.9-.329 1.86-.493 2.87-.493.63 0 1.22.061 1.75.185.56.103 1.03.257 1.42.463.4.205.69.442.9.71.23.246.34.504.34.771 0 .247-.07.463-.22.648-.14.185-.33.329-.55.432-.46-.309-.95-.576-1.48-.802-.54-.227-1.24-.34-2.1-.34zm13.01 12.991c-1.44 0-2.62-.319-3.52-.956-.89-.638-1.33-1.697-1.33-3.179v-14.657c.1-.041.26-.082.46-.123.23-.062.47-.093.71-.093.87 0 1.3.37 1.3 1.111v3.548h5.06c.06.103.12.247.19.432.06.165.09.35.09.556 0 .699-.31 1.049-.93 1.049h-4.41v8.023c0 .823.23 1.409.68 1.759.47.329 1.13.494 1.97.494.35 0 .74-.062 1.18-.185.43-.124.79-.268 1.08-.432.12.123.23.277.34.462.1.186.15.402.15.648 0 .453-.27.823-.8 1.111-.54.288-1.28.432-2.22.432zm26.91-17.095a1.05 1.05 0 0 1-.28.741 1.59 1.59 0 0 1-.58.463c-.54-.371-1.16-.72-1.88-1.05s-1.66-.493-2.81-.493c-.95 0-1.82.164-2.63.493a5.86 5.86 0 0 0-2.09 1.451c-.6.637-1.07 1.44-1.42 2.407-.33.967-.5 2.077-.5 3.332 0 1.276.17 2.387.5 3.333s.78 1.738 1.35 2.376c.6.638 1.31 1.121 2.13 1.45.83.309 1.74.463 2.75.463 1.07 0 2-.144 2.78-.432.8-.308 1.47-.668 2-1.08.21.082.4.237.59.463.18.206.28.453.28.741 0 .432-.25.822-.74 1.172-.48.329-1.13.617-1.95.864-.82.268-1.87.401-3.15.401-1.29 0-2.49-.205-3.61-.617a8.23 8.23 0 0 1-2.9-1.82c-.8-.823-1.44-1.842-1.91-3.055s-.71-2.634-.71-4.259.24-3.044.71-4.258c.49-1.234 1.15-2.263 1.98-3.086a7.9 7.9 0 0 1 2.87-1.851 9.92 9.92 0 0 1 3.48-.617c.85 0 1.62.072 2.32.216.72.144 1.32.339 1.82.586.51.226.9.494 1.17.802.29.288.43.576.43.864zm16.46 9.566c0 1.152-.16 2.191-.49 3.117s-.8 1.717-1.42 2.376c-.6.658-1.33 1.162-2.19 1.512s-1.83.524-2.9.524-2.04-.175-2.9-.524c-.87-.35-1.61-.854-2.22-1.512-.62-.659-1.09-1.451-1.42-2.376s-.5-1.965-.5-3.117.17-2.191.5-3.117c.35-.925.83-1.717 1.45-2.376.61-.658 1.36-1.162 2.22-1.512s1.82-.524 2.87-.524 2.01.175 2.87.524 1.59.854 2.19 1.512c.62.659 1.09 1.451 1.42 2.376.35.926.52 1.965.52 3.117zm-7-5.493c-1.4 0-2.5.484-3.3 1.451s-1.21 2.314-1.21 4.042c0 1.749.39 3.106 1.18 4.073.8.947 1.91 1.42 3.33 1.42s2.52-.484 3.3-1.451 1.17-2.314 1.17-4.042-.4-3.075-1.2-4.042c-.78-.967-1.87-1.451-3.27-1.451zm28.9 2.932c0-1.008-.28-1.749-.86-2.222s-1.35-.71-2.31-.71c-1.34 0-2.53.474-3.58 1.42a4.72 4.72 0 0 1 .18 1.327v9.812c-.1.042-.27.083-.49.124a2.25 2.25 0 0 1-.65.092c-.88 0-1.33-.37-1.33-1.11v-8.733c0-1.008-.28-1.749-.86-2.222s-1.36-.71-2.35-.71c-.65 0-1.28.103-1.88.309-.57.206-1.07.442-1.48.71v11.54c-.1.042-.26.083-.46.124a2.36 2.36 0 0 1-.68.092c-.89 0-1.33-.37-1.33-1.11v-10.523c0-.411.08-.751.25-1.018.18-.288.49-.576.92-.864.56-.35 1.26-.648 2.1-.895.87-.268 1.73-.401 2.6-.401 1 0 1.9.154 2.68.463.78.288 1.38.689 1.79 1.203.53-.473 1.2-.864 2.01-1.173.8-.329 1.71-.493 2.74-.493 1.67 0 2.99.401 3.98 1.203.99.782 1.48 1.996 1.48 3.641v9.751c-.1.042-.26.083-.49.124a2.25 2.25 0 0 1-.65.092c-.88 0-1.33-.37-1.33-1.11v-8.733zm13.19 10.09c-.72 0-1.4-.082-2.03-.247-.64-.164-1.17-.36-1.58-.586v5.987a2.59 2.59 0 0 1-.46.123 2.36 2.36 0 0 1-.68.093c-.88 0-1.33-.381-1.33-1.142V482.34c0-.411.08-.741.22-.987s.44-.504.9-.772c.55-.309 1.21-.586 1.97-.833.78-.268 1.67-.401 2.65-.401 1.01 0 1.96.144 2.84.432.91.288 1.68.74 2.32 1.358.66.596 1.17 1.368 1.54 2.314.39.946.59 2.078.59 3.394 0 1.276-.18 2.386-.53 3.333-.33.946-.8 1.738-1.42 2.376-.61.617-1.36 1.08-2.22 1.388-.84.309-1.77.463-2.78.463zm-.34-2.036c1.44 0 2.6-.432 3.46-1.296.88-.885 1.33-2.294 1.33-4.228 0-1.008-.14-1.862-.4-2.561-.25-.699-.6-1.265-1.05-1.697-.44-.432-.94-.741-1.52-.926-.57-.185-1.18-.278-1.82-.278-.74 0-1.36.093-1.88.278a9.88 9.88 0 0 0-1.39.617v9.103c.39.288.86.525 1.39.71.54.185 1.16.278 1.88.278zm13.83 1.573c-.11.042-.26.083-.47.124a2.31 2.31 0 0 1-.68.092c-.88 0-1.32-.37-1.32-1.11v-19.04a2.59 2.59 0 0 1 .46-.123c.23-.062.45-.093.68-.093.88 0 1.33.371 1.33 1.111v19.039zm6.63-5.616c.56 2.695 2.33 4.043 5.31 4.043.86 0 1.65-.144 2.35-.432.69-.288 1.25-.597 1.66-.926.5.288.74.679.74 1.173 0 .288-.13.565-.4.833-.25.267-.6.504-1.05.709-.43.206-.94.371-1.54.494-.58.124-1.2.185-1.88.185-2.39 0-4.28-.648-5.68-1.944-1.38-1.296-2.07-3.188-2.07-5.678 0-1.172.17-2.211.49-3.116.35-.926.83-1.708 1.42-2.345a6.09 6.09 0 0 1 2.2-1.451c.84-.349 1.75-.524 2.74-.524.93 0 1.78.154 2.56.463a5.67 5.67 0 0 1 2.01 1.327 5.71 5.71 0 0 1 1.33 2.005c.32.761.49 1.605.49 2.531 0 .452-.1.781-.31.987-.21.185-.49.298-.86.339l-9.51 1.327zm4.26-6.973c-1.25 0-2.29.442-3.12 1.326-.82.864-1.25 2.109-1.29 3.734l8.48-1.172c-.1-1.132-.5-2.058-1.2-2.778-.68-.74-1.63-1.11-2.87-1.11zm14.86 13.052c-1.44 0-2.61-.319-3.52-.956-.88-.638-1.32-1.697-1.32-3.179v-14.657a2.59 2.59 0 0 1 .46-.123c.22-.062.46-.093.71-.093.86 0 1.29.37 1.29 1.111v3.548h5.07c.06.103.12.247.18.432.06.165.09.35.09.556 0 .699-.31 1.049-.92 1.049h-4.42v8.023c0 .823.23 1.409.68 1.759.48.329 1.13.494 1.98.494.35 0 .74-.062 1.17-.185s.79-.268 1.08-.432a2.08 2.08 0 0 1 .34.462c.1.186.15.402.15.648 0 .453-.26.823-.8 1.111-.53.288-1.27.432-2.22.432zm7.91-6.079c.56 2.695 2.33 4.043 5.31 4.043.86 0 1.65-.144 2.35-.432s1.25-.597 1.66-.926c.5.288.74.679.74 1.173 0 .288-.13.565-.4.833-.25.267-.6.504-1.05.709-.43.206-.94.371-1.54.494-.58.124-1.2.185-1.88.185-2.39 0-4.28-.648-5.68-1.944-1.38-1.296-2.07-3.188-2.07-5.678 0-1.172.17-2.211.5-3.116.35-.926.82-1.708 1.42-2.345a5.97 5.97 0 0 1 2.19-1.451c.84-.349 1.75-.524 2.74-.524.93 0 1.78.154 2.56.463a5.57 5.57 0 0 1 2.01 1.327c.58.555 1.02 1.224 1.33 2.005.33.761.49 1.605.49 2.531 0 .452-.1.781-.31.987-.2.185-.49.298-.86.339l-9.51 1.327zm4.26-6.973c-1.25 0-2.29.442-3.12 1.326-.82.864-1.25 2.109-1.29 3.734l8.48-1.172c-.1-1.132-.5-2.058-1.2-2.778-.68-.74-1.63-1.11-2.87-1.11z" class="F"/><g filter="url(#H)"><path d="M1240.78 427.303l-2.73-2.729-12.27 12.271 2.73 2.729 12.27-12.271zm8.21-2.729l-20.48 20.478-8.09-8.071-2.73 2.729 10.82 10.819 23.23-23.226-2.75-2.729zm-42.26 15.136l10.82 10.819 2.73-2.729-10.8-10.819-2.75 2.729z" fill="url(#W)"/></g><defs><filter id="A" x="258.865" y="249.166" width="1025.3" height="794.129" filterUnits="userSpaceOnUse" class="B"><feFlood class="C"/><feBlend in="SourceGraphic"/><feGaussianBlur stdDeviation="103"/></filter><filter id="B" x="126.45" y="309.329" width="1314.7" height="837.421" filterUnits="userSpaceOnUse" class="B"><feFlood result="A" class="C"/><feColorMatrix in="SourceAlpha" values="0 0 0 0 0 0 0 0 0 0 0 0 0 0 0 0 0 0 127 0" result="B"/><feOffset dx="6" dy="6"/><feGaussianBlur stdDeviation="6"/><feComposite in2="B" operator="out"/><feColorMatrix values="0 0 0 0 0.0891666 0 0 0 0 0 0 0 0 0 0.445833 0 0 0 0.15 0"/><feBlend in2="A" result="C"/><feColorMatrix in="SourceAlpha" values="0 0 0 0 0 0 0 0 0 0 0 0 0 0 0 0 0 0 127 0" result="B"/><feOffset dx="-6" dy="-6"/><feGaussianBlur stdDeviation="9"/><feComposite in2="B" operator="out"/><feColorMatrix values="0 0 0 0 1 0 0 0 0 1 0 0 0 0 1 0 0 0 1 0"/><feBlend in2="C"/><feBlend in="SourceGraphic"/></filter><filter id="C" x="202.575" y="450.289" width="49.002" height="49.001" filterUnits="userSpaceOnUse" class="B"><feFlood result="A" class="C"/><feColorMatrix in="SourceAlpha" values="0 0 0 0 0 0 0 0 0 0 0 0 0 0 0 0 0 0 127 0" result="B"/><feOffset dx="2" dy="2"/><feGaussianBlur stdDeviation="1"/><feComposite in2="B" operator="out"/><feColorMatrix values="0 0 0 0 0 0 0 0 0 0 0 0 0 0 0 0 0 0 0.1 0"/><feBlend in2="A"/><feBlend in="SourceGraphic"/></filter><filter id="D" x="313.993" y="728.854" width="49.001" height="49.001" filterUnits="userSpaceOnUse" class="B"><feFlood result="A" class="C"/><feColorMatrix in="SourceAlpha" values="0 0 0 0 0 0 0 0 0 0 0 0 0 0 0 0 0 0 127 0" result="B"/><feOffset dx="2" dy="2"/><feGaussianBlur stdDeviation="1"/><feComposite in2="B" operator="out"/><feColorMatrix values="0 0 0 0 0 0 0 0 0 0 0 0 0 0 0 0 0 0 0.1 0"/><feBlend in2="A"/><feBlend in="SourceGraphic"/></filter><filter id="E" x="592.153" y="924.726" width="49.001" height="49.007" filterUnits="userSpaceOnUse" class="B"><feFlood result="A" class="C"/><feColorMatrix in="SourceAlpha" values="0 0 0 0 0 0 0 0 0 0 0 0 0 0 0 0 0 0 127 0" result="B"/><feOffset dx="2" dy="2"/><feGaussianBlur stdDeviation="1"/><feComposite in2="B" operator="out"/><feColorMatrix values="0 0 0 0 0 0 0 0 0 0 0 0 0 0 0 0 0 0 0.1 0"/><feBlend in2="A"/><feBlend in="SourceGraphic"/></filter><filter id="F" x="925.158" y="877.153" width="49.001" height="45.475" filterUnits="userSpaceOnUse" class="B"><feFlood result="A" class="C"/><feColorMatrix in="SourceAlpha" values="0 0 0 0 0 0 0 0 0 0 0 0 0 0 0 0 0 0 127 0" result="B"/><feOffset dx="2" dy="2"/><feGaussianBlur stdDeviation="1"/><feComposite in2="B" operator="out"/><feColorMatrix values="0 0 0 0 0 0 0 0 0 0 0 0 0 0 0 0 0 0 0.1 0"/><feBlend in2="A"/><feBlend in="SourceGraphic"/></filter><filter id="G" x="1136.02" y="662.436" width="49.001" height="49.001" filterUnits="userSpaceOnUse" class="B"><feFlood result="A" class="C"/><feColorMatrix in="SourceAlpha" values="0 0 0 0 0 0 0 0 0 0 0 0 0 0 0 0 0 0 127 0" result="B"/><feOffset dx="2" dy="2"/><feGaussianBlur stdDeviation="1"/><feComposite in2="B" operator="out"/><feColorMatrix values="0 0 0 0 0 0 0 0 0 0 0 0 0 0 0 0 0 0 0.1 0"/><feBlend in2="A"/><feBlend in="SourceGraphic"/></filter><filter id="H" x="1206.73" y="424.574" width="49.001" height="29.955" filterUnits="userSpaceOnUse" class="B"><feFlood result="A" class="C"/><feColorMatrix in="SourceAlpha" values="0 0 0 0 0 0 0 0 0 0 0 0 0 0 0 0 0 0 127 0" result="B"/><feOffset dx="2" dy="2"/><feGaussianBlur stdDeviation="1"/><feComposite in2="B" operator="out"/><feColorMatrix values="0 0 0 0 0 0 0 0 0 0 0 0 0 0 0 0 0 0 0.1 0"/><feBlend in2="A"/><feBlend in="SourceGraphic"/></filter><linearGradient id="I" x1="464.865" y1="530.647" x2="1078.16" y2="530.647" xlink:href="#Y"><stop stop-color="#cc2b5e"/><stop offset="1" stop-color="#753a88"/></linearGradient><linearGradient id="J" x1="464.073" y1="908.518" x2="829.184" y2="1015.56" xlink:href="#Y"><stop stop-color="#ff6a6a"/><stop offset="1" stop-color="#ff7e00"/></linearGradient><linearGradient id="K" x1="183.296" y1="732.423" x2="535.327" y2="835.632" xlink:href="#Y"><stop stop-color="#ff6a6a"/><stop offset="1" stop-color="#ff7e00"/></linearGradient><linearGradient id="L" x1="807.998" y1="915.796" x2="1160.03" y2="1019.01" xlink:href="#Y"><stop stop-color="#ff6a6a"/><stop offset="1" stop-color="#ff7e00"/></linearGradient><linearGradient id="M" x1="1034.45" y1="742.979" x2="1341.53" y2="833.007" xlink:href="#Y"><stop stop-color="#ff6a6a"/><stop offset="1" stop-color="#ff7e00"/></linearGradient><linearGradient id="N" x1="1136.77" y1="569.762" x2="1441.71" y2="472.758" xlink:href="#Y"><stop stop-color="#ff6a6a"/><stop offset="1" stop-color="#ff7e00"/></linearGradient><linearGradient id="O" x1="131.414" y1="478.195" x2="438.438" y2="568.208" xlink:href="#Y"><stop stop-color="#ff6a6a"/><stop offset="1" stop-color="#ff7e00"/></linearGradient><linearGradient id="P" x1="651.405" y1="643.344" x2="908.231" y2="386.519" xlink:href="#Y"><stop stop-color="#ff6a6a"/><stop offset="1" stop-color="#ff7e00"/></linearGradient><linearGradient id="Q" x1="202.575" y1="472.789" x2="247.576" y2="472.789" xlink:href="#Y"><stop stop-color="#ff6a6a"/><stop offset="1" stop-color="#ff7e00"/></linearGradient><linearGradient id="R" x1="313.993" y1="751.354" x2="358.994" y2="751.354" xlink:href="#Y"><stop stop-color="#ff6a6a"/><stop offset="1" stop-color="#ff7e00"/></linearGradient><linearGradient id="S" x1="592.153" y1="947.229" x2="637.154" y2="947.229" xlink:href="#Y"><stop stop-color="#ff6a6a"/><stop offset="1" stop-color="#ff7e00"/></linearGradient><linearGradient id="T" x1="925.158" y1="897.891" x2="970.159" y2="897.891" xlink:href="#Y"><stop stop-color="#ff6a6a"/><stop offset="1" stop-color="#ff7e00"/></linearGradient><linearGradient id="U" x1="1136.02" y1="684.936" x2="1181.02" y2="684.936" xlink:href="#Y"><stop stop-color="#ff6a6a"/><stop offset="1" stop-color="#ff7e00"/></linearGradient><linearGradient id="V" x1="1147.27" y1="680.436" x2="1169.77" y2="680.436" xlink:href="#Y"><stop stop-color="#ff6a6a"/><stop offset="1" stop-color="#ff7e00"/></linearGradient><linearGradient id="W" x1="1206.73" y1="437.552" x2="1251.74" y2="437.552" xlink:href="#Y"><stop stop-color="#ff6a6a"/><stop offset="1" stop-color="#ff7e00"/></linearGradient><path id="X" d="M227.853 532.514a2.81 2.81 0 0 1-.463.124c-.206.061-.432.092-.679.092-.884 0-1.327-.37-1.327-1.111v-13.238c.103-.041.257-.082.463-.123.226-.062.463-.093.71-.093.864 0 1.296.381 1.296 1.142v13.207zm-2.839-18.7c0-.432.144-.792.432-1.08a1.59 1.59 0 0 1 1.173-.462c.473 0 .853.154 1.141.462.288.288.432.648.432 1.08a1.57 1.57 0 0 1-.432 1.111c-.288.288-.668.432-1.141.432s-.864-.144-1.173-.432a1.57 1.57 0 0 1-.432-1.111z"/><linearGradient id="Y" gradientUnits="userSpaceOnUse"/></defs></svg>